<svg width="65" height="52" viewBox="0 0 65 52" fill="none" xmlns="http://www.w3.org/2000/svg">
<g clip-path="url(#clip0_93_40)">
<path d="M32.5373 0.00315517C41.2236 0.00315517 49.9109 0.00315517 58.5993 0.00315517C61.9622 0.00315517 64.4398 2.13712 64.9404 5.4216C64.989 5.80514 65.0078 6.19192 64.9967 6.57841C64.9967 13.4668 64.9967 20.3541 64.9967 27.2403C64.9967 31.171 62.3658 33.8282 58.4523 33.8314C41.1423 33.8314 23.8323 33.8314 6.52233 33.8314C2.61195 33.8314 -0.0127106 31.1679 -0.0127106 27.234C-0.0127106 20.3688 -0.0127106 13.5036 -0.0127106 6.6383C-0.0127106 2.60048 2.57127 0.00315209 6.59741 0L32.5373 0.00315517ZM57.5638 31.6533H58.4616C61.1864 31.6533 62.8413 29.9701 62.8413 27.2403C62.8413 20.3058 62.8413 13.3712 62.8413 6.43657C62.8413 3.9149 61.1582 2.19701 58.6399 2.19386H6.39719C3.87265 2.19386 2.19587 3.89914 2.19274 6.43026C2.19274 13.4321 2.19274 20.4339 2.19274 27.4358C2.19274 30.2727 4.62657 32.1954 7.47333 31.5556C7.47333 30.4114 7.47333 29.2545 7.47333 28.0883C7.48897 25.1064 9.52863 22.9945 12.4786 22.9913C25.8261 22.9787 39.1829 22.9787 52.5491 22.9913C55.5023 22.9913 57.5544 25.1032 57.5544 28.082C57.5576 29.2451 57.5513 30.4019 57.5513 31.6533H57.5638ZM55.374 31.6186C55.374 30.2411 55.4366 28.9204 55.3584 27.6091C55.2676 26.0993 54.0476 25.1757 52.3114 25.1757H12.7164C12.4454 25.172 12.1746 25.1889 11.9061 25.2262C10.7393 25.4058 9.76013 26.2821 9.67566 27.4547C9.57243 28.8258 9.65064 30.2096 9.65064 31.6186H55.374Z" fill="black"/>
<path d="M45.3699 38.4902C45.2083 38.7703 45.0058 39.0242 44.7692 39.2435C43.252 40.3846 43.0831 41.4311 44.2812 42.9094C44.8224 43.5745 45.47 44.1702 46.0018 44.8259C46.9403 45.9984 47.5284 47.2971 47.1373 48.8574C46.9717 49.473 46.681 50.0473 46.2836 50.5437C45.8862 51.0402 45.3907 51.4481 44.8287 51.7415C44.5957 51.8859 44.3164 51.9337 44.0492 51.8749C43.7821 51.8161 43.5479 51.6554 43.3959 51.4263C43.3118 51.3102 43.2529 51.1776 43.223 51.0371C43.1932 50.8965 43.193 50.7512 43.2225 50.6106C43.252 50.47 43.3105 50.3372 43.3943 50.2209C43.4781 50.1045 43.5852 50.0073 43.7087 49.9354C45.8422 48.5548 45.1477 47.1206 44.0216 45.8219C43.3476 45.1295 42.7206 44.3924 42.1446 43.6155C40.6711 41.3554 41.3375 38.7581 43.6555 37.4342C44.4626 36.9393 45.348 37.3712 45.3699 38.4902Z" fill="black"/>
<path d="M20.8314 37.0969C21.1004 37.327 21.5071 37.5256 21.6448 37.844C21.7824 38.1623 21.6448 38.5595 21.5572 38.9157C21.529 39.0418 21.3445 39.1395 21.2193 39.2309C19.627 40.4035 19.4862 41.4373 20.7563 42.985C21.2756 43.6154 21.8888 44.1608 22.3924 44.7943C23.3309 45.9669 23.9347 47.2624 23.5593 48.8195C23.2465 50.1592 22.3737 51.0922 21.2131 51.7541C20.9751 51.8918 20.6931 51.93 20.4276 51.8604C20.162 51.7909 19.9341 51.6192 19.7928 51.3822C19.6461 51.1489 19.5945 50.8675 19.6487 50.5968C19.7029 50.326 19.8588 50.0868 20.0837 49.9291C21.8919 48.4507 21.9607 47.4894 20.3559 45.7305C19.7045 45.0731 19.1032 44.3671 18.5571 43.6186C17.0681 41.3649 17.7031 38.7833 20.0212 37.4279C20.2841 37.3005 20.5547 37.19 20.8314 37.0969Z" fill="black"/>
<path d="M32.3968 52.0001C32.109 51.7573 31.6866 51.5619 31.5678 51.253C31.4489 50.9441 31.6084 50.4997 31.6866 50.1246C31.7085 50.0174 31.8743 49.9386 31.9807 49.8566C33.5824 48.6683 33.72 47.6502 32.4562 46.1056C31.915 45.4374 31.2643 44.8448 30.7356 44.186C29.8253 43.0229 29.2653 41.7337 29.6595 40.2049C29.9974 38.8937 30.8514 37.9985 31.987 37.3334C32.2248 37.1958 32.5065 37.157 32.7723 37.2253C33.038 37.2936 33.2669 37.4635 33.4103 37.699C33.5584 37.9313 33.6121 38.2122 33.5603 38.4833C33.5085 38.7544 33.3551 38.995 33.1319 39.1553L33.0756 39.1931C31.1204 40.435 31.5115 41.7936 32.7159 43.1931C33.3665 43.9433 34.1017 44.6368 34.646 45.4595C36.1257 47.7038 35.5282 50.2065 33.2477 51.6155C32.9714 51.7596 32.6873 51.888 32.3968 52.0001Z" fill="black"/>
<path d="M7.68626 11.4043C7.257 11.4077 6.83136 11.3249 6.43417 11.1608C6.03697 10.9968 5.67616 10.7547 5.37276 10.4487C5.06936 10.1427 4.82944 9.77889 4.66699 9.37852C4.50454 8.97815 4.42281 8.54919 4.42656 8.11667C4.43051 7.25608 4.76856 6.43121 5.3684 5.81857C5.96825 5.20592 6.78224 4.85414 7.63621 4.8385C8.50251 4.8383 9.33443 5.18001 9.95369 5.79043C10.5729 6.40084 10.9303 7.23138 10.9491 8.10406C10.9483 8.97691 10.6046 9.81395 9.99328 10.4323C9.38191 11.0507 8.55251 11.4001 7.68626 11.4043ZM7.68626 9.19784C7.96918 9.19638 8.24055 9.08463 8.4435 8.88601C8.64645 8.6874 8.76521 8.41733 8.77491 8.13243C8.77252 7.83607 8.65547 7.55234 8.44865 7.34159C8.24184 7.13085 7.96157 7.00972 7.66748 7.00398C7.52193 7.00679 7.3784 7.0389 7.24534 7.09843C7.11228 7.15795 6.99238 7.24369 6.89269 7.3506C6.793 7.4575 6.71554 7.58342 6.66487 7.72093C6.61419 7.85845 6.59132 8.00479 6.59761 8.15134C6.59839 8.29356 6.62734 8.43418 6.68276 8.56498C6.73817 8.69577 6.81895 8.8141 6.92034 8.91304C7.02173 9.01197 7.14171 9.08952 7.27323 9.14113C7.40475 9.19274 7.54517 9.21738 7.68626 9.2136V9.19784Z" fill="black"/>
<path d="M12.1504 8.13559C12.1487 7.26336 12.4908 6.42615 13.1014 5.80792C13.712 5.18968 14.5413 4.84101 15.4069 4.8385C16.2709 4.85249 17.0951 5.20666 17.7031 5.82522C18.3112 6.44378 18.6548 7.27759 18.6604 8.14819C18.6498 9.01062 18.3042 9.83453 17.6977 10.4432C17.0913 11.0519 16.2723 11.3969 15.4163 11.4043C14.988 11.4089 14.563 11.3277 14.1662 11.1653C13.7693 11.0029 13.4084 10.7627 13.1045 10.4585C12.8006 10.1544 12.5598 9.79237 12.396 9.39358C12.2322 8.9948 12.1487 8.56718 12.1504 8.13559ZM16.4956 8.09461C16.4794 7.79918 16.3493 7.52181 16.1331 7.32161C15.9169 7.12142 15.6316 7.01423 15.3381 7.0229C15.0557 7.04078 14.7914 7.16908 14.6015 7.38045C14.4115 7.59183 14.3111 7.86957 14.3214 8.1545C14.3222 8.30107 14.3531 8.4459 14.412 8.57991C14.4709 8.71393 14.5566 8.83426 14.6638 8.93337C14.771 9.03248 14.8973 9.10824 15.0348 9.15592C15.1724 9.20359 15.3182 9.22216 15.4632 9.21045C15.7454 9.19577 16.0108 9.07117 16.2034 8.86295C16.3961 8.65473 16.5008 8.37922 16.4956 8.09461Z" fill="black"/>
<path d="M54.0978 9.21349C52.565 9.21349 51.0321 9.21349 49.4992 9.21349C48.6264 9.21349 48.1666 8.81003 48.176 8.11026C48.1853 7.4105 48.6515 7.03855 49.5305 7.0354C52.5983 7.0354 55.6651 7.0354 58.7309 7.0354C59.5786 7.0354 60.076 7.47039 60.0666 8.14494C60.0573 8.81948 59.5849 9.20719 58.7653 9.21034C57.2105 9.2198 55.6526 9.21349 54.0978 9.21349Z" fill="black"/>
</g>
<defs>
<clipPath id="clip0_93_40">
<rect width="65" height="52" fill="white"/>
</clipPath>
</defs>
</svg>
