<svg width="68" height="57" viewBox="0 0 68 57" fill="none" xmlns="http://www.w3.org/2000/svg">
<g clip-path="url(#clip0_13_118)">
<path d="M67.8121 6.0988V27.5568C67.7776 27.6127 67.7486 27.6719 67.7255 27.7334C66.8426 31.1222 64.7852 32.7222 61.3028 32.7222H16.5661C13.0343 32.7222 9.50237 32.7345 5.97048 32.7222C4.71479 32.7248 3.49024 32.3313 2.47119 31.5976C1.45213 30.8639 0.690508 29.8275 0.294737 28.6358C0.178185 28.2826 0.0934261 27.9206 -0.00723267 27.5621V6.0988C0.0248353 6.04236 0.0520055 5.98328 0.0739938 5.9222C1.03467 2.44153 3.01429 0.933411 6.63094 0.933411H49.6493C53.711 0.933411 57.7727 0.903392 61.8255 0.945774C64.3543 0.970497 66.1839 2.1943 67.2735 4.47766C67.5225 4.98449 67.6355 5.55665 67.8121 6.0988ZM33.9059 20.802H13.6435C12.3862 20.802 11.127 20.7808 9.87146 20.8109C9.37967 20.8228 8.90998 21.0176 8.55407 21.3572C8.19816 21.6967 7.98157 22.1568 7.94657 22.6475C7.91602 23.1272 8.06013 23.6018 8.35228 23.9835C8.64442 24.3652 9.06487 24.6283 9.53592 24.7242C9.81828 24.7709 10.1048 24.7874 10.3906 24.7736H57.4495C57.6261 24.7736 57.8027 24.7736 57.9793 24.7736C58.47 24.7447 58.9331 24.5367 59.2807 24.189C59.6283 23.8414 59.8363 23.3784 59.8653 22.8876C59.8875 22.4091 59.7371 21.9386 59.4415 21.5616C59.1459 21.1847 58.7248 20.9264 58.2548 20.8338C57.993 20.7951 57.728 20.7821 57.4636 20.795L33.9059 20.802ZM51.9186 14.8155C51.9067 14.2942 51.6922 13.798 51.3207 13.4321C50.9492 13.0662 50.4498 12.8593 49.9284 12.8553C49.4067 12.8635 48.9086 13.0742 48.5395 13.443C48.1704 13.8118 47.9591 14.3097 47.9505 14.8314C47.9523 15.0954 48.0062 15.3564 48.1091 15.5995C48.2119 15.8427 48.3617 16.0631 48.5498 16.2483C48.7379 16.4335 48.9608 16.5798 49.2055 16.6787C49.4502 16.7777 49.7121 16.8275 49.976 16.8251C50.4976 16.8086 50.9922 16.5895 51.3549 16.2143C51.7176 15.8391 51.9198 15.3373 51.9186 14.8155ZM57.9087 16.8251C58.43 16.8123 58.9258 16.597 59.291 16.2248C59.6563 15.8526 59.8623 15.3528 59.8653 14.8314C59.858 14.3096 59.6475 13.8112 59.2785 13.4422C58.9094 13.0731 58.411 12.8626 57.8892 12.8553C57.6252 12.8574 57.3643 12.9115 57.1212 13.0145C56.8782 13.1176 56.6578 13.2676 56.4728 13.4559C56.2878 13.6442 56.1417 13.8671 56.043 14.1119C55.9442 14.3567 55.8947 14.6186 55.8972 14.8826C55.9146 15.4036 56.1338 15.8974 56.5084 16.2598C56.8831 16.6223 57.3839 16.825 57.9051 16.8251H57.9087Z" fill="#5A1305"/>
<path d="M51.7863 40.9127C51.5927 43.984 52.5489 47.0176 54.4688 49.4227C55.5759 50.8028 56.9594 51.9361 58.5304 52.7498C59.4646 53.2478 59.8743 54.0972 59.6801 54.9855C59.3869 56.3135 57.9936 56.928 56.7168 56.2799C53.6164 54.7165 51.1036 52.1938 49.5524 49.0872C48.3729 46.7543 47.7738 44.1712 47.8059 41.5572C47.8059 40.6301 47.797 39.703 47.8059 38.7759C47.8218 37.5892 48.6518 36.715 49.7608 36.6974C50.898 36.6815 51.7563 37.5644 51.7757 38.7829C51.7934 39.401 51.7863 40.0173 51.7863 40.9127Z" fill="#5A1305"/>
<path d="M19.9975 40.8597C20.1512 44.8507 19.0457 48.621 16.4409 51.9127C14.9984 53.7378 13.1762 55.2274 11.1007 56.2781C10.0058 56.8379 8.83501 56.4936 8.31052 55.4905C7.78604 54.4875 8.17102 53.352 9.26237 52.7533C13.8026 50.258 16.0224 46.3959 16.0259 41.2464C16.0259 40.4076 16.0136 39.567 16.0259 38.73C16.0471 37.5591 16.9089 36.6868 18.0267 36.6974C18.5515 36.7043 19.0523 36.9183 19.4201 37.2927C19.7878 37.6671 19.9929 38.1716 19.9905 38.6964C20.0134 39.3586 19.9975 40.0173 19.9975 40.8597Z" fill="#5A1305"/>
<path d="M27.9461 46.629C27.9461 49.1649 27.9461 51.7002 27.9461 54.2349C27.9461 55.6477 27.1743 56.5501 25.9753 56.5607C24.7762 56.5713 23.9745 55.6583 23.9727 54.265C23.9727 49.1272 23.9727 43.9907 23.9727 38.8553C23.9727 37.2907 25.3201 36.3 26.6816 36.8369C27.4746 37.1512 27.9408 37.8646 27.9425 38.8218C27.9496 41.4248 27.9508 44.0272 27.9461 46.629Z" fill="#5A1305"/>
<path d="M31.9194 46.5513C31.9194 44.0154 31.9194 41.4801 31.9194 38.9453C31.9194 37.5997 32.7159 36.6973 33.8938 36.6902C35.0716 36.6832 35.891 37.5873 35.891 38.9224C35.891 44.0577 35.891 49.1943 35.891 54.332C35.891 55.6618 35.0646 56.5677 33.8849 56.5536C32.7053 56.5394 31.923 55.6459 31.9212 54.355C31.9165 51.759 31.9159 49.1578 31.9194 46.5513Z" fill="#5A1305"/>
<path d="M43.8396 46.6237C43.8396 49.1808 43.8396 51.7379 43.8396 54.295C43.8396 55.6459 43.0537 56.5466 41.8776 56.5607C40.7015 56.5748 39.8697 55.6618 39.868 54.265C39.868 49.1296 39.868 43.9931 39.868 38.8553C39.868 37.289 41.2083 36.2965 42.5716 36.8298C43.3663 37.1406 43.8343 37.8541 43.8378 38.8094C43.8437 41.4171 43.8443 44.0219 43.8396 46.6237Z" fill="#5A1305"/>
</g>
<defs>
<clipPath id="clip0_13_118">
<rect width="67.8122" height="55.6396" fill="white" transform="translate(0 0.922852)"/>
</clipPath>
</defs>
</svg>
