<svg width="55" height="53" viewBox="0 0 55 53" fill="none" xmlns="http://www.w3.org/2000/svg">
<g clip-path="url(#clip0_96_101)">
<path d="M49.2398 17.2839C46.1063 17.2752 43.4947 14.6262 43.5291 11.489C43.5636 8.35184 46.1365 5.75916 49.2549 5.75916C52.3733 5.75916 54.9914 8.37457 54.986 11.5334C54.9761 13.0607 54.3666 14.5221 53.2902 15.5992C52.2139 16.6764 50.758 17.2819 49.2398 17.2839ZM49.2775 8.08228C48.3732 8.07449 47.5028 8.4279 46.8573 9.06496C46.2117 9.70201 45.8437 10.5707 45.8341 11.4804C45.8243 12.3986 46.1773 13.2831 46.8156 13.9396C47.4538 14.596 48.325 14.9707 49.2377 14.9813C51.1036 14.9997 52.7005 13.3975 52.6897 11.5172C52.6824 10.6091 52.321 9.74022 51.6832 9.09759C51.0454 8.45496 50.1823 8.08997 49.2797 8.0812L49.2775 8.08228Z" fill="black"/>
<path d="M-0.00427246 23.66C0.242147 22.5536 0.667193 21.5512 1.5345 20.7707C2.7935 19.6427 4.29355 19.5138 5.86353 19.5994C7.38617 19.6827 8.5311 20.4708 9.45652 21.6086C10.9759 23.4748 12.4695 25.3628 13.9556 27.254C14.0498 27.3915 14.1781 27.502 14.3277 27.5743C14.4774 27.6466 14.6433 27.6784 14.8089 27.6664C16.2756 27.6437 17.7433 27.6534 19.2111 27.6578C21.4461 27.6643 22.8697 29.0802 22.9031 31.3178C22.9031 31.6047 22.9031 31.8905 22.9031 32.2261H32.041C32.0668 32.0832 32.0794 31.9383 32.0787 31.7931C31.8936 29.5197 33.1827 27.8721 35.4694 27.6242C35.4901 27.5766 35.5042 27.5263 35.5114 27.4748C35.4909 25.0272 35.5243 22.5774 35.4285 20.1331C35.3521 18.1964 33.4647 16.2846 31.5385 16.2251C28.8591 16.1421 26.1775 16.1421 23.4938 16.2251C21.4913 16.2879 19.6781 18.1737 19.5468 20.198C19.464 21.4711 19.4919 22.7506 19.465 24.028C19.451 24.684 19.1885 25.116 18.7182 25.2784C18.0231 25.5198 17.2397 25.0965 17.2236 24.3387C17.1881 22.5385 16.9804 20.7263 17.428 18.9553C18.1544 16.0692 20.794 13.9171 23.7585 13.8489C26.2453 13.7915 28.7354 13.7861 31.2211 13.8489C34.7721 13.9388 37.6979 16.9038 37.7851 20.4881C37.84 22.6651 37.7991 24.8453 37.8023 27.0234V27.6556C38.7417 27.6556 39.6316 27.6751 40.5194 27.6383C40.6862 27.6318 40.8745 27.4283 41.0004 27.2724C42.5176 25.3823 44.0521 23.5041 45.5306 21.5826C47.4148 19.1382 50.7862 19.162 52.6768 20.2294C54.2091 21.0954 54.9678 22.4919 54.9764 24.2348C55.0033 29.2762 55.0151 34.3176 54.971 39.3589C54.9452 42.3771 52.4347 44.8799 49.4346 44.9297C47.162 44.9719 44.8882 44.9578 42.6156 44.9297C42.1486 44.9297 41.9323 45.0553 41.7547 45.4915C40.8433 47.6988 39.8974 49.892 38.9569 52.0874C38.6503 52.8041 38.2123 53.0769 37.6043 52.961C36.9963 52.8452 36.6068 52.3267 36.7026 51.7107C36.7446 51.4814 36.8143 51.2582 36.9102 51.046C37.9476 48.5995 39.0086 46.1627 40.0222 43.7053C40.3321 42.9551 40.7916 42.6228 41.6094 42.6347C44.0607 42.6661 46.5131 42.6455 48.9654 42.6455C50.4666 42.6455 51.6728 42.0815 52.3206 40.6731C52.5646 40.1158 52.6903 39.5133 52.6897 38.9043C52.7188 34.0967 52.7102 29.2892 52.7037 24.4816C52.7037 22.8221 51.7826 21.982 50.1437 21.8835C48.8008 21.8012 47.8539 22.3284 47.0576 23.3504C45.522 25.3195 43.9424 27.2475 42.4047 29.2188C41.9914 29.7482 41.5212 29.9766 40.8465 29.9668C39.255 29.9322 37.6624 29.9571 36.0698 29.956C34.7032 29.956 34.3664 30.2959 34.3697 31.6881V32.2521C34.5935 32.2618 34.7678 32.277 34.9421 32.277C37.8238 32.277 40.7055 32.2705 43.5873 32.2867C43.7533 32.2974 43.9191 32.2628 44.0672 32.1866C44.2153 32.1104 44.3402 31.9954 44.4287 31.8537C45.2896 30.6629 46.1838 29.4884 47.063 28.3062C47.3858 27.8732 47.7775 27.5831 48.3392 27.6967C49.1441 27.8591 49.4949 28.7436 49.0322 29.4808C48.747 29.9365 48.3994 30.3533 48.0777 30.7852C47.4234 31.6643 46.753 32.5303 46.1235 33.4266C45.9556 33.6722 45.8594 33.9602 45.8459 34.258C45.8158 35.4098 45.8395 36.5627 45.8319 37.7146C45.8244 38.7538 45.394 39.1857 44.3577 39.1911C43.1052 39.1987 41.8526 39.1911 40.599 39.1911C39.1635 39.1911 38.4652 39.6999 38.0164 41.0629C36.8349 44.6258 35.6534 48.1888 34.4719 51.7518C34.4001 51.9923 34.3049 52.2251 34.1878 52.4468C34.0618 52.6674 33.8638 52.8373 33.6275 52.9278C33.3912 53.0184 33.1311 53.024 32.8911 52.9437C32.657 52.8746 32.4528 52.7279 32.3118 52.5275C32.1708 52.3271 32.1012 52.0847 32.1142 51.8395C32.1295 51.607 32.1758 51.3776 32.252 51.1575C33.4471 47.5418 34.6466 43.928 35.8503 40.3159C36.6122 38.0317 38.2026 36.8821 40.6033 36.8702C41.5503 36.8702 42.4961 36.8702 43.4861 36.8702V34.6109H11.4967V36.8691H14.4021C15.6611 36.8691 16.8028 37.1939 17.7616 38.0599C18.3872 38.6319 18.8507 39.3607 19.1045 40.1719C20.3334 43.8699 21.5576 47.57 22.7772 51.2723C22.8243 51.4078 22.8575 51.5478 22.8762 51.6901C22.944 52.2899 22.6362 52.7824 22.0992 52.9491C21.8323 53.0398 21.5409 53.0228 21.2862 52.9016C21.0315 52.7805 20.8334 52.5647 20.7337 52.2996C20.4539 51.6003 20.2323 50.8771 19.9945 50.1616C18.9901 47.1305 17.9858 44.0954 16.9815 41.0564C16.5381 39.7162 15.8322 39.1976 14.4419 39.1922C13.1894 39.1922 11.9369 39.1922 10.6832 39.1922C9.5835 39.1922 9.16598 38.7657 9.16168 37.6539C9.15737 36.5422 9.18427 35.4207 9.14661 34.3056C9.13028 33.9737 9.0218 33.6531 8.83348 33.3801C7.93496 32.1232 6.99017 30.9011 6.07982 29.654C5.50519 28.867 5.7344 27.9934 6.55759 27.7238C7.04828 27.5636 7.51207 27.753 7.93281 28.3127C8.81841 29.4894 9.70509 30.6662 10.5692 31.858C10.6579 32 10.7832 32.1153 10.9317 32.1915C11.0802 32.2677 11.2464 32.3021 11.4128 32.291C14.2945 32.2748 17.1762 32.2824 20.0579 32.2824H20.6379C20.6121 31.7747 20.6379 31.2919 20.5497 30.8318C20.4324 30.2331 19.9719 29.9657 19.1874 29.9657C17.5055 29.9593 15.8225 29.9398 14.1406 29.9755C13.4627 29.9896 12.9989 29.7449 12.5868 29.2177C11.0147 27.2096 9.38012 25.2513 7.83704 23.2205C6.82661 21.8911 5.50412 21.7179 4.04605 21.9874C2.96998 22.1866 2.3082 23.1447 2.29206 24.3918C2.27592 25.6692 2.29206 26.9476 2.29206 28.2261C2.29206 31.774 2.29206 35.3211 2.29206 38.8675C2.29206 40.4003 2.85592 41.629 4.27848 42.2818C4.8262 42.5329 5.48475 42.6293 6.09596 42.639C8.52895 42.678 10.9641 42.6737 13.3971 42.6455C14.1858 42.6358 14.6529 42.9378 14.9574 43.6729C15.9969 46.1778 17.0805 48.6644 18.1382 51.1608C18.5364 52.0982 18.1942 52.856 17.3344 52.9838C16.7587 53.0693 16.3369 52.7878 16.0431 52.0896C15.1382 49.9765 14.2138 47.8677 13.353 45.7383C13.1076 45.1267 12.8225 44.9156 12.1575 44.934C10.1366 44.9871 8.11144 44.895 6.09166 44.9665C2.97967 45.0747 0.463819 42.7798 0.0914992 40.1113C0.0850428 40.0658 0.0376937 40.0258 0.00863983 39.9825L-0.00427246 23.66Z" fill="black"/>
<path d="M-0.00427246 10.8027C0.250756 9.66929 0.673652 8.63763 1.43658 7.7218C3.56505 5.17026 7.78539 5.11505 9.93752 7.64927C11.9982 10.0731 11.9734 13.089 9.87403 15.4804C7.75203 17.8966 3.63284 17.8457 1.51298 15.4122C0.723147 14.505 0.284111 13.4571 2.94475e-05 12.315L-0.00427246 10.8027ZM9.14231 11.5388C9.14862 10.6303 8.79662 9.75625 8.16346 9.10833C7.5303 8.4604 6.66764 8.09144 5.76453 8.08229C4.852 8.07276 3.97303 8.42803 3.32072 9.07006C2.66841 9.71209 2.29611 10.5884 2.2856 11.5064C2.26839 13.3846 3.86204 14.991 5.72902 14.9791C6.63408 14.9729 7.5003 14.6084 8.14029 13.9646C8.78028 13.3208 9.14256 12.4493 9.14876 11.5388H9.14231Z" fill="black"/>
<path d="M33.2096 5.75909C33.2069 7.27997 32.6079 8.73836 31.5427 9.81763C30.4775 10.8969 29.0322 11.5099 27.5205 11.5236C24.388 11.5507 21.7764 8.92551 21.7786 5.75692C21.7793 4.99928 21.9284 4.2492 22.2175 3.5496C22.5066 2.84999 22.9299 2.21457 23.4633 1.67969C23.9967 1.14481 24.6297 0.720957 25.326 0.432366C26.0224 0.143775 26.7684 -0.00389033 27.5215 -0.00218262C29.0334 0.00895685 30.4796 0.620757 31.5451 1.69991C32.6105 2.77906 33.2088 4.23809 33.2096 5.75909ZM27.4699 9.20156C27.9217 9.20427 28.3696 9.11733 28.788 8.94573C29.2063 8.77413 29.587 8.52123 29.9081 8.20149C30.2292 7.88176 30.4845 7.50147 30.6594 7.08237C30.8343 6.66328 30.9253 6.21361 30.9273 5.75909C30.9184 4.85018 30.5571 3.98068 29.9204 3.33584C29.2836 2.69099 28.4217 2.32178 27.5183 2.30687C25.6524 2.27873 24.0598 3.87222 24.0609 5.7645C24.066 6.67318 24.4265 7.54331 25.0645 8.18657C25.7025 8.82982 26.5667 9.19446 27.4699 9.20156Z" fill="black"/>
<path d="M26.3798 36.8961H28.5986V52.9826H26.3798V36.8961Z" fill="black"/>
<path d="M28.6041 20.7176H26.3734V18.4822H28.6041V20.7176Z" fill="black"/>
</g>
<defs>
<clipPath id="clip0_96_101">
<rect width="55" height="53" fill="white"/>
</clipPath>
</defs>
</svg>
