<svg width="60" height="60" viewBox="0 0 60 60" fill="none" xmlns="http://www.w3.org/2000/svg">
<g clip-path="url(#clip0_13_208)">
<path d="M29.9096 38.5786C20.8226 38.5786 11.7356 38.5505 2.64855 38.5987C0.743534 38.5987 -0.00400291 37.393 1.61114e-05 35.9662C0.0402064 24.8295 0.0201063 13.6968 0.0201063 2.56012C0.0201063 0.795765 0.823909 0 2.59228 0H57.3676C59.1359 0 59.9317 0.8038 59.9317 2.56413C59.9317 13.7209 59.9317 24.8764 59.9317 36.0305C59.9317 37.8029 59.152 38.5786 57.3635 38.5786H29.9096Z" fill="#5A1305"/>
<path d="M13.8938 59.992H1.14946C1.14946 58.3482 1.05703 56.7366 1.1776 55.141C1.29013 53.6821 2.68875 52.5487 4.24412 52.5246C6.41439 52.4885 8.58868 52.4844 10.7589 52.5246C11.1785 52.5262 11.5935 52.6108 11.9802 52.7735C12.3669 52.9362 12.7175 53.1739 13.0119 53.4728C13.3063 53.7717 13.5387 54.1259 13.6955 54.515C13.8524 54.9041 13.9307 55.3203 13.9259 55.7398C13.9259 57.0782 13.9259 58.4165 13.9259 59.7589C13.9199 59.8371 13.9091 59.915 13.8938 59.992Z" fill="#5A1305"/>
<path d="M16.0922 59.9839C16.0922 58.4125 16.0037 56.8652 16.1163 55.3299C16.1849 54.5575 16.5418 53.8391 17.116 53.3179C17.6901 52.7966 18.4395 52.5105 19.215 52.5166C21.3852 52.4764 23.5568 52.4764 25.7298 52.5166C26.557 52.5102 27.3531 52.8318 27.9436 53.4111C28.5342 53.9903 28.8712 54.78 28.8807 55.6072C28.9329 57.046 28.8807 58.4889 28.8807 59.9759L16.0922 59.9839Z" fill="#5A1305"/>
<path d="M43.8757 59.996H31.1193C31.1193 58.32 31.0068 56.6642 31.1555 55.0325C31.2841 53.6138 32.6787 52.5487 34.1818 52.5246C36.3722 52.4884 38.5665 52.4804 40.7569 52.5246C41.5623 52.5312 42.3343 52.8475 42.9127 53.408C43.4911 53.9685 43.8316 54.7301 43.8636 55.5349C43.9239 57.0018 43.8757 58.4687 43.8757 59.996Z" fill="#5A1305"/>
<path d="M58.8425 60.004H46.0781C46.0499 59.8715 46.0311 59.7372 46.0218 59.6021C46.0218 58.3241 46.0218 57.05 46.0218 55.772C46.0138 55.3521 46.0891 54.9349 46.2433 54.5443C46.3974 54.1537 46.6275 53.7976 46.9201 53.4964C47.2127 53.1952 47.562 52.955 47.948 52.7895C48.3339 52.6241 48.7488 52.5368 49.1687 52.5326C51.339 52.4884 53.5133 52.4925 55.6835 52.5326C56.0981 52.531 56.5089 52.6116 56.8922 52.7696C57.2754 52.9277 57.6236 53.16 57.9166 53.4534C58.2095 53.7467 58.4415 54.0952 58.599 54.4787C58.7566 54.8621 58.8366 55.273 58.8345 55.6876C58.8706 57.0983 58.8425 58.521 58.8425 60.004Z" fill="#5A1305"/>
<path d="M51.3149 50.2699C50.1092 50.3744 48.9517 50.3945 47.8143 50.6035C46.6769 50.8125 45.7485 51.564 44.9407 52.5527C43.3331 50.3382 40.982 50.2338 38.6027 50.3905C38.5499 49.4679 38.558 48.5429 38.6268 47.6214C38.7087 46.9475 39.0249 46.3239 39.5201 45.8596C40.0153 45.3952 40.6579 45.1198 41.3357 45.0814C43.7471 44.997 46.1585 44.997 48.5377 45.0814C49.2368 45.1202 49.8989 45.4076 50.4045 45.8919C50.9101 46.3761 51.2259 47.0252 51.2948 47.7219C51.3516 48.5701 51.3583 49.4209 51.3149 50.2699Z" fill="#5A1305"/>
<path d="M8.64492 50.4026C8.59883 49.492 8.60555 48.5795 8.66502 47.6696C8.74159 46.9846 9.05788 46.3487 9.558 45.8743C10.0581 45.4 10.7098 45.1177 11.398 45.0774C13.8094 44.997 16.2101 44.997 18.6001 45.0774C19.289 45.1153 19.942 45.3968 20.4426 45.8716C20.9432 46.3464 21.2587 46.9837 21.333 47.6696C21.3897 48.573 21.3897 49.4791 21.333 50.3825C18.9778 50.2539 16.6347 50.3101 14.991 52.5849C13.3753 50.3624 11.0644 50.2177 8.64492 50.4026Z" fill="#5A1305"/>
<path d="M36.3802 50.4026C33.9206 50.2258 31.6257 50.3584 29.998 52.5447C29.1942 51.5962 28.298 50.8166 27.1164 50.6035C25.9348 50.3905 24.8095 50.3745 23.6359 50.27C23.5731 49.3583 23.5825 48.4432 23.664 47.533C23.7683 46.8625 24.1031 46.2492 24.6107 45.7988C25.1183 45.3484 25.767 45.0891 26.4452 45.0653C28.8003 44.993 31.1635 44.9809 33.5187 45.0653C34.3012 45.1158 35.0343 45.4652 35.5662 46.0413C36.0981 46.6174 36.3881 47.376 36.3762 48.16C36.3963 48.8713 36.3802 49.5787 36.3802 50.4026Z" fill="#5A1305"/>
</g>
<defs>
<clipPath id="clip0_13_208">
<rect width="59.9277" height="60" fill="white"/>
</clipPath>
</defs>
</svg>
