<svg width="66" height="60" viewBox="0 0 66 60" fill="none" xmlns="http://www.w3.org/2000/svg">
<g clip-path="url(#clip0_14_279)">
<path d="M-1.10036e-06 23.5454C0.170186 22.9583 0.302932 22.3541 0.51056 21.7891C1.12058 20.1381 2.27015 18.7415 3.77304 17.8254V43.7755C2.16648 43.4828 1.04154 42.6098 0.369302 41.1393C0.222941 40.816 0.119125 40.4722 -0.00511169 40.1386L-1.10036e-06 23.5454Z" fill="#5A1305"/>
<path d="M65.2242 39.788H7.6431V11.4944C7.6431 9.90487 8.34597 9.19519 9.92531 9.19519H62.9692C64.5128 9.19519 65.2276 9.91168 65.2276 11.4536V39.788H65.2242ZM23.0842 27.9072C22.5413 29.4491 22.0239 30.9025 21.515 32.3593C21.1032 33.5506 21.5355 34.6228 22.5617 35.0023C23.6322 35.3989 24.672 34.8543 25.1043 33.6511C25.9132 31.3966 26.7154 29.1388 27.5107 26.8776C28.0655 25.2983 27.2163 24.0951 25.5536 24.0797C24.8609 24.0797 24.1683 24.0797 23.3888 24.0797C23.5011 23.8006 23.5726 23.6083 23.656 23.4194C24.1172 22.3711 24.5903 21.3295 25.0396 20.2761C25.5042 19.1869 25.1009 18.0858 24.1002 17.6484C23.0995 17.211 22.0358 17.6484 21.5661 18.6916C20.5994 20.8371 19.6492 22.9928 18.7155 25.1587C18.1011 26.5934 18.9775 27.8817 20.5484 27.9123C21.3534 27.9192 22.1583 27.9072 23.0842 27.9072ZM47.0073 16.8451H41.2754C40.2765 16.8451 39.2775 16.8145 38.2819 16.8587C37.9658 16.8619 37.6557 16.9451 37.3805 17.1005C37.1053 17.2559 36.8739 17.4785 36.7079 17.7474C36.542 18.0164 36.4467 18.323 36.4312 18.6387C36.4157 18.9543 36.4803 19.2688 36.6191 19.5528C37.0412 20.436 37.8104 20.6794 38.7277 20.6794C44.2475 20.6703 49.7672 20.6703 55.2869 20.6794C55.5204 20.6809 55.7537 20.6644 55.9847 20.63C56.314 20.5853 56.6245 20.4503 56.8819 20.24C57.1393 20.0298 57.3336 19.7525 57.4432 19.4387C57.9538 18.1436 57.0194 16.8621 55.5422 16.8536C52.6967 16.8417 49.8512 16.8536 47.0073 16.8519V16.8451ZM47.0703 24.5035H41.2108C40.2339 24.5035 39.2553 24.4729 38.2819 24.5171C37.9658 24.5204 37.6557 24.6035 37.3805 24.759C37.1053 24.9144 36.8739 25.1369 36.7079 25.4059C36.542 25.6748 36.4467 25.9814 36.4312 26.2971C36.4157 26.6128 36.4803 26.9272 36.6191 27.2112C37.0412 28.0944 37.8104 28.3378 38.7277 28.3378C44.2486 28.3287 49.7689 28.3287 55.2886 28.3378C55.5216 28.3393 55.7543 28.3228 55.9847 28.2885C56.3141 28.244 56.6248 28.1092 56.8823 27.8989C57.1398 27.6886 57.3339 27.4111 57.4432 27.0972C57.9538 25.8037 57.0194 24.5222 55.5405 24.5137C52.7171 24.5001 49.8937 24.512 47.0703 24.5103V24.5035ZM47.0107 35.9911C49.7065 35.9911 52.4023 35.9911 55.098 35.9911C55.4164 35.9976 55.7347 35.9765 56.0494 35.9282C56.4813 35.8449 56.8707 35.6136 57.1503 35.274C57.4299 34.9344 57.5823 34.5079 57.5811 34.068C57.5804 33.6173 57.4194 33.1815 57.127 32.8386C56.8345 32.4956 56.4296 32.2678 55.9847 32.196C55.7533 32.1675 55.52 32.1562 55.2869 32.1619H38.726C38.5141 32.1568 38.3021 32.1653 38.0912 32.1874C37.688 32.2406 37.3122 32.4209 37.0184 32.7021C36.7246 32.9834 36.5281 33.3509 36.4574 33.7515C36.3856 34.153 36.4486 34.5671 36.6367 34.9292C36.8248 35.2912 37.1274 35.5808 37.4973 35.7529C37.9131 35.9148 38.3564 35.9946 38.8026 35.9877C41.5256 36.0081 44.2707 35.9979 47.0107 35.9979V35.9911Z" fill="#5A1305"/>
<path d="M7.65841 43.6938H65.1816C65.1969 43.8487 65.2292 44.0087 65.2292 44.1704C65.2292 45.8501 65.2292 47.5299 65.2292 49.2113C65.2292 50.4826 64.5059 51.2365 63.2466 51.308C63.0355 51.3216 62.8228 51.308 62.6101 51.308H10.2572C9.93893 51.3149 9.62059 51.3012 9.30411 51.2672C8.43786 51.1497 7.70095 50.4996 7.67712 49.6436C7.62096 47.6779 7.65841 45.7038 7.65841 43.6938Z" fill="#5A1305"/>
<path d="M11.8467 5.31488C11.8467 5.11406 11.8467 4.966 11.8467 4.81964C11.8705 4.22739 11.8927 3.73044 11.1898 3.36624C10.4869 3.00204 10.3184 2.24301 10.509 1.46525C10.5917 1.08847 10.7908 0.747259 11.0783 0.490043C11.3657 0.232827 11.7269 0.0726664 12.1105 0.0322811C12.5513 -0.0119675 13.0006 0.00505056 13.4465 0.00505056C16.5218 0.00505056 19.5987 -0.00686252 22.6757 0.00505056C24.2363 0.0135599 25.1672 1.44143 24.5001 2.76038C24.4235 2.91014 24.3435 3.10075 24.2125 3.17223C23.3122 3.61472 23.1522 4.36354 23.3616 5.31148L11.8467 5.31488Z" fill="#5A1305"/>
<path d="M11.7429 55.1882H23.5522C23.2799 57.661 20.4378 59.8701 17.6127 59.8497C14.7875 59.8292 11.9846 57.6117 11.7429 55.1882Z" fill="#5A1305"/>
<path d="M49.3321 55.1814H61.0971C61.138 57.3394 58.2244 59.7271 55.4384 59.8411C52.5605 59.9602 49.4938 57.6338 49.3321 55.1814Z" fill="#5A1305"/>
</g>
<defs>
<clipPath id="clip0_14_279">
<rect width="65.2258" height="59.8496" fill="white"/>
</clipPath>
</defs>
</svg>
