<svg width="56" height="56" viewBox="0 0 56 56" fill="none" xmlns="http://www.w3.org/2000/svg">
<g clip-path="url(#clip0_93_53)">
<path d="M2.71244 21.7439C0.868192 21.4749 -0.00190735 20.4782 -0.00190735 18.6834C-0.00190735 17.6115 -0.00190735 16.5397 -0.00190735 15.4694C0.0131724 13.855 1.16526 12.6975 2.7818 12.6945C7.37206 12.6874 11.9628 12.6874 16.5541 12.6945H17.2809C16.7773 8.69586 17.8977 5.29705 20.9197 2.63632C22.9334 0.830567 25.5788 -0.113248 28.2846 0.00866735C31.5644 0.112391 34.2924 1.43824 36.3764 3.97871C38.4604 6.51918 39.148 9.42042 38.6926 12.6975H52.9987C54.8837 12.6975 55.9875 13.7918 55.9921 15.6603C55.9921 16.6555 55.9921 17.6516 55.9921 18.6488C55.9921 20.4827 55.1597 21.4523 53.2777 21.756V22.4129C53.2777 30.7769 53.2777 39.1409 53.2777 47.5049C53.2777 49.5357 52.2221 50.588 50.1773 50.5895H47.8596V52.7481C47.8596 53.4998 47.8686 54.2514 47.8596 55.003C47.849 55.6389 47.5127 55.9936 46.8854 55.9951C44.534 56.0072 42.1821 56.0072 39.8296 55.9951C39.1722 55.9951 38.8404 55.6404 38.8359 54.9654C38.8253 53.7057 38.8359 52.4475 38.8359 51.1878V50.6136H19.8053C19.4871 52.3753 18.6396 53.8139 17.1694 54.8482C16.0099 55.673 14.6009 56.0748 13.1793 55.9861C10.2568 55.8358 7.96772 53.7628 7.2831 50.5865C6.72364 50.5865 6.14458 50.5865 5.56703 50.5865C3.84794 50.576 2.71244 49.441 2.71244 47.7108C2.71244 39.2927 2.71244 30.8746 2.71244 22.4565V21.7439ZM8.13058 43.3394V24.815C8.13058 23.7778 8.39146 23.5193 9.43045 23.5193H26.7012C27.7387 23.5193 27.9996 23.7793 27.9996 24.815C27.9996 30.7729 27.9996 36.7307 27.9996 42.6885V43.3394H51.447V21.7545H4.54915V43.3394H8.13058ZM26.1689 25.3622H9.98236V43.3394H26.1689V25.3622ZM27.971 1.86667C23.0504 1.86667 18.9774 5.9254 18.9699 10.8305C18.9623 15.8167 22.9796 19.8889 27.9152 19.907C29.1089 19.9157 30.2926 19.6889 31.398 19.2395C32.5034 18.7901 33.5087 18.1272 34.3559 17.2888C35.2031 16.4504 35.8755 15.4531 36.3343 14.3545C36.7932 13.2559 37.0294 12.0776 37.0293 10.8876C37.0295 9.70212 36.7953 8.52825 36.34 7.4331C35.8848 6.33796 35.2174 5.34302 34.3761 4.5052C33.5348 3.66737 32.536 3.00309 31.437 2.55035C30.3379 2.09761 29.1601 1.86528 27.971 1.86667ZM17.9852 45.1884C18.9503 46.1687 19.5863 47.4235 19.8053 48.7796H50.1698C50.3402 48.7796 50.5543 48.8382 50.6689 48.7586C50.9554 48.5586 51.3973 48.3076 51.4229 48.0505C51.5134 47.1095 51.4576 46.1535 51.4576 45.1944L17.9852 45.1884ZM21.8184 19.91C20.033 18.5045 18.712 16.8374 17.8826 14.7749C17.8268 14.6366 17.5494 14.5089 17.3744 14.5074C12.5419 14.4933 7.70884 14.4903 2.87529 14.4983C2.1394 14.4983 1.81972 14.8321 1.81067 15.5732C1.81067 16.5878 1.81067 17.6025 1.81067 18.6172C1.81067 19.6319 2.07306 19.91 3.11205 19.91H21.8199H21.8184ZM34.0737 19.8799C34.2426 19.8965 34.3089 19.9085 34.3753 19.9085C40.6364 19.9085 46.8985 19.9085 53.1616 19.9085C53.8523 19.9085 54.1825 19.5582 54.1885 18.8562C54.1966 17.7669 54.1966 16.677 54.1885 15.5867C54.1885 14.8245 53.8553 14.5044 53.0756 14.5044C48.2607 14.5044 43.4473 14.5044 38.6323 14.4938C38.2855 14.4938 38.1543 14.6261 38.0291 14.9223C37.2909 16.7819 36.045 18.3983 34.4326 19.5883C34.3391 19.659 34.2471 19.7386 34.0737 19.8799ZM13.5909 45.1718C12.9966 45.1677 12.4073 45.2803 11.8566 45.5033C11.3059 45.7263 10.8048 46.0553 10.3817 46.4714C9.95862 46.8876 9.62195 47.3828 9.39095 47.9287C9.15994 48.4746 9.03911 49.0605 9.03536 49.653C9.02721 50.8393 9.48829 51.981 10.3187 52.8308C11.1491 53.6805 12.282 54.1699 13.4718 54.1928C14.0706 54.1993 14.6649 54.0876 15.2201 53.864C15.7754 53.6405 16.2808 53.3095 16.7072 52.8903C17.1335 52.471 17.4723 51.9717 17.7041 51.4213C17.9359 50.8708 18.056 50.28 18.0575 49.6831C18.058 48.4966 17.5895 47.3577 16.7534 46.5133C15.9173 45.6688 14.7811 45.1869 13.5909 45.1718ZM40.6681 54.1522H46.044V50.6166H40.6756L40.6681 54.1522ZM7.29968 48.7736C7.51985 47.3786 8.12756 46.2422 9.07457 45.2019H4.52351C4.52351 46.1294 4.50391 47.0253 4.53105 47.9213C4.52762 48.0308 4.5463 48.1399 4.58598 48.2421C4.62567 48.3442 4.68554 48.4374 4.76206 48.5161C4.83858 48.5948 4.93019 48.6573 5.03142 48.7C5.13266 48.7427 5.24147 48.7646 5.35139 48.7646C5.98474 48.8037 6.62261 48.7736 7.29968 48.7736Z" fill="black"/>
<path d="M36.1295 38.8557C35.2428 38.8557 34.436 38.8557 33.6308 38.8557C32.8496 38.8557 32.5239 38.534 32.5179 37.7688C32.5179 36.6805 32.5103 35.5906 32.5179 34.5008C32.5179 33.7702 32.8542 33.4485 33.6006 33.4485C34.424 33.441 35.2458 33.4485 36.0978 33.4485V31.6446C35.3242 31.6446 34.5431 31.6446 33.762 31.6446C32.7984 31.6446 32.5164 31.365 32.5149 30.409C32.5149 29.3763 32.5149 28.342 32.5149 27.3093C32.5149 26.5682 32.8436 26.2405 33.578 26.233C34.4028 26.233 35.2277 26.233 36.1265 26.233C36.1265 25.6798 36.1265 25.1612 36.1265 24.6426C36.134 23.8609 36.4461 23.5302 37.2092 23.5287C40.1045 23.5287 43.0008 23.5287 45.8981 23.5287C46.631 23.5287 46.9612 23.8639 46.9612 24.6035C46.9612 29.9029 46.9612 35.2013 46.9612 40.4987C46.9612 41.2338 46.628 41.5675 45.8906 41.5675C42.9953 41.5735 40.0989 41.5735 37.2016 41.5675C36.4627 41.5675 36.1385 41.2368 36.128 40.5032C36.1234 39.9726 36.1295 39.4494 36.1295 38.8557ZM37.9601 39.7185H45.117V25.3536H37.9601V39.7185ZM36.0918 29.8107V28.0745H34.3531V29.8107H36.0918ZM36.1099 35.293H34.3531V37.0262H36.1099V35.293Z" fill="black"/>
<path d="M18.1107 27.1274C19.8223 27.1274 21.5353 27.1274 23.2469 27.1274C24.0642 27.1274 24.3839 27.4401 24.3869 28.2428C24.3869 29.9144 24.3869 31.587 24.3869 33.2606C24.3869 34.0032 24.0582 34.34 23.3313 34.3415C19.8308 34.3415 16.3313 34.3415 12.8328 34.3415C12.0879 34.3415 11.7546 34.0138 11.7516 33.2892C11.7446 31.5986 11.7446 29.9069 11.7516 28.2143C11.7516 27.4521 12.0849 27.135 12.8675 27.1334C14.6107 27.1244 16.3615 27.1274 18.1107 27.1274ZM13.5763 32.5015H22.5366V28.9614H13.5763V32.5015Z" fill="black"/>
<path d="M28.9033 8.18055C30.3735 8.18055 31.7684 8.18055 33.1527 8.18055C33.5916 8.18055 33.9806 8.24819 34.2083 8.6706C34.436 9.09301 34.2551 9.4598 34.0153 9.81907C32.3063 12.3796 30.5972 14.9421 28.8882 17.5066C28.6168 17.914 28.294 18.2146 27.7753 18.0718C27.2566 17.929 27.0831 17.5081 27.0907 16.982C27.1058 15.8771 27.0907 14.7707 27.0907 13.5967H23.9134C23.5364 13.5967 23.1594 13.5877 22.7839 13.5967C22.3587 13.6102 22.0043 13.502 21.7856 13.1051C21.567 12.7083 21.7148 12.3535 21.9455 12.0048C22.8503 10.6479 23.7581 9.28943 24.6689 7.92951C25.4817 6.71038 26.299 5.49577 27.1028 4.27214C27.3727 3.86175 27.6969 3.56411 28.2156 3.70542C28.7344 3.84672 28.9078 4.27063 28.9003 4.79676C28.8942 5.90916 28.9033 7.00652 28.9033 8.18055ZM24.2708 11.7883C25.542 11.7883 26.6986 11.7883 27.8552 11.7883C28.5579 11.7883 28.8867 12.125 28.9018 12.821C28.9108 13.2239 28.9018 13.6268 28.9018 14.0236L29.0118 14.0507L31.7262 9.97691C30.4595 9.97691 29.3029 9.97691 28.1463 9.97691C27.4405 9.97691 27.1118 9.64169 27.0907 8.94569C27.0816 8.54282 27.0907 8.14146 27.0907 7.7431L26.9806 7.71454C26.103 9.0434 25.2178 10.3723 24.2708 11.7898V11.7883Z" fill="black"/>
<path d="M13.534 52.3847C13.1762 52.3814 12.8225 52.3075 12.4934 52.1674C12.1642 52.0273 11.8661 51.8237 11.6162 51.5683C11.3664 51.3129 11.1696 51.0108 11.0373 50.6793C10.905 50.3478 10.8397 49.9935 10.8453 49.6368C10.8576 48.9257 11.1502 48.248 11.6599 47.7504C12.1696 47.2527 12.8553 46.9751 13.5687 46.9776C14.2816 46.9843 14.9631 47.2702 15.4662 47.7737C15.9693 48.2772 16.2535 48.9577 16.2574 49.6683C16.2588 50.0253 16.1894 50.379 16.053 50.7091C15.9167 51.0392 15.7161 51.3392 15.463 51.5917C15.2098 51.8442 14.9091 52.0442 14.578 52.1803C14.2469 52.3164 13.8921 52.3859 13.534 52.3847ZM14.4494 49.7059C14.4552 49.4705 14.3683 49.2421 14.2074 49.0696C14.0465 48.8971 13.8243 48.7943 13.5883 48.7829C13.3528 48.7762 13.1238 48.8605 12.9493 49.0182C12.7747 49.176 12.6681 49.395 12.6519 49.6293C12.6452 49.7503 12.663 49.8715 12.7043 49.9855C12.7457 50.0995 12.8096 50.204 12.8924 50.2929C12.9751 50.3817 13.075 50.453 13.1861 50.5024C13.2971 50.5519 13.417 50.5786 13.5386 50.5808C13.7743 50.5802 14.0006 50.4889 14.1704 50.3258C14.3401 50.1628 14.44 49.9407 14.4494 49.7059Z" fill="black"/>
<path d="M39.7652 29.8106V28.0669H43.321V29.8106H39.7652Z" fill="black"/>
<path d="M43.321 37.0261H39.7848V35.2854H43.321V37.0261Z" fill="black"/>
</g>
<defs>
<clipPath id="clip0_93_53">
<rect width="56" height="56" fill="white"/>
</clipPath>
</defs>
</svg>
