<svg width="40" height="50" viewBox="0 0 40 50" fill="none" xmlns="http://www.w3.org/2000/svg">
<g clip-path="url(#clip0_92_22)">
<path d="M20.0029 0.0029992H38.4327C39.7051 0.0029992 40.0929 0.398738 39.9838 1.69307C39.6402 5.75014 39.2746 9.80424 38.9178 13.8583C38.6082 17.3952 38.299 20.932 37.9904 24.4689C37.6395 28.4501 37.2871 32.4308 36.9333 36.411C36.6236 39.928 36.315 43.446 36.0074 46.965C35.9528 47.5944 35.9189 48.2266 35.8349 48.8515C35.7316 49.6207 35.2967 49.9926 34.5241 49.9956C32.7549 50.0045 30.9856 49.9956 29.2267 49.9956H5.78399C4.59563 49.9956 4.24473 49.6802 4.14005 48.4751C3.64858 42.8276 3.15712 37.1802 2.66566 31.5327C2.1742 25.8852 1.67291 20.2383 1.16179 14.5918C0.788285 10.3894 0.417722 6.18655 0.0501092 1.98318C0.0238565 1.72419 0.0115519 1.46395 0.0132497 1.20361C0.00689847 0.893634 0.12218 0.593687 0.333989 0.369091C0.545798 0.144495 0.836978 0.0134463 1.1441 0.00448612C1.32693 -0.00890355 1.5127 0.00448612 1.69552 0.00448612L20.0029 0.0029992ZM36.3288 16.1673C35.9985 16.1911 35.739 16.2015 35.4913 16.2283C31.9027 16.6136 28.3067 16.8546 24.7003 16.514C23.0092 16.3533 21.2871 16.1495 19.8511 15.1839C18.2101 14.08 16.4099 13.6649 14.5256 13.6337C11.8275 13.5891 9.12493 13.6828 6.42681 13.7646C5.4434 13.7944 4.46589 13.9625 3.4692 14.0622C4.45851 25.2872 5.44045 36.4303 6.41797 47.5973H33.5717C34.4932 37.134 35.4073 26.6931 36.3288 16.1673ZM3.27016 11.6788C4.07075 11.6014 4.81679 11.53 5.56283 11.4556C9.10135 11.1239 12.6399 10.926 16.1784 11.3931C17.6233 11.5851 19.077 11.8543 20.2993 12.6934C21.5496 13.5519 22.9266 13.8836 24.3774 14.0755C26.9812 14.4058 29.5908 14.3091 32.1917 14.138C33.6351 14.0428 35.0741 13.8806 36.5411 13.7453C36.8787 9.93218 37.209 6.18456 37.5422 2.40719H2.43713C2.72317 5.50913 2.99445 8.57388 3.27016 11.6788Z" fill="black"/>
<path d="M25.8739 33.3314C25.8105 36.7354 23.1566 39.3285 19.913 39.2898C16.7121 39.2511 14.0774 36.597 14.1526 33.3493C14.1732 32.4105 14.4681 31.4464 14.791 30.5508C15.8614 27.5753 17.3874 24.8156 18.9532 22.0826C19.4087 21.2896 20.5322 21.2212 20.9731 21.9918C22.8057 25.1905 24.631 28.404 25.6631 31.9746C25.739 32.2425 25.7967 32.5154 25.8356 32.7914C25.8582 32.9705 25.871 33.1508 25.8739 33.3314ZM20 25.0164C18.673 27.5649 17.3136 29.9483 16.6089 32.6203C16.4679 33.2688 16.5062 33.944 16.7195 34.5722C17.3092 36.3872 19.3041 37.3305 21.0925 36.7354C21.9581 36.4632 22.6824 35.8575 23.1081 35.0497C23.5337 34.2419 23.6264 33.2972 23.366 32.4209C22.5993 29.8456 21.3033 27.5114 20 25.0164Z" fill="black"/>
</g>
<defs>
<clipPath id="clip0_92_22">
<rect width="40" height="50" fill="white"/>
</clipPath>
</defs>
</svg>
