<svg width="71" height="73" viewBox="0 0 71 73" fill="none" xmlns="http://www.w3.org/2000/svg">
<g clip-path="url(#clip0_13_221)">
<path d="M11.8434 72.512C11.2768 72.2004 10.6385 71.9681 10.1436 71.5677C8.79519 70.4535 8.64221 68.9501 8.89717 67.3241C9.3061 64.5725 10.1723 61.9087 11.46 59.4429C11.715 58.9595 12.0134 58.5402 12.6158 58.5534C13.1824 58.5666 13.4638 58.9557 13.7131 59.4203C15.1305 62.0608 16.0208 64.9518 16.3345 67.9322C16.5875 70.2401 15.8774 71.3317 13.3977 72.5177L11.8434 72.512Z" fill="#5A1305"/>
<path d="M53.2396 35.6957C63.0773 35.7146 71.0623 43.7222 71.0019 53.5127C70.9889 58.2205 69.1088 62.7309 65.7742 66.0542C62.4396 69.3774 57.9229 71.2421 53.2151 71.2391C50.8782 71.2364 48.5647 70.7731 46.407 69.8757C44.2493 68.9783 42.2896 67.6645 40.64 66.0092C38.9903 64.354 37.6831 62.3898 36.7931 60.2291C35.903 58.0683 35.4476 55.7533 35.4528 53.4164C35.4658 48.7091 37.3461 44.1993 40.6808 40.877C44.0156 37.5546 48.5323 35.6912 53.2396 35.6957ZM53.217 63.0804C54.0423 63.9189 54.7902 64.697 55.5569 65.4562C56.2406 66.1342 56.9904 66.1777 57.5381 65.5979C58.0858 65.0181 58.0046 64.3306 57.3492 63.6639C56.522 62.8254 55.6797 62.002 54.8563 61.1597C54.7146 61.018 54.5371 60.8216 54.5333 60.6479C54.5088 59.035 54.5201 57.4202 54.5201 55.8017C54.6429 55.8017 54.6976 55.8017 54.7316 55.8149C55.9781 56.5269 57.2359 57.22 58.4559 57.9736C58.7531 58.1753 58.9744 58.4704 59.0848 58.8121C59.4475 59.9793 59.7232 61.171 60.0669 62.3457C60.1435 62.6464 60.3292 62.9078 60.5879 63.0792C60.8465 63.2506 61.1596 63.3196 61.4664 63.273C61.7719 63.224 62.0495 63.0668 62.2486 62.8299C62.4476 62.593 62.5548 62.2925 62.5504 61.9831C62.5219 61.7266 62.4681 61.4736 62.3899 61.2277C62.1368 60.2607 61.88 59.2956 61.6175 58.3098C62.7506 58.0019 63.7875 57.7262 64.8281 57.4297C65.7157 57.1766 66.1236 56.559 65.9121 55.8319C65.7006 55.1048 65.0528 54.763 64.1689 54.9915C63.0358 55.2842 61.9026 55.6147 60.7695 55.8961C60.5066 55.9744 60.2249 55.9611 59.9706 55.8584C58.5938 55.1029 57.2416 54.3041 55.7968 53.4712C57.0678 52.7327 58.2765 52.0604 59.4512 51.3333C59.6858 51.1649 59.9579 51.0564 60.2439 51.0173C60.53 50.9781 60.8213 51.0094 61.0924 51.1085C62.0953 51.4447 63.1321 51.6751 64.1557 51.9395C65.0283 52.1643 65.693 51.8319 65.8895 51.0859C66.0859 50.3399 65.6836 49.7355 64.7997 49.4843C64.1444 49.2955 63.4777 49.1312 62.8262 48.9499C62.4296 48.8403 62.0367 48.7195 61.6363 48.6005C61.9291 47.4957 62.2029 46.4758 62.4673 45.4484C62.6864 44.5721 62.3427 43.8922 61.6175 43.7015C60.8922 43.5107 60.269 43.9319 60.0235 44.8063C59.7043 45.9394 59.4097 47.0726 59.0924 48.2058C59.0376 48.3946 58.9734 48.6647 58.828 48.7535C57.4304 49.5826 56.0272 50.3777 54.5125 51.2559C54.5125 49.6657 54.5277 48.2152 54.5031 46.7648C54.4893 46.5578 54.5228 46.3505 54.601 46.1584C54.6792 45.9664 54.8001 45.7946 54.9545 45.6562C55.8232 44.8271 56.6731 43.9772 57.4946 43.1009C57.6106 42.9825 57.7018 42.8421 57.7629 42.688C57.8239 42.5339 57.8535 42.3691 57.85 42.2034C57.8465 42.0377 57.8099 41.8743 57.7424 41.723C57.6749 41.5716 57.5778 41.4352 57.4569 41.3218C57.2238 41.102 56.916 40.9788 56.5956 40.9771C56.2753 40.9753 55.9662 41.0951 55.7307 41.3124C55.5191 41.5001 55.3173 41.6987 55.1263 41.9073C54.5182 42.5494 53.9139 43.1934 53.2812 43.8658C52.4068 42.9838 51.6683 42.2246 50.9129 41.4824C50.2651 40.8497 49.5172 40.81 48.9808 41.352C48.4445 41.8941 48.4879 42.625 49.1319 43.2822C49.9572 44.1207 50.8014 44.9442 51.6268 45.7846C51.7646 45.9243 51.9535 46.117 51.9535 46.2888C51.978 47.8998 51.9686 49.5127 51.9686 51.2615C50.5654 50.4551 49.2736 49.7506 48.0214 48.9688C47.7067 48.7527 47.4723 48.4386 47.3548 48.0755C47.0072 46.9782 46.7485 45.845 46.4463 44.7402C46.2858 44.1453 45.9383 43.7298 45.2848 43.6731C44.3632 43.59 43.7381 44.3908 43.9798 45.3729C44.2442 46.4399 44.5464 47.4975 44.8505 48.6345C43.7173 48.9348 42.654 49.2011 41.5964 49.5032C40.7919 49.7299 40.382 50.3947 40.5785 51.0972C40.7749 51.7998 41.451 52.1605 42.265 51.9546C43.079 51.7488 43.8854 51.6015 44.6427 51.2955C45.7513 50.8498 46.6824 51.0103 47.6513 51.6883C48.5823 52.3418 49.6173 52.8461 50.6938 53.4674C49.2301 54.3097 47.893 55.0973 46.5389 55.8433C46.2872 55.9476 46.0076 55.9636 45.7457 55.8886C44.5105 55.5902 43.2905 55.2276 42.0553 54.9443C41.094 54.7214 40.2423 55.5883 40.5898 56.4854C40.739 56.8631 41.2111 57.2408 41.621 57.3976C42.654 57.7753 43.7324 58.0019 44.8524 58.306C44.5577 59.4108 44.2744 60.4514 44.0063 61.4939C43.7815 62.3684 44.1139 63.0218 44.8675 63.2296C45.621 63.4373 46.2178 63.0143 46.4671 62.1342C46.6115 61.7113 46.7214 61.2774 46.7957 60.8367C47.0129 58.8971 47.9874 57.5883 49.8326 56.8707C50.5578 56.5911 51.2037 56.1152 51.9762 55.6657C51.9762 57.3655 51.9894 58.9236 51.961 60.476C51.9301 60.7248 51.8148 60.9554 51.6343 61.1294C50.8184 61.9793 49.9724 62.799 49.147 63.6394C48.4955 64.3004 48.4369 65.0181 48.9582 65.5695C49.4794 66.121 50.2613 66.0946 50.9431 65.4128C51.6929 64.6687 52.4181 63.9019 53.217 63.0785V63.0804Z" fill="#5A1305"/>
<path d="M2.48918 26.8022C2.8669 22.4358 4.66674 19.0288 8.33062 16.7247C10.9256 15.0929 13.8208 14.4074 16.8293 14.1883C20.4177 13.9295 23.9437 14.1883 27.3073 15.5726C31.8399 17.4348 34.5085 20.7946 35.2639 25.6502C35.3168 25.9939 35.3282 26.3433 35.3678 26.8022H28.3989C28.1397 26.7937 27.8802 26.805 27.6227 26.8362C27.3365 26.8645 27.0709 26.9973 26.8765 27.2091C26.6821 27.421 26.5725 27.697 26.5688 27.9845C26.533 28.2703 26.6053 28.5592 26.7717 28.7944C26.938 29.0296 27.1863 29.1941 27.4678 29.2555C27.7653 29.3254 28.0709 29.3546 28.3762 29.3424C31.0373 29.3424 33.7002 29.3424 36.3631 29.3424C37.5605 29.3424 37.9797 29.7673 37.9854 30.9534C37.9854 31.2593 38.0005 31.5653 37.9854 31.8712C37.9857 32.1937 37.8616 32.5039 37.6389 32.7372C37.4162 32.9704 37.1121 33.1088 36.7899 33.1234C36.555 33.1429 36.3192 33.1492 36.0836 33.1423H1.80551C1.13884 33.1423 0.294633 33.2197 0.105773 32.468C-0.083087 31.6673 0.0018986 30.7683 0.139766 29.9354C0.181316 29.6899 0.78378 29.4406 1.1615 29.3688C1.68653 29.2706 2.24178 29.3386 2.78381 29.3386C8.81473 29.3386 14.8457 29.3386 20.8766 29.3386C21.2054 29.3537 21.5347 29.3226 21.8549 29.2461C22.4762 29.0572 22.769 28.5964 22.7218 27.9581C22.7172 27.683 22.6137 27.4188 22.4302 27.2138C22.2467 27.0088 21.9956 26.8768 21.7227 26.8419C21.4194 26.7989 21.1127 26.7844 20.8067 26.7985H2.48729L2.48918 26.8022ZM13.9624 17.2119C11.2598 17.227 6.80841 20.4679 6.03031 22.9873C5.94202 23.2334 5.93688 23.5017 6.01567 23.7511C6.09447 24.0005 6.25287 24.2171 6.46657 24.3678C7.10114 24.8702 7.94535 24.6473 8.4175 23.8334C9.26359 22.3678 10.4081 21.2063 11.9397 20.4905C12.6952 20.1355 13.5299 19.9391 14.3269 19.6728C15.0125 19.4424 15.36 18.8796 15.2316 18.2034C15.1747 17.9131 15.0151 17.6531 14.7819 17.4709C14.5488 17.2888 14.2579 17.1969 13.9624 17.2119Z" fill="#5A1305"/>
<path d="M55.793 33.2707C54.8846 33.2292 54.0649 33.1612 53.2453 33.1612C52.4256 33.1612 51.606 33.2292 50.7013 33.2707V17.4575C50.7013 11.5065 46.7617 6.63203 40.9467 5.45166C40.0204 5.28376 39.0796 5.2091 38.1384 5.22881C36.0439 5.22881 33.9306 5.12493 31.8607 5.37234C28.0211 5.82938 25.1278 7.88418 23.1731 11.21C22.8993 11.6708 22.6386 11.7766 22.1268 11.7445C20.6027 11.6293 19.0748 11.5858 17.462 11.5103C17.5608 11.1738 17.6774 10.8428 17.8114 10.5188C20.9181 3.90867 26.1212 0.420433 33.415 0.152251C35.8618 0.0448173 38.3131 0.0914961 40.7541 0.292009C48.0233 0.947353 54.4577 7.12496 55.5286 14.3602C55.6959 15.5009 55.7824 16.6521 55.7873 17.805C55.8156 22.6813 55.8005 27.5577 55.8005 32.4341L55.793 33.2707Z" fill="#5A1305"/>
<path d="M25.2789 63.6148C23.1335 63.6148 21.2996 61.6866 21.4885 59.5468C21.7605 56.3245 22.7084 53.1958 24.2704 50.3644C24.7936 49.4201 25.7813 49.4069 26.3063 50.3493C27.8947 53.1945 28.8398 56.3534 29.075 59.6034C29.1135 60.1218 29.0433 60.6425 28.869 61.1323C28.6948 61.622 28.4202 62.07 28.0629 62.4475C27.7056 62.8251 27.2735 63.1239 26.7941 63.3249C26.3147 63.5259 25.7986 63.6246 25.2789 63.6148Z" fill="#5A1305"/>
<path d="M16.3836 49.6222C16.4289 51.8205 14.6385 53.5373 12.3986 53.4447C10.3212 53.3578 8.595 51.405 8.78952 49.3465C9.08147 46.2004 9.9963 43.1439 11.4808 40.3548C11.7263 39.8902 12.0134 39.5125 12.5875 39.5106C13.1616 39.5087 13.4525 39.8883 13.7018 40.3473C15.2315 43.2009 16.3288 46.9649 16.3836 49.6222Z" fill="#5A1305"/>
</g>
<defs>
<clipPath id="clip0_13_221">
<rect width="71" height="72.4127" fill="white" transform="translate(0 0.0993652)"/>
</clipPath>
</defs>
</svg>
