<svg width="64" height="64" viewBox="0 0 64 64" fill="none" xmlns="http://www.w3.org/2000/svg">
<g clip-path="url(#clip0_96_93)">
<path d="M48.9544 36.2691H62.5428C63.6687 36.2691 63.9982 36.604 63.9982 37.7476C63.9982 46.0133 63.9982 54.2795 63.9982 62.5464C63.9982 63.6722 63.6615 64.0036 62.5214 64.0036H9.92412C7.70095 64.0036 6.39519 62.7049 6.39519 60.4924C6.39519 53.0035 6.39519 45.5145 6.39519 38.0255V37.3771H8.53286V60.2858C8.53286 61.5648 8.82679 61.8641 10.0898 61.8641H36.1996C34.5768 59.0584 34.9348 56.5965 37.2863 54.3734C36.2103 53.517 35.4874 52.2943 35.2555 50.9388C28.7784 51.8848 23.265 50.0873 18.97 45.1119C16.0272 41.7023 14.6947 37.6497 14.9779 33.157C15.5587 23.7637 23.395 16.6738 32.7544 17.0889C43.0206 17.5502 50.2138 26.7137 48.9544 36.2691ZM46.8167 36.2459C46.8167 34.9259 46.9289 33.654 46.7989 32.407C45.9314 24.104 38.0345 18.0651 29.8044 19.3673C21.7882 20.6356 16.3549 27.7059 17.1762 35.8006C18.0473 44.4011 26.4394 50.5434 34.9081 48.778C35.1317 48.7301 35.3308 48.6037 35.4693 48.4217C36.0286 47.5613 36.5488 46.676 37.1206 45.7496C35.3891 44.166 34.6374 42.1103 35.5833 39.6929C36.5898 37.1277 38.6669 36.1675 41.3496 36.2673C41.884 33.8785 41.5759 31.6357 40.4001 29.5408C38.5742 26.2915 35.6991 24.7096 32.0508 24.5084V22.3974C34.9651 22.4633 37.5214 23.3718 39.6627 25.269C42.9564 28.1869 44.1607 31.9029 43.5817 36.2459H46.8167ZM61.857 38.4549C61.7752 38.4324 61.6919 38.4163 61.6076 38.4068C54.5426 38.4068 47.4758 38.3818 40.4091 38.4424C39.725 38.4424 38.9483 38.8503 38.3854 39.2868C37.3451 40.0902 37.0814 41.5117 37.5499 42.7391C37.781 43.3584 38.1999 43.89 38.748 44.2596C39.2961 44.6291 39.946 44.8181 40.6068 44.8002C47.5376 44.8002 54.4696 44.8002 61.4027 44.8002C61.5486 44.792 61.6937 44.7747 61.8374 44.7485V42.6625H39.5166V40.4981H61.857V38.4549ZM39.5023 49.047H61.841V46.9361H60.1611C53.6733 46.9361 47.1855 46.9361 40.6976 46.9361C39.1478 46.9361 37.9169 47.8018 37.4911 49.1628C36.8285 51.2737 38.3729 53.3277 40.6602 53.3312C47.5708 53.3419 54.4809 53.3419 61.3903 53.3312C61.5381 53.3312 61.686 53.3063 61.8267 53.2938V51.1864H39.5059L39.5023 49.047ZM61.8392 59.714H39.4952V57.5977H61.8178V55.4707H53.1798C49.0019 55.4707 44.8245 55.4707 40.6478 55.4707C39.1175 55.4707 37.8813 56.3614 37.4698 57.7366C36.8409 59.8333 38.3711 61.8605 40.6228 61.8641C47.5322 61.876 54.4423 61.876 61.3529 61.8641H61.8321L61.8392 59.714Z" fill="black"/>
<path d="M57.5977 19.1678H55.4796V14.9815H8.5382V18.1007H6.40053V17.4024C6.40053 12.7791 6.40053 8.15699 6.40053 3.53606C6.40053 1.28438 7.69738 0 9.96331 0C24.6503 0 39.3378 0 54.026 0C56.3293 0 57.5888 1.27904 57.5888 3.60019C57.5888 8.55602 57.5888 13.5113 57.5888 18.4659L57.5977 19.1678ZM55.46 12.7779C55.46 9.65157 55.46 6.58936 55.46 3.52715C55.46 2.48682 55.1037 2.13411 54.0545 2.13411H9.94015C8.87132 2.13411 8.52929 2.49038 8.52751 3.58594C8.52751 6.42904 8.52751 9.27273 8.52751 12.117C8.52751 12.3308 8.5471 12.5446 8.55779 12.7779H55.46Z" fill="black"/>
<path d="M14.9227 27.7576C14.9084 28.3918 14.4542 28.7623 13.6383 28.8069C11.4116 28.9316 9.50727 30.3371 8.82856 32.4124C8.6769 32.9445 8.57961 33.4906 8.53819 34.0424C8.45981 34.7407 8.08572 35.1807 7.48895 35.1967C6.89219 35.2128 6.44328 34.7621 6.3934 34.0281C6.18676 30.9998 4.21654 29.0402 1.1383 28.8033C0.441778 28.7499 0.00711773 28.3455 0.00177356 27.7452C-0.00357061 27.1448 0.425737 26.7227 1.1187 26.6674C4.25216 26.4163 6.14578 24.5298 6.39517 21.3927C6.4504 20.6998 6.86368 20.2687 7.46401 20.2722C8.06434 20.2758 8.47228 20.7122 8.53284 21.407C8.76621 24.5173 10.6705 26.3949 13.8218 26.6692C14.5005 26.7262 14.9369 27.1555 14.9227 27.7576ZM5.54546 27.7256L7.43908 29.6406C8.01269 29.0741 8.81965 28.276 9.36119 27.7434L7.44263 25.8373L5.54546 27.7256Z" fill="black"/>
<path d="M18.1648 51.149C19.1802 51.2061 20.217 51.149 21.2092 51.3432C23.297 51.7369 24.7043 53.7321 24.5155 55.8519C24.4232 56.8791 23.961 57.8378 23.215 58.5498C22.4689 59.2618 21.4896 59.6787 20.4593 59.7229C18.9059 59.768 17.3525 59.768 15.7991 59.7229C14.6993 59.6758 13.6607 59.2039 12.9018 58.4065C12.1429 57.6091 11.723 56.5483 11.7304 55.4475C11.7382 54.3497 12.168 53.2969 12.9307 52.5073C13.6935 51.7177 14.7307 51.2518 15.8276 51.2061C16.6025 51.1811 17.3792 51.2061 18.1559 51.2061L18.1648 51.149ZM18.1648 53.3384C17.4327 53.3384 16.6987 53.3206 15.9666 53.3384C15.4054 53.345 14.8698 53.5736 14.4768 53.9742C14.0838 54.3749 13.8656 54.9149 13.8699 55.476C13.8711 56.0274 14.0877 56.5564 14.4733 56.9504C14.859 57.3444 15.3833 57.5722 15.9345 57.5852C17.4012 57.6149 18.8673 57.6149 20.3328 57.5852C20.8838 57.5727 21.4081 57.3453 21.7938 56.9516C22.1796 56.5579 22.3962 56.029 22.3974 55.4778C22.3975 54.9176 22.1777 54.3797 21.7852 53.98C21.3928 53.5802 20.8591 53.3504 20.2989 53.3402C19.5828 53.3206 18.872 53.3384 18.1595 53.3384H18.1648Z" fill="black"/>
<path d="M62.9258 27.7291C62.9258 28.3508 62.4858 28.7605 61.7394 28.7979C60.3464 28.8781 59.1564 29.4196 58.4278 30.6042C58.0038 31.2936 57.7954 32.1433 57.6226 32.9485C57.4676 33.67 57.1399 34.1332 56.5199 34.126C55.9 34.1189 55.5135 33.6753 55.4618 32.9218C55.3015 30.606 53.6608 28.9529 51.3646 28.8015C50.5719 28.7498 50.1176 28.3436 50.1354 27.7023C50.1533 27.061 50.5861 26.7119 51.3539 26.6602C53.659 26.5052 55.3033 24.8592 55.4511 22.5506C55.5028 21.7881 55.8822 21.3499 56.5003 21.3357C57.1185 21.3214 57.5425 21.7757 57.5941 22.5719C57.7438 24.8575 59.4022 26.5017 61.7198 26.6691C62.4823 26.7172 62.9258 27.1091 62.9258 27.7291ZM55.0877 27.7041L56.5021 29.1934L57.9807 27.7683L56.5449 26.2523L55.0877 27.7041Z" fill="black"/>
<path d="M26.6353 45.8637C26.5008 45.8648 26.3674 45.8393 26.2428 45.7884C26.1182 45.7376 26.005 45.6625 25.9097 45.5675C25.8144 45.4726 25.7389 45.3596 25.6876 45.2352C25.6364 45.1108 25.6103 44.9775 25.611 44.8429C25.6031 43.6978 25.1443 42.6019 24.3341 41.7927C23.5238 40.9835 22.4274 40.526 21.2823 40.5195C21.1478 40.5197 21.0146 40.4932 20.8905 40.4415C20.7664 40.3898 20.6538 40.3139 20.5593 40.2182C20.4648 40.1226 20.3903 40.0091 20.3401 39.8843C20.2899 39.7596 20.265 39.6261 20.2669 39.4916C20.26 39.3522 20.2819 39.2128 20.3311 39.0821C20.3804 38.9515 20.456 38.8323 20.5532 38.7321C20.6504 38.6319 20.7672 38.5527 20.8963 38.4995C21.0254 38.4463 21.164 38.4202 21.3036 38.4228C22.437 38.4131 23.5217 37.9604 24.3256 37.1615C25.1295 36.3625 25.589 35.2808 25.6057 34.1475C25.6006 34.0074 25.6241 33.8677 25.6748 33.737C25.7254 33.6064 25.8022 33.4874 25.9004 33.3873C25.9986 33.2873 26.1161 33.2083 26.2459 33.1553C26.3756 33.1022 26.5148 33.0761 26.6549 33.0786C26.7956 33.0724 26.936 33.0953 27.0674 33.1458C27.1988 33.1963 27.3184 33.2734 27.4187 33.3722C27.519 33.471 27.5978 33.5894 27.6503 33.72C27.7028 33.8507 27.7278 33.9907 27.7238 34.1314C27.7386 35.2646 28.1955 36.3472 28.9972 37.1483C29.7989 37.9493 30.8819 38.4054 32.0151 38.4192C32.1556 38.4157 32.2952 38.441 32.4254 38.4938C32.5556 38.5465 32.6736 38.6254 32.772 38.7256C32.8704 38.8259 32.9472 38.9453 32.9975 39.0765C33.0477 39.2076 33.0705 39.3477 33.0644 39.4881C33.0659 39.6279 33.0391 39.7665 32.9857 39.8957C32.9322 40.0248 32.8532 40.1419 32.7533 40.2397C32.6535 40.3376 32.5349 40.4142 32.4047 40.4651C32.2744 40.5159 32.1353 40.5399 31.9955 40.5355C30.8618 40.5518 29.7795 41.0113 28.9804 41.8158C28.1813 42.6202 27.7289 43.7055 27.7202 44.8394C27.7215 44.9794 27.6938 45.1183 27.639 45.2471C27.5841 45.376 27.5032 45.4922 27.4014 45.5883C27.2995 45.6845 27.1789 45.7586 27.0471 45.806C26.9153 45.8534 26.7751 45.873 26.6353 45.8637ZM26.6638 37.9917C26.1936 38.4673 25.6271 39.0356 25.1995 39.4667L26.6478 40.9631L28.1281 39.4613L26.6638 37.9917Z" fill="black"/>
<path d="M30.0521 24.6883L28.146 25.2976L27.2927 23.3381L29.6405 22.5952C29.792 23.3559 29.9202 24.0168 30.0521 24.6883Z" fill="black"/>
<path d="M29.8632 4.26637C32.5947 4.26637 35.3262 4.26637 38.0576 4.26637C39.1033 4.26637 39.4542 4.62265 39.4578 5.66476C39.4578 6.91174 39.4578 8.15871 39.4578 9.40568C39.4578 10.275 39.0623 10.6687 38.1912 10.6687C32.6345 10.6687 27.0789 10.6687 21.5245 10.6687C20.6534 10.6687 20.2669 10.275 20.2615 9.4039C20.2532 8.11655 20.2532 6.82742 20.2615 5.5365C20.2615 4.6654 20.6534 4.27706 21.5263 4.2735C24.3053 4.26519 27.0843 4.26281 29.8632 4.26637ZM22.4259 8.49896H37.2863V6.44679H22.4259V8.49896Z" fill="black"/>
<path d="M14.9387 4.27173C15.3609 4.27452 15.7783 4.36064 16.1671 4.52515C16.5559 4.68966 16.9083 4.92933 17.2043 5.23039C17.5002 5.53145 17.7338 5.88799 17.8916 6.27954C18.0494 6.67109 18.1283 7.08995 18.1239 7.51208C18.1094 8.35289 17.7652 9.15436 17.1654 9.7438C16.5656 10.3332 15.7583 10.6635 14.9174 10.6634C14.0762 10.6578 13.2709 10.3219 12.675 9.72807C12.0792 9.13425 11.7406 8.33008 11.7322 7.48892C11.7308 7.06694 11.8127 6.64883 11.9732 6.25856C12.1337 5.8683 12.3697 5.51355 12.6676 5.21467C12.9655 4.91578 13.3194 4.67864 13.7092 4.51683C14.0989 4.35502 14.5167 4.27173 14.9387 4.27173ZM15.9897 7.4426C15.9819 7.16441 15.8658 6.90027 15.6662 6.70632C15.4666 6.51238 15.1992 6.40394 14.9209 6.40405C14.7775 6.40581 14.6358 6.43643 14.5045 6.49408C14.3731 6.55174 14.2547 6.63525 14.1563 6.73965C14.0578 6.84404 13.9815 6.96718 13.9317 7.10172C13.8818 7.23626 13.8596 7.37946 13.8663 7.52277C13.8825 7.80124 14.0068 8.06239 14.2128 8.25044C14.4188 8.43849 14.6902 8.53855 14.969 8.52925C15.2459 8.51679 15.5072 8.39725 15.6976 8.19583C15.8881 7.99442 15.9928 7.7269 15.9897 7.44973V7.4426Z" fill="black"/>
<path d="M45.8334 6.44507V8.49901H41.6489V6.44507H45.8334Z" fill="black"/>
<path d="M52.2375 6.45215V8.49362H48.0334V6.45215H52.2375Z" fill="black"/>
</g>
<defs>
<clipPath id="clip0_96_93">
<rect width="64" height="64.0053" fill="white"/>
</clipPath>
</defs>
</svg>
