<svg width="61" height="62" viewBox="0 0 61 62" fill="none" xmlns="http://www.w3.org/2000/svg">
<g clip-path="url(#clip0_13_264)">
<path d="M28.4921 61.0682H11.8925V59.3379C11.8925 58.6315 11.9091 57.9234 11.8925 57.2187C11.8609 56.2979 11.359 55.8059 10.4381 55.7976C8.73723 55.7843 7.03687 55.7843 5.33707 55.7976C4.43952 55.7976 3.95419 56.2962 3.94256 57.1938C3.92427 58.457 3.94256 59.7219 3.94256 61.0366H0.0149536V13.2638H47.6864V34.4742H43.7754C43.1022 27.8257 40.0921 22.5501 34.4309 18.9499C30.0446 16.1609 25.2261 15.2932 20.1217 16.2706C15.1311 17.2236 10.6944 20.05 7.72149 24.1702C4.74859 28.2903 3.46489 33.3919 4.1337 38.4284C5.56645 49.3037 15.4262 56.9777 26.4511 55.6181C26.447 57.6224 27.1725 59.5596 28.4921 61.0682Z" fill="#5A1305"/>
<path d="M34.5539 30.3671L35.8421 34.4509C35.3966 34.4825 35.139 34.5091 34.8797 34.5157C33.535 34.5473 32.1655 34.421 30.8507 34.6337C27.445 35.1822 25.5602 38.7957 26.9464 41.9537C27.0311 42.1141 27.0754 42.2927 27.0754 42.474C27.0754 42.6553 27.0311 42.8339 26.9464 42.9942C26.3563 44.2309 26.3297 45.5157 26.7486 46.8171C26.8034 46.9833 26.8732 47.1495 26.9564 47.3723C25.3243 47.8429 23.6066 47.9355 21.9334 47.6432C16.5149 46.6725 12.6853 42.6701 11.9507 37.2316C11.2609 32.1306 14.2544 26.9348 19.1394 24.8073C22.442 23.3695 25.728 23.3429 28.9576 25.0499C29.1038 25.1264 29.28 25.4023 29.2468 25.5336C28.4656 28.5371 31.366 31.2347 34.2481 30.3538C34.3502 30.3495 34.4526 30.3539 34.5539 30.3671Z" fill="#5A1305"/>
<path d="M15.8966 10.5395V0.0065918H47.6731V10.5395H15.8966ZM23.8166 2.60616C23.1125 2.61008 22.4383 2.89153 21.9404 3.38942C21.4426 3.8873 21.1611 4.56145 21.1572 5.26556C21.165 5.96846 21.4476 6.64038 21.9447 7.13744C22.4418 7.6345 23.1137 7.91718 23.8166 7.92496C24.5184 7.91713 25.1891 7.63407 25.6843 7.13669C26.1795 6.63932 26.4596 5.9674 26.4644 5.26556C26.4661 4.56224 26.1892 3.88687 25.6943 3.38722C25.1993 2.88757 24.5265 2.60434 23.8232 2.59951L23.8166 2.60616ZM41.0628 5.26556C41.0628 5.68109 41.0462 6.09662 41.0628 6.51049C41.1044 7.35817 41.6645 7.93659 42.4108 7.92496C43.1571 7.91332 43.6923 7.35651 43.7222 6.54041C43.7521 5.69106 43.7538 4.83839 43.7222 3.98904C43.6923 3.15798 43.1454 2.62111 42.4091 2.6128C41.6728 2.60449 41.1044 3.16629 41.0628 4.02062C41.0528 4.4212 41.0695 4.83839 41.0695 5.25226L41.0628 5.26556ZM35.7822 5.23896C35.7822 5.67444 35.7822 6.10992 35.7822 6.54539C35.7797 6.58691 35.7797 6.62854 35.7822 6.67005C35.7986 7.00444 35.9415 7.3201 36.1819 7.55311C36.4223 7.78611 36.7423 7.91903 37.077 7.92496C37.4138 7.93146 37.74 7.80678 37.9865 7.57727C38.2331 7.34775 38.3808 7.03138 38.3984 6.69498C38.4383 5.74258 38.4383 4.7852 38.3984 3.8328C38.3795 3.49626 38.2299 3.1804 37.9815 2.95252C37.7332 2.72463 37.4056 2.60274 37.0687 2.6128C36.7336 2.61524 36.4124 2.74754 36.1728 2.98188C35.9332 3.21623 35.7938 3.53436 35.7839 3.86937C35.7673 4.31149 35.7889 4.76858 35.7889 5.22068L35.7822 5.23896Z" fill="#5A1305"/>
<path d="M43.5377 47.8143C39.4738 47.8143 35.4099 47.8143 31.346 47.8143C29.8318 47.8143 28.8611 46.6509 29.2085 45.3045C29.4446 44.387 30.1875 43.8352 31.2513 43.8319C34.155 43.8236 37.0587 43.8319 39.9608 43.8319C40.2716 43.8319 40.5825 43.8402 40.8933 43.8319C41.8074 43.8053 42.3892 43.2934 42.4008 42.5138C42.4125 41.7343 41.8157 41.1609 40.8733 41.1575C37.6787 41.1476 34.4858 41.1575 31.2928 41.1575C30.2956 41.1575 29.5808 40.7021 29.27 39.8993C29.1626 39.6321 29.1149 39.3446 29.1303 39.0571C29.1456 38.7695 29.2236 38.4887 29.3588 38.2344C29.494 37.9802 29.6832 37.7585 29.913 37.585C30.1429 37.4115 30.4079 37.2903 30.6895 37.2299C30.9328 37.1801 31.1808 37.1567 31.4291 37.1601C39.3907 37.1601 47.3528 37.1601 55.3155 37.1601C58.0697 37.1601 60.1922 38.7674 60.8438 41.2888C61.6 44.2192 59.5274 47.3207 56.5339 47.7229C56.0819 47.7813 55.6267 47.8108 55.1709 47.811C51.2937 47.8177 47.416 47.8188 43.5377 47.8143Z" fill="#5A1305"/>
<path d="M46.4497 61.0915C42.4906 61.0915 38.5297 61.1031 34.5705 61.0915C31.8413 61.0782 29.6673 59.3196 29.2135 56.8098C29.0744 56.0368 29.1063 55.2427 29.307 54.4833C29.5077 53.7239 29.8722 53.0176 30.3751 52.4142C30.8779 51.8108 31.5068 51.3248 32.2175 50.9904C32.9283 50.6561 33.7036 50.4814 34.4891 50.4788C39.9841 50.4505 45.4774 50.4688 50.9724 50.4688C53.5642 50.4688 56.1554 50.4688 58.7461 50.4688C60.0758 50.4688 60.9651 51.265 60.9684 52.4517C60.9717 53.6385 60.0842 54.4463 58.7644 54.4463C55.5931 54.4463 52.4201 54.4463 49.2488 54.4463C48.3496 54.4463 47.7844 54.915 47.7362 55.6696C47.6814 56.5356 48.2432 57.0874 49.2321 57.0907C52.3004 57.0907 55.3687 57.0907 58.437 57.0907C58.6448 57.0907 58.8525 57.0808 59.0586 57.0907C60.2038 57.1838 60.9933 58.0315 60.9717 59.1368C60.9501 60.2421 60.1091 61.0765 58.9456 61.0848C56.4524 61.1014 53.9692 61.0848 51.481 61.0848L46.4497 61.0915Z" fill="#5A1305"/>
<path d="M41.0778 34.4841H38.4799C38.297 33.6181 38.2006 32.7239 37.9081 31.8995C37.5577 30.8423 37.0934 29.8263 36.5236 28.8694C35.8587 27.8057 34.8199 27.435 33.5467 27.8289C32.3982 28.183 31.4973 27.3403 31.7699 26.2283C32.1887 24.5196 31.7699 23.5057 30.1842 22.6996C27.7292 21.4447 25.1197 20.8812 22.3722 21.2037C19.4504 21.5513 16.6961 22.7536 14.4546 24.6598C12.2131 26.566 10.5841 29.0913 9.77164 31.9194C7.31502 40.476 13.3585 49.4582 22.1644 50.369C24.2718 50.5975 26.4036 50.3789 28.4207 49.7274C28.653 49.6539 28.9044 49.6699 29.1254 49.7723C28.7116 50.2709 28.2944 50.7696 27.8838 51.2815C27.7969 51.3712 27.7291 51.4774 27.6844 51.594C27.3519 52.8173 26.4045 52.9835 25.3175 53.0749C17.2412 53.7564 9.64532 48.5673 7.34161 40.7553C4.34979 30.6163 11.0448 20.1815 21.5029 18.7005C30.8474 17.3708 39.6201 23.9728 40.9398 33.3139C40.9847 33.6796 41.0246 34.0486 41.0778 34.4841Z" fill="#5A1305"/>
<path d="M13.1574 10.5545H-1.52588e-05V0H13.1574V10.5545Z" fill="#5A1305"/>
<path d="M6.61526 58.4719H9.18159V61.0482H6.61526V58.4719Z" fill="#5A1305"/>
</g>
<defs>
<clipPath id="clip0_13_264">
<rect width="61" height="61.0964" fill="white"/>
</clipPath>
</defs>
</svg>
