<svg width="57" height="49" viewBox="0 0 57 49" fill="none" xmlns="http://www.w3.org/2000/svg">
<g clip-path="url(#clip0_93_25)">
<path d="M28.4104 35.3636V42.0132C29.7037 42.4016 30.9787 42.6917 32.1824 43.1663C34.1238 43.931 35.6872 45.2322 36.9562 46.881C37.4313 47.4991 37.4116 48.3363 36.9061 48.7111C36.5999 48.9384 36.217 49.0382 35.8382 48.9894C35.4595 48.9406 35.1147 48.7471 34.8767 48.4497C32.8913 45.8669 30.2714 44.5053 27.0049 44.5536C23.9691 44.5975 21.5055 45.8896 19.5991 48.2502C19.3706 48.5421 19.0676 48.7676 18.7217 48.9031C18.4977 48.9922 18.2492 48.9995 18.0203 48.9237C17.7914 48.8479 17.5968 48.6939 17.471 48.489C17.3136 48.2619 17.2365 47.9891 17.2519 47.7136C17.2673 47.4381 17.3743 47.1755 17.556 46.9671C19.0116 45.0648 20.9961 43.6297 23.2633 42.8398C24.007 42.5799 24.8009 42.4605 25.5629 42.2444C25.7147 42.2006 25.9393 42.0117 25.9408 41.8877C25.9636 39.7417 25.9575 37.5942 25.9575 35.3606H1.63174C0.349116 35.3606 0.0015179 35.0205 0 33.7586C0 23.0296 0 12.2995 0 1.56849C0 0.359474 0.367338 -0.00927734 1.60139 -0.00927734H55.4108C56.6251 -0.00927734 56.9985 0.359473 56.9985 1.58209V33.7722C56.9985 35.0039 56.6387 35.3606 55.4093 35.3606H28.4104V35.3636ZM2.46962 32.9198H54.5198V2.47072H2.46962V32.9198Z" fill="black"/>
</g>
<defs>
<clipPath id="clip0_93_25">
<rect width="57" height="49" fill="white"/>
</clipPath>
</defs>
</svg>
