<svg width="76" height="64" viewBox="0 0 76 64" fill="none" xmlns="http://www.w3.org/2000/svg">
<g clip-path="url(#clip0_13_90)">
<path d="M75.8472 1.69274V51.8151C75.2922 53.0812 74.3223 53.496 72.9555 53.4821C67.82 53.4288 62.6845 53.4604 57.5491 53.4604H56.7945C57.379 53.902 57.9964 54.2982 58.6413 54.6455C61.2903 56.18 63.7561 58.0109 65.991 60.103C66.8245 60.8812 66.9924 61.9241 66.4809 62.8682C66.0127 63.7274 64.9837 64.239 64.0237 63.9111C63.445 63.7136 62.9117 63.2909 62.4436 62.8761C55.7279 56.9506 47.9062 53.7764 38.9606 53.5137C30.5897 53.2688 22.9971 55.6864 16.2301 60.6086C15.0114 61.4816 13.9132 62.5068 12.738 63.4529C11.3317 64.5768 9.38018 63.8479 9.11155 62.092C8.98119 61.2723 9.30907 60.6047 9.90163 60.0496C12.4575 57.6831 15.3027 55.6497 18.3693 53.9977C18.6122 53.8673 18.8492 53.7192 19.0882 53.5789L19.0329 53.4604H18.229C13.1192 53.4604 8.00742 53.4288 2.89761 53.4821C1.5288 53.496 0.56097 53.0871 0.00396729 51.8151V1.69274C0.533317 0.406891 1.50708 -0.001968 2.87391 7.18447e-06C26.2443 0.0237094 49.6174 0.0237094 72.993 7.18447e-06C74.3441 -0.001968 75.3198 0.402941 75.8472 1.69274ZM52.7533 22.7384C52.5558 22.4065 52.3089 21.7508 51.8566 21.33C46.488 16.2755 40.1635 14.6243 33.0034 16.2736C29.4639 17.0893 26.428 18.8907 23.8464 21.4426C23.1156 22.1675 22.9438 23.0682 23.327 23.9491C23.6924 24.7925 24.5496 25.4187 25.4464 25.2271C26.1297 25.0701 26.761 24.7394 27.2793 24.2671C29.5258 22.1797 32.3366 20.799 35.3618 20.2968C38.387 19.7946 41.4931 20.193 44.2936 21.4426C46.0027 22.2194 47.5629 23.2889 48.9037 24.6029C49.2208 24.9389 49.6376 25.164 50.0925 25.2451C50.5473 25.3262 51.0162 25.259 51.4299 25.0533C52.2872 24.68 52.6466 23.9531 52.7533 22.7384ZM38.2515 24.516C35.4112 24.3778 32.3496 25.553 30.2579 27.5835C29.2703 28.5434 29.1577 29.8866 29.9913 30.8109C30.8623 31.7768 32.1956 31.7827 33.2819 30.8267C36.1538 28.3044 39.6934 28.3064 42.5653 30.8267C43.6497 31.7788 44.9869 31.7689 45.854 30.8011C46.6836 29.8767 46.5769 28.5197 45.5774 27.5716C43.5312 25.6379 41.0839 24.6424 38.2515 24.5239V24.516ZM40.1437 35.6166C40.1392 35.0304 39.9061 34.4692 39.494 34.0524C39.082 33.6355 38.5235 33.3959 37.9374 33.3846C37.3518 33.3891 36.7909 33.6216 36.3738 34.0328C35.9568 34.4439 35.7163 35.0014 35.7035 35.5869C35.7017 35.8783 35.7573 36.1672 35.8673 36.437C35.9772 36.7068 36.1393 36.9523 36.3442 37.1595C36.5491 37.3666 36.7929 37.5313 37.0615 37.6441C37.3302 37.7569 37.6184 37.8156 37.9098 37.8169C38.2005 37.8201 38.489 37.7658 38.7588 37.6572C39.0285 37.5487 39.2742 37.3879 39.4817 37.1843C39.6892 36.9806 39.8545 36.738 39.9681 36.4703C40.0817 36.2027 40.1414 35.9152 40.1437 35.6245V35.6166Z" fill="#5A1305"/>
</g>
<defs>
<clipPath id="clip0_13_90">
<rect width="75.8472" height="64" fill="white"/>
</clipPath>
</defs>
</svg>
