<svg width="53" height="63" viewBox="0 0 53 63" fill="none" xmlns="http://www.w3.org/2000/svg">
<g clip-path="url(#clip0_13_254)">
<path d="M0.361918 23.1157C0.264737 22.6901 0.0268113 22.1371 0.0268113 21.5825C-0.00223127 16.5135 -0.00614207 11.4445 0.0150813 6.37541C0.0150813 4.83057 1.00029 3.8772 2.54848 3.8772C15.764 3.8772 28.9794 3.8772 42.1949 3.8772C43.7967 3.8772 44.7384 4.81214 44.7401 6.40892C44.7401 11.4774 44.7535 16.5476 44.7267 21.6177C44.7267 22.1673 44.5055 22.7169 44.4251 23.0888C43.2522 22.9917 42.2871 22.8425 41.3236 22.8425C28.5058 22.8258 15.688 22.8258 2.87018 22.8425C2.10614 22.8442 1.34881 23.0034 0.361918 23.1157ZM2.7462 14.0024C2.7462 15.1116 2.73112 16.2208 2.7462 17.33C2.74398 17.6449 2.80427 17.957 2.92358 18.2484C3.04289 18.5398 3.21884 18.8046 3.44124 19.0274C3.66364 19.2503 3.92807 19.4268 4.21919 19.5467C4.51031 19.6667 4.82233 19.7276 5.13718 19.7261C5.84761 19.7411 6.55971 19.7378 7.27181 19.7261C8.67926 19.7043 9.70636 18.7559 9.73317 17.3351C9.77673 15.139 9.77673 12.9418 9.73317 10.7435C9.70803 9.34613 8.7379 8.40951 7.33883 8.34416C6.6083 8.31065 5.87275 8.31065 5.14221 8.34416C3.6912 8.40951 2.7529 9.4031 2.74117 10.8575C2.73112 11.908 2.73782 12.9569 2.7395 14.0024H2.7462Z" fill="#5A1305"/>
<path d="M44.7803 47.4778H46.8395V51.4019H44.7367C44.7367 52.2263 44.7367 52.9736 44.7367 53.7209C44.7216 55.249 43.7934 56.1973 42.2686 56.1973C29.0107 56.1973 15.7517 56.1973 2.49152 56.1973C0.983545 56.1973 0.013404 55.2339 0.0117284 53.7158C0.00167524 44.6858 0.00167524 35.6558 0.0117284 26.6258C0.0117284 25.0894 1.01705 24.1327 2.55352 24.131C15.7712 24.131 28.9884 24.131 42.205 24.131C43.785 24.131 44.7183 25.0911 44.7384 26.6862C44.7384 27.3949 44.7384 28.1037 44.7384 28.8912H46.8496V32.8823H44.7803V47.4778ZM3.41809 52.7692H41.3303V27.5692H3.41809V52.7692Z" fill="#5A1305"/>
<path d="M48.2821 24.1981C49.207 24.1981 50.1085 24.1277 50.9931 24.2165C52.0454 24.3238 52.7592 25.0978 52.9384 26.1451C52.9731 26.3724 52.9894 26.6021 52.987 26.832C52.987 35.7302 52.987 44.629 52.987 53.5283C52.987 54.8553 52.4324 55.7366 51.3668 56.0751C51.0864 56.156 50.7957 56.196 50.5039 56.194C49.775 56.2108 49.0478 56.194 48.2805 56.194L48.2821 24.1981Z" fill="#5A1305"/>
<path d="M3.42311 57.5914H41.3287V62.9833C40.248 62.9833 39.1689 62.995 38.0899 62.9682C37.9424 62.9682 37.7799 62.7755 37.6609 62.6331C36.7528 61.6177 35.8715 60.5806 34.9415 59.587C34.7085 59.3422 34.3937 59.1913 34.0569 59.1631C26.2656 59.1396 18.4744 59.1396 10.6832 59.1631C10.3648 59.1886 10.0668 59.3299 9.84542 59.5602C8.93058 60.5387 8.0459 61.5474 7.17462 62.5661C7.07194 62.7072 6.93539 62.8201 6.77755 62.8945C6.61971 62.9689 6.44568 63.0023 6.27152 62.9917C5.33322 62.9615 4.39492 62.9816 3.42311 62.9816V57.5914Z" fill="#5A1305"/>
<path d="M41.3119 2.48644H31.0459C31.5922 1.77434 32.0043 1.08067 32.5723 0.559581C32.9764 0.235437 33.4754 0.0524254 33.9932 0.03849C35.729 -0.0218292 37.4682 -4.89783e-05 39.2074 0.0183819C40.6501 0.0334617 41.456 0.975112 41.3119 2.48644Z" fill="#5A1305"/>
<path d="M8.40447 14.0258C8.40447 15.0312 8.40447 16.0365 8.40447 17.0418C8.40447 17.9952 8.03752 18.3504 7.06404 18.3571C6.4575 18.3571 5.85263 18.3671 5.24609 18.3571C4.50383 18.3403 4.10505 17.9751 4.09835 17.2445C4.08383 15.092 4.08383 12.939 4.09835 10.7854C4.09835 10.0481 4.49545 9.67616 5.23436 9.65941C5.92301 9.64433 6.61332 9.64265 7.30364 9.65941C7.99396 9.67616 8.38436 10.0783 8.39609 10.7686C8.40447 11.851 8.40447 12.9384 8.40447 14.0258Z" fill="#5A1305"/>
<path d="M24.4896 46.858H22.7118C22.6549 46.4676 22.6281 46.0922 22.5443 45.7286C22.2959 44.5598 21.6535 43.5118 20.7248 42.76C19.796 42.0081 18.6372 41.5981 17.4423 41.5985C15.7455 41.5817 14.0493 41.5817 12.3537 41.5985C9.54718 41.6303 7.35056 43.7214 7.13944 46.5329C7.13106 46.6334 7.12101 46.7323 7.10761 46.868H4.78867V28.903H39.9949V51.469H38.7701V50.715C38.7701 45.9398 38.7701 41.1645 38.7584 36.3892C38.7584 36.0793 38.6864 35.6704 38.4836 35.4794C37.5034 34.5512 37.051 33.4688 37.2722 32.1284C37.2753 32.0091 37.2646 31.8899 37.2404 31.7731H25.9841C25.9841 32.2641 25.9557 32.7584 25.9841 33.2476C26.0126 33.7369 25.9155 34.1943 25.5167 34.5394C24.6236 35.3085 24.4209 36.2753 24.4494 37.4398C24.5331 40.5596 24.4896 43.6711 24.4896 46.858Z" fill="#5A1305"/>
<path d="M27.276 33.0867H35.8212C35.848 33.1185 35.8999 33.1537 35.8966 33.1788C35.6754 34.34 36.4093 35.0705 37.0594 35.8597C37.272 36.1284 37.3946 36.4573 37.4096 36.7996C37.4314 41.3638 37.4247 45.9296 37.423 50.4938C37.423 51.3047 37.2555 51.4706 36.4177 51.4706H26.8085C25.9808 51.4706 25.8317 51.3181 25.8317 50.4653C25.8317 45.9414 25.8317 41.4174 25.82 36.8935C25.8125 36.6783 25.8479 36.4638 25.9241 36.2624C26.0004 36.0611 26.1159 35.8769 26.264 35.7206C26.9208 35.0001 27.6999 34.3132 27.276 33.0867ZM31.6324 39.8407C30.6691 39.8452 29.7468 40.2312 29.0675 40.9142C28.3882 41.5973 28.0073 42.5217 28.0082 43.485C28.0164 44.4379 28.3966 45.3498 29.0677 46.0263C29.7389 46.7027 30.6478 47.0901 31.6005 47.1058C32.5644 47.1037 33.4888 46.723 34.1746 46.0457C34.8604 45.3684 35.2525 44.4488 35.2666 43.485C35.2631 42.5205 34.8787 41.5963 34.1971 40.9138C33.5155 40.2313 32.5919 39.8456 31.6273 39.8407H31.6324Z" fill="#5A1305"/>
<path d="M5.77054 48.2671H23.9484C23.844 48.4012 23.7321 48.5293 23.6133 48.6508C22.7068 49.4886 21.8104 50.3431 20.8755 51.1507C20.6274 51.3555 20.3189 51.4732 19.9975 51.4858C16.6051 51.507 13.2116 51.507 9.81694 51.4858C9.4742 51.473 9.14538 51.3469 8.88199 51.1272C7.86494 50.2392 6.88477 49.3026 5.77054 48.2671Z" fill="#5A1305"/>
<path d="M16.2476 46.8429H8.50667C8.47411 46.2162 8.60718 45.5921 8.8925 45.0332C9.17781 44.4743 9.6053 44.0005 10.1319 43.6593C11.4305 42.7596 12.8379 42.6825 14.2253 43.4331C15.5406 44.1402 16.194 45.2947 16.2476 46.8429Z" fill="#5A1305"/>
<path d="M17.6015 46.8663C17.5945 45.4456 17.0266 44.0852 16.0214 43.0813C18.456 42.1178 21.4837 44.2876 21.2726 46.8663H17.6015Z" fill="#5A1305"/>
<path d="M4.77024 51.4589V49.1936L7.24668 51.4589H4.77024Z" fill="#5A1305"/>
<path d="M24.4343 51.479H22.5376L24.4343 49.7264V51.479Z" fill="#5A1305"/>
<path d="M29.3603 43.4415C29.3603 43.1436 29.4196 42.8487 29.5349 42.5741C29.6502 42.2994 29.8192 42.0505 30.0318 41.8419C30.2445 41.6333 30.4966 41.4692 30.7734 41.3592C31.0503 41.2492 31.3463 41.1956 31.6441 41.2014C31.9419 41.2007 32.2369 41.2589 32.5122 41.3726C32.7874 41.4863 33.0375 41.6533 33.248 41.864C33.4585 42.0746 33.6253 42.3248 33.7388 42.6001C33.8523 42.8755 33.9103 43.1705 33.9094 43.4683C33.9111 43.7722 33.8518 44.0733 33.7351 44.3538C33.6184 44.6344 33.4466 44.8887 33.23 45.1018C33.0134 45.3148 32.7562 45.4823 32.4737 45.5943C32.1913 45.7063 31.8892 45.7605 31.5855 45.7538C31.2869 45.7501 30.9921 45.6871 30.7181 45.5686C30.4441 45.45 30.1964 45.2781 29.9893 45.063C29.7823 44.8479 29.6201 44.5937 29.5121 44.3154C29.4041 44.037 29.3526 43.74 29.3603 43.4415Z" fill="#5A1305"/>
</g>
<defs>
<clipPath id="clip0_13_254">
<rect width="52.982" height="63" fill="white"/>
</clipPath>
</defs>
</svg>
