<svg width="59" height="59" viewBox="0 0 59 59" fill="none" xmlns="http://www.w3.org/2000/svg">
<g clip-path="url(#clip0_96_72)">
<path d="M0 55.1993V3.83083C0.615449 1.15209 2.61566 -0.0157245 5.41287 -0.00033831C17.0064 0.0735155 28.6014 0.0304337 40.1965 0.0304337C41.1951 0.0304337 42.1967 0.0165861 43.1922 0.0304337C44.2283 0.0477436 45.2253 0.42929 46.0083 1.10816C46.7913 1.78703 47.3102 2.71989 47.4742 3.74313C47.565 4.32011 47.5696 4.91094 47.6142 5.48639H50.1329C50.1329 4.07855 50.1329 2.71687 50.1329 1.35673C50.1329 0.264303 50.3668 0.0258165 51.4361 0.0242779H54.1426C57.1413 0.0242779 58.9815 1.87062 58.9815 4.87402C58.9815 16.0249 58.9815 27.1758 58.9815 38.3267C58.9815 39.2284 58.7292 39.6269 58.1445 39.6453C57.5599 39.6638 57.2521 39.2422 57.2521 38.3252V5.0448C57.2521 4.81401 57.2521 4.58322 57.2521 4.35396C57.1875 3.15845 56.389 2.04603 55.2119 1.89216C54.1349 1.7383 53.0148 1.85986 51.9177 1.85986V57.2764H54.1518C56.1689 57.2764 57.2567 56.1994 57.2567 54.1992C57.2567 50.2829 57.2567 46.3676 57.2567 42.4533C57.2567 41.7948 57.6076 41.3901 58.1368 41.4024C58.6661 41.4148 58.9831 41.8056 58.9831 42.4318C58.9831 46.4999 58.9985 50.5696 58.9831 54.6377C58.9693 55.5863 58.6498 56.5052 58.0722 57.2578C57.4945 58.0104 56.6894 58.5565 55.7766 58.815C55.5766 58.875 55.3796 58.9397 55.1811 59.0027H50.6884C50.2591 58.7027 50.1083 58.295 50.1237 57.7718C50.1529 56.8487 50.1329 55.9255 50.1329 55.0023V53.5329H47.5619C47.5619 53.9191 47.5711 54.2638 47.5619 54.61C47.5413 55.6067 47.189 56.568 46.5605 57.3419C45.9321 58.1158 45.0635 58.658 44.0923 58.8827C43.9846 58.9104 43.883 58.9597 43.7846 58.9981H3.81117C2.6372 58.7012 1.56017 58.2073 0.887788 57.1518C0.503132 56.5609 0.289261 55.8563 0 55.1993ZM47.565 16.8876V20.5449C47.565 21.2357 47.5804 21.9296 47.565 22.6189C47.5465 23.1929 47.1742 23.5498 46.6679 23.5329C46.1864 23.5175 45.8679 23.1652 45.8432 22.6097C45.8432 22.4374 45.8432 22.2651 45.8432 22.0927C45.8432 16.3721 45.8432 10.6526 45.8432 4.93402C45.8432 2.8138 44.7816 1.75984 42.6491 1.75984H4.92359C2.78798 1.75984 1.73557 2.80765 1.73557 4.93248V54.1038C1.73557 56.224 2.79106 57.2718 4.92974 57.2718H42.6521C44.7816 57.2718 45.8402 56.2148 45.8402 54.0915V26.7409C45.8402 26.5501 45.8402 26.3578 45.8402 26.1655C45.8679 25.6346 46.2202 25.2685 46.6926 25.2685C46.9162 25.2728 47.1299 25.3617 47.2906 25.5173C47.4514 25.6729 47.5472 25.8836 47.5588 26.107C47.5706 26.2796 47.5732 26.4527 47.5665 26.6255V41.4486H50.0975V16.8814L47.565 16.8876ZM50.0929 51.7374V43.2503H47.6142V51.7374H50.0929ZM50.0929 15.1043V7.29735H47.608V15.1043H50.0929Z" fill="black"/>
<path d="M36.8346 51.7377H40.5027V20.5683H7.02381V21.2161C7.02381 26.7264 7.02381 32.2357 7.02381 37.744C7.03812 37.9542 7.02831 38.1653 6.99458 38.3733C6.88688 38.8164 6.58222 39.0764 6.12217 39.0564C5.66213 39.0364 5.3821 38.7641 5.30825 38.3071C5.29027 38.1354 5.28615 37.9625 5.29594 37.7901C5.29594 27.4629 5.29594 17.1357 5.29594 6.80843C5.29594 5.75139 5.50981 5.53906 6.58069 5.53906H40.9674C42.0552 5.53906 42.2736 5.76062 42.2736 6.85458V52.1747C42.2736 53.2702 42.0536 53.4918 40.9689 53.4918H6.58069C5.50365 53.4918 5.2944 53.2794 5.2944 52.2239C5.2944 48.8246 5.2944 45.4268 5.2944 42.0306C5.28633 41.8767 5.28993 41.7223 5.30517 41.569C5.3744 41.1074 5.64521 40.8381 6.10679 40.8089C6.56838 40.7797 6.8761 41.0366 6.98996 41.4751C7.02553 41.6632 7.03639 41.8551 7.02227 42.0459C7.02227 45.0606 7.02227 48.0748 7.02227 51.0884V51.7377H10.7319C9.55946 50.1991 9.85026 48.4328 9.83641 46.7264C9.81641 44.0015 9.85795 41.2751 9.81949 38.5502C9.79143 37.2611 10.0799 35.9847 10.6596 34.8329C10.7257 34.699 10.775 34.5559 10.835 34.4082C10.6657 34.3605 10.4611 34.3651 10.3857 34.2682C10.178 34.002 9.91181 33.7066 9.8795 33.4004C9.83488 32.9819 10.1657 32.7157 10.5934 32.6311C10.6882 32.6185 10.784 32.6144 10.8796 32.6188C14.4507 32.6188 18.0234 32.605 21.593 32.6404C21.9547 32.6798 22.2863 32.86 22.5162 33.1419C22.647 33.2958 22.5716 33.7574 22.43 33.9759C22.2885 34.1944 21.9454 34.299 21.6607 34.4744L21.9423 35.0898C22.4184 36.0999 22.6608 37.2043 22.6516 38.3209C22.6254 41.5644 22.63 44.8093 22.6516 48.0527C22.6516 49.3344 22.6085 50.5868 21.7284 51.7239H25.8058C25.7258 51.5958 25.6573 51.4609 25.6011 51.3208C25.3888 50.613 25.0272 49.9052 25.0103 49.1913C24.9457 46.2941 24.9272 43.3922 25.0103 40.4966C25.0826 37.8117 26.1304 35.476 27.8906 33.4481C28.0779 33.2217 28.186 32.9401 28.1983 32.6465C28.2229 30.3632 28.2091 28.0783 28.2137 25.795C28.2137 24.3733 29.0492 23.5425 30.4663 23.5363C31.0602 23.5363 31.6551 23.5363 32.2511 23.5363C33.6604 23.5363 34.4944 24.3687 34.5036 25.8043C34.5174 27.8952 34.5298 29.9893 34.5036 32.0803C34.469 32.7233 34.6902 33.3539 35.1191 33.8343C36.8977 35.9345 37.7347 38.4071 37.7547 41.1489C37.7747 43.7215 37.7547 46.2925 37.7547 48.8651C37.7697 49.8974 37.4466 50.9063 36.8346 51.7377ZM7.06535 7.29155V18.7543H10.6042C8.31933 15.9325 9.16865 12.689 11.0658 11.0473C12.078 10.1401 13.3998 9.65599 14.7585 9.69488C16.654 9.73181 18.1034 10.6181 19.2205 12.1321C20.3883 10.5596 21.8731 9.69027 23.804 9.69488C25.735 9.6995 27.2059 10.5842 28.3337 12.109C30.7724 8.94711 34.1805 9.35331 36.0007 10.6488C37.1047 11.4063 37.8853 12.5496 38.1886 13.8538C38.624 15.677 38.1348 17.2864 36.9577 18.7774H40.5196V7.29925L7.06535 7.29155ZM11.6012 46.5926H20.8653V40.8243H11.6012V46.5926ZM35.9884 46.5926V40.8289H26.7566V46.5987L35.9884 46.5926ZM35.7837 39.0533C35.3883 37.2747 34.6298 35.7714 33.4173 34.5205C33.1971 34.3124 33.0252 34.0585 32.9138 33.7767C32.8024 33.4949 32.7542 33.1921 32.7727 32.8896C32.8142 31.7049 32.785 30.5186 32.785 29.3185H29.9539C29.9539 30.6186 29.9385 31.8818 29.9539 33.145C29.9651 33.3639 29.9285 33.5825 29.8466 33.7858C29.7648 33.989 29.6397 34.172 29.48 34.3221C28.3786 35.4277 27.5691 36.7897 27.1244 38.2856C27.0505 38.5287 27.0105 38.781 26.9474 39.0549L35.7837 39.0533ZM11.6274 39.0426H20.836C20.8631 38.9843 20.8842 38.9235 20.8991 38.861C21.0991 37.2685 20.5037 35.8884 19.7236 34.5667C19.6655 34.5019 19.5943 34.4501 19.5148 34.4149C19.4352 34.3796 19.349 34.3616 19.262 34.3621C17.2474 34.3487 15.2334 34.3487 13.2198 34.3621C13.066 34.3621 12.8506 34.4236 12.7875 34.5313C11.9766 35.9022 11.3304 37.3239 11.6243 39.0426H11.6274ZM32.9081 11.4258C32.4222 11.4226 31.9405 11.5158 31.4911 11.7003C31.0416 11.8847 30.6332 12.1565 30.2896 12.5001C29.9461 12.8437 29.6742 13.252 29.4898 13.7015C29.3054 14.151 29.2121 14.6327 29.2154 15.1185C29.2154 16.0979 29.6044 17.0371 30.2969 17.7297C30.9894 18.4222 31.9287 18.8112 32.9081 18.8112C33.8866 18.8052 34.8234 18.4146 35.5163 17.7236C36.2093 17.0327 36.6026 16.097 36.6115 15.1185C36.6095 14.1379 36.2183 13.1982 35.5239 12.5058C34.8295 11.8135 33.8887 11.425 32.9081 11.4258ZM18.3342 15.0924C18.3344 14.6077 18.2385 14.1278 18.0521 13.6804C17.8656 13.2331 17.5922 12.8271 17.2478 12.4861C16.9033 12.1451 16.4947 11.8758 16.0455 11.6938C15.5963 11.5118 15.1154 11.4207 14.6308 11.4258C13.6533 11.4287 12.7168 11.819 12.0266 12.5112C11.3364 13.2034 10.9488 14.141 10.9488 15.1185C10.959 16.0972 11.355 17.0323 12.0508 17.7206C12.7466 18.4089 13.6859 18.7948 14.6646 18.7943C15.1489 18.7927 15.6281 18.6955 16.0748 18.5084C16.5215 18.3213 16.9269 18.0479 17.2678 17.7039C17.6087 17.3599 17.8783 16.952 18.0613 16.5036C18.2443 16.0552 18.3371 15.5751 18.3342 15.0908V15.0924ZM27.4706 15.0924C27.469 14.6073 27.3714 14.1273 27.1836 13.6801C26.9958 13.2329 26.7214 12.8272 26.3762 12.4864C26.031 12.1456 25.6218 11.8765 25.1722 11.6945C24.7226 11.5125 24.2414 11.4212 23.7563 11.4258C22.7776 11.4315 21.8409 11.8244 21.151 12.5187C20.461 13.2129 20.074 14.1521 20.0744 15.1308C20.0881 16.1097 20.4867 17.0438 21.1838 17.7311C21.8808 18.4184 22.8205 18.8036 23.7994 18.8035C24.7787 18.7958 25.715 18.4002 26.4031 17.7034C27.0912 17.0066 27.4751 16.0655 27.4706 15.0862V15.0924ZM20.8637 48.4051H11.6227C11.3658 50.3899 12.5459 51.7485 14.4815 51.7639C15.6324 51.7721 16.7828 51.7721 17.9326 51.7639C19.9298 51.7547 21.0791 50.4561 20.8637 48.4051ZM26.772 48.3528C26.5258 50.4391 27.6706 51.7516 29.6631 51.7623C30.8324 51.7623 32.0033 51.7731 33.1727 51.7623C34.8759 51.7439 35.9991 50.593 36.0345 48.8959C36.0438 48.4589 35.9068 48.3405 35.4806 48.3451C33.7543 48.3666 32.028 48.3543 30.3016 48.3543L26.772 48.3528ZM32.7727 27.5244C32.7727 26.8828 32.8019 26.2935 32.7542 25.7012C32.727 25.6031 32.6756 25.5135 32.6046 25.4406C32.5336 25.3677 32.4453 25.3139 32.348 25.2842C31.698 25.238 31.0455 25.238 30.3955 25.2842C30.2971 25.3084 30.2065 25.3573 30.1322 25.4262C30.0579 25.4951 30.0024 25.5818 29.9708 25.6781C29.9216 26.2828 29.9493 26.8921 29.9493 27.5244H32.7727ZM19.2097 18.0588L18.6773 18.7743H19.7544L19.2097 18.0588ZM27.8137 18.7558H28.8907L28.3353 18.0758L27.8137 18.7558Z" fill="black"/>
<path d="M31.6356 15.9509C31.3863 15.9509 31.1356 15.9693 30.8894 15.9509C30.684 15.946 30.4888 15.8602 30.3464 15.712C30.204 15.5639 30.126 15.3654 30.1293 15.16C30.1031 14.7076 30.3339 14.3461 30.794 14.2938C31.3444 14.2307 31.9 14.2276 32.4511 14.2845C32.9342 14.3338 33.1942 14.6923 33.1573 15.1754C33.155 15.3796 33.0735 15.5748 32.9299 15.7201C32.7864 15.8653 32.5921 15.9492 32.388 15.9539C32.1403 15.9755 31.8895 15.9539 31.6418 15.9539L31.6356 15.9509Z" fill="black"/>
<path d="M13.3737 15.9494C13.1251 15.9625 12.876 15.9625 12.6275 15.9494C12.4229 15.9438 12.2287 15.8578 12.087 15.7101C11.9454 15.5623 11.8676 15.3648 11.8705 15.1601C11.8428 14.6985 12.0766 14.3492 12.5321 14.2954C13.0824 14.2313 13.638 14.2272 14.1892 14.2831C14.6723 14.3323 14.9185 14.6847 14.8862 15.1755C14.8862 15.3795 14.8051 15.5752 14.6608 15.7195C14.5166 15.8637 14.3209 15.9448 14.1169 15.9448C13.8707 15.9679 13.6199 15.9448 13.3722 15.9448L13.3737 15.9494Z" fill="black"/>
<path d="M22.4823 15.9478C22.2338 15.9617 21.9847 15.9617 21.7361 15.9478C21.5311 15.9367 21.3386 15.8457 21.1997 15.6945C21.0608 15.5433 20.9866 15.3437 20.993 15.1385C20.973 14.7138 21.1991 14.3523 21.6284 14.3061C22.216 14.243 22.8087 14.243 23.3963 14.3061C23.8286 14.3523 24.0487 14.7169 24.0287 15.14C24.0358 15.3453 23.9618 15.5452 23.8227 15.6963C23.6837 15.8475 23.4907 15.9378 23.2855 15.9478C23.018 15.9617 22.7499 15.9617 22.4823 15.9478Z" fill="black"/>
</g>
<defs>
<clipPath id="clip0_96_72">
<rect width="58.9862" height="59" fill="white"/>
</clipPath>
</defs>
</svg>
