<svg width="68" height="68" viewBox="0 0 68 68" fill="none" xmlns="http://www.w3.org/2000/svg">
<g clip-path="url(#clip0_13_231)">
<path d="M48.4764 29.6837L50.1101 31.9022C53.0339 30.665 54.9124 28.6129 55.3546 25.3894C55.5757 23.7795 56.8403 22.9992 58.2473 23.6278C59.0459 23.9842 59.4443 24.6548 59.3767 25.6178C59.0569 30.1863 56.6502 33.2928 52.5661 35.1567C49.5838 36.5199 46.3969 36.8013 43.1807 36.4797C41.1249 36.275 39.091 35.8109 37.0517 35.4436C36.6899 35.3896 36.3428 35.2625 36.0318 35.0699C35.7207 34.8773 35.4522 34.6233 35.2426 34.3234C35.1092 34.1407 34.6432 34.1827 34.1462 34.0859C34.6725 35.365 35.4875 35.9772 36.5711 36.2623C39.3455 37.023 42.195 37.4771 45.0684 37.6163C45.2931 37.6163 45.5179 37.6492 45.7865 37.6712C46.099 39.4382 46.4078 41.1815 46.7221 42.9559H0.412994C0.833289 40.7229 1.24444 38.5117 1.66474 36.3043C2.73679 30.6711 3.8125 25.0373 4.89186 19.403C5.0746 18.4089 5.49125 18.1604 6.41772 18.5715C8.84447 19.6497 11.3955 20.0334 14.0232 20.0005C16.7185 19.9585 19.3963 19.5597 21.9869 18.8145C22.5333 18.6374 23.0978 18.5222 23.6699 18.471C24.0664 18.4527 24.4739 18.6537 24.8741 18.767C29.1721 19.9457 33.5084 20.503 37.9215 19.4669C38.7585 19.2696 39.5662 18.937 40.3867 18.6665C40.5958 18.5788 40.8123 18.5097 41.0335 18.46C42.0952 18.3175 42.1976 18.365 42.3511 19.4212C42.5046 20.4775 42.7421 21.3546 44.0359 21.572C44.5732 21.6634 45.1122 22.0928 45.5289 22.4857C47.1698 24.0621 48.7816 25.6702 50.3641 27.31C51.0658 28.0409 50.7972 28.8907 49.8451 29.2251C49.423 29.3804 48.9917 29.5138 48.4764 29.6837ZM39.917 21.4441C38.6086 21.5318 37.6292 21.6013 36.6497 21.6616C33.9233 21.8334 31.2608 22.3048 28.7536 23.4287C28.1184 23.7297 27.5169 24.0972 26.9592 24.5251C26.8636 24.5827 26.781 24.6594 26.7164 24.7504C26.6518 24.8414 26.6066 24.9447 26.5836 25.0538C26.5607 25.163 26.5604 25.2758 26.5829 25.3851C26.6054 25.4944 26.6501 25.5978 26.7143 25.6891C28.1488 28.008 30.5518 30.0437 33.9306 29.4754C35.2097 29.2598 36.4706 28.781 37.6986 28.3187C39.6192 27.5877 41.4392 27.4726 43.2264 28.7061C44.3886 29.5101 45.6659 29.7879 47.0492 29.1958C47.6242 28.9794 48.2111 28.7964 48.8072 28.6476C49.6861 28.3845 49.7903 28.136 49.328 27.3301C49.2027 27.0863 49.0474 26.8591 48.8656 26.654C47.8843 25.6398 46.9067 24.6201 45.8925 23.6388C44.1346 21.9247 42.0532 21.1298 39.917 21.4441ZM44.8089 33.8428L44.8582 33.7076C44.9261 33.7177 44.995 33.7177 45.0629 33.7076C46.2598 33.3421 47.4695 33.0205 48.6427 32.5947C49.0977 32.4321 49.052 31.9789 48.767 31.6244C48.3668 31.1274 47.9373 30.6541 47.5335 30.1625C47.2813 29.8555 47.0145 29.7714 46.6381 29.9578C45.7043 30.422 44.7778 30.2977 43.8769 29.8482C43.3287 29.5741 42.7805 29.2781 42.2433 28.9912C41.5838 28.6205 40.8427 28.419 40.0863 28.4046C39.33 28.3903 38.5818 28.5635 37.9087 28.9089C37.2733 29.2153 36.6197 29.4826 35.9516 29.7093C32.9401 30.7016 30.1516 30.4805 27.7577 28.1615C27.6874 28.105 27.6046 28.0662 27.5162 28.0484C27.4278 28.0306 27.3364 28.0343 27.2497 28.0592C26.8842 28.273 26.4639 28.4996 26.2282 28.834C26.0455 29.0971 25.9267 29.6344 26.0729 29.8665C27.4343 32.0264 29.2434 33.5614 31.9406 33.7039C33.7387 33.799 35.4016 33.2745 37.0389 32.5929C39.0819 31.7432 41.0591 31.7578 42.9377 33.1082C43.4676 33.4828 44.1803 33.6034 44.8089 33.8428Z" fill="#5A1305"/>
<path d="M23.6827 59.627H1.90412C0.385579 59.627 -0.00730144 59.2506 8.03197e-06 57.7357C0.014627 53.746 0.0383743 49.758 0.0712669 45.7719C0.0804037 44.469 0.451369 44.1182 1.75976 44.1182H45.4558C46.8903 44.1182 47.2831 44.5074 47.2831 45.9455C47.2929 49.9548 47.302 53.9646 47.3106 57.9751C47.3106 59.2031 46.9067 59.6197 45.6751 59.6197C38.3424 59.627 31.0117 59.6295 23.6827 59.627Z" fill="#5A1305"/>
<path d="M51.095 30.1425C51.095 27.9935 50.9123 25.8865 51.1371 23.8253C51.4733 20.7443 54.2436 18.6575 57.4415 18.7872C60.3433 18.9042 62.8249 21.2925 63.0643 24.2437C63.1392 25.1574 63.1209 26.0711 63.1209 26.9848C63.1209 31.8383 63.1209 36.6918 63.1209 41.5453C63.1209 42.839 62.9382 44.0835 62.2072 45.2C62.1024 45.397 62.0639 45.6226 62.0976 45.8432C62.7938 51.4679 64.2301 56.8732 66.9292 61.8966C67.1338 62.2767 67.3659 62.644 67.5687 63.026C68.4039 64.5865 67.9744 66.2951 66.5436 67.1339C65.0634 68.0019 63.2543 67.5341 62.326 66.0174C60.0007 62.1462 58.301 57.9322 57.2898 53.531C56.8969 51.8717 56.6137 50.1869 56.3012 48.5094C56.2318 48.1439 56.1075 47.9429 55.6963 47.8369C52.7981 47.095 51.0128 44.798 50.9854 41.8212C50.9708 40.4086 51.0201 38.9943 50.9635 37.5835C50.9397 36.9567 51.1901 36.7557 51.7346 36.5529C56.1203 34.9247 59.0313 31.9296 60.188 27.3503C60.334 26.7516 60.4155 26.1389 60.431 25.5229C60.4932 23.7522 59.267 22.4694 57.4597 22.3597C55.7749 22.2556 54.4537 23.4159 54.2746 25.1574C54.0663 27.2096 53.0996 28.8122 51.4057 29.9798C51.3052 30.0397 51.2015 30.094 51.095 30.1425Z" fill="#5A1305"/>
<path d="M6.27153 17.3619H5.11298C5.09836 17.1627 5.07095 16.9671 5.07095 16.7716C5.07095 11.6879 5.07095 6.60475 5.07095 1.52224C5.07095 0.522667 5.50587 0.00917641 6.33184 0.00186694C7.06278 0.00186694 7.55617 0.438608 7.61099 1.22986C7.64937 1.76893 7.61099 2.31349 7.61099 2.90007H39.6082C39.6082 2.4816 39.6082 2.05766 39.6082 1.63371C39.6082 0.537286 40.0468 -0.010925 40.9038 3.91782e-05C41.7608 0.0110034 42.183 0.548249 42.183 1.66294C42.183 4.83038 42.183 7.99782 42.183 11.1653V17.413C42.0203 17.4491 41.8555 17.4747 41.6896 17.4898C40.7759 17.5208 40.7996 17.5154 40.6882 16.5871C40.5182 15.1617 40.3227 13.74 40.1016 12.3238C40.0684 12.2041 40.0083 12.0935 39.926 12.0004C39.8437 11.9073 39.7412 11.8342 39.6265 11.7866C34.7657 10.3027 29.8903 10.1785 25.0075 11.6897C24.6421 11.8012 24.5141 11.9693 24.5196 12.3604C24.5434 14.005 24.5288 15.6496 24.5288 17.3363H22.4967V16.09C22.4967 14.8584 22.4766 13.6267 22.5059 12.3969C22.5059 11.9803 22.367 11.803 21.9796 11.6842C17.1206 10.1712 12.2689 10.2863 7.4118 11.6988C6.9641 11.8304 6.944 12.1356 6.90014 12.4663C6.68817 14.0726 6.48716 15.677 6.27153 17.3619Z" fill="#5A1305"/>
<path d="M50.7972 11.7738C50.796 10.9907 50.9493 10.2151 51.2485 9.49148C51.5476 8.76783 51.9867 8.11035 52.5405 7.55674C53.0943 7.00313 53.7519 6.56427 54.4756 6.26534C55.1994 5.9664 55.975 5.81326 56.758 5.81471C58.3278 5.82338 59.8306 6.45207 60.9389 7.5638C62.0472 8.67552 62.6712 10.1802 62.675 11.75C62.6777 12.5331 62.5252 13.309 62.2263 14.0328C61.9274 14.7566 61.4881 15.414 60.9337 15.9671C60.3793 16.5201 59.7208 16.9578 58.9962 17.2549C58.2717 17.5521 57.4954 17.7027 56.7123 17.6981C55.1426 17.6961 53.6377 17.0711 52.5286 15.9602C51.4194 14.8493 50.7967 13.3435 50.7972 11.7738Z" fill="#5A1305"/>
<path d="M52.1658 47.347C53.1691 47.8532 54.1577 48.3375 55.1298 48.8546C55.2794 48.9705 55.3804 49.1379 55.4131 49.3243C56.0222 51.8655 56.6179 54.4098 57.2002 56.9572C57.2383 57.1337 57.2573 57.3138 57.2569 57.4944C57.2715 59.8133 57.2569 62.1323 57.3026 64.4494C57.3592 66.8706 54.9983 68.4403 52.884 67.3348C52.4051 67.1049 52.0007 66.7447 51.7172 66.2954C51.4337 65.8461 51.2827 65.326 51.2814 64.7948C51.2047 62.273 51.0621 59.7421 51.1973 57.2258C51.3673 54.0261 51.7839 50.83 52.0982 47.6449C52.113 47.544 52.1356 47.4444 52.1658 47.347Z" fill="#5A1305"/>
<path d="M42.1848 60.9299H45.6129C45.5581 61.6316 45.5873 62.3352 45.4302 62.9967C45.2584 63.7276 44.4397 64.1534 43.6503 64.0566C43.2863 64.0131 42.9469 63.8501 42.6854 63.5932C42.4238 63.3363 42.2548 62.9999 42.2049 62.6367C42.1893 62.5008 42.182 62.3641 42.1829 62.2274C42.1829 61.8217 42.1848 61.4142 42.1848 60.9299Z" fill="#5A1305"/>
<path d="M4.70732 60.9573C4.70732 61.564 4.76945 62.1359 4.6927 62.6878C4.56844 63.5759 3.83384 64.1186 2.94757 64.0729C2.5337 64.0572 2.14102 63.8858 1.84799 63.5931C1.55496 63.3004 1.38315 62.9079 1.36689 62.4941C1.33948 61.9989 1.36689 61.5 1.36689 60.9573H4.70732Z" fill="#5A1305"/>
</g>
<defs>
<clipPath id="clip0_13_231">
<rect width="68" height="67.6948" fill="white"/>
</clipPath>
</defs>
</svg>
