<svg width="54" height="64" viewBox="0 0 54 64" fill="none" xmlns="http://www.w3.org/2000/svg">
<g clip-path="url(#clip0_93_27)">
<path d="M14.5404 64.0004C14.1574 63.6665 13.7991 63.3226 14.0276 62.7366C14.256 62.1505 14.731 62.1205 15.2487 62.1222C18.8249 62.1288 22.4006 62.1288 25.9757 62.1222C27.6603 62.1222 28.487 61.2957 28.4853 59.6078C28.4722 46.2511 28.4579 32.8984 28.4426 19.5495V18.8884H25.4416C25.3183 19.8517 25.2575 20.8084 25.0685 21.7384C24.5755 24.1926 23.1834 26.0475 21.1406 27.4149C18.5439 29.1413 15.6316 30.0662 12.6372 30.7541C9.91723 31.3818 7.19069 31.9862 4.47072 32.6173C2.81409 32.993 1.87236 34.1984 1.85593 35.9181C1.84607 36.813 1.85593 37.7096 1.85593 38.6045C1.85593 39.2873 1.49436 39.703 0.942151 39.703C0.38994 39.703 0.011944 39.2773 0.0135875 38.6045C0.0135875 37.4357 -0.0373669 36.267 0.0891814 35.1117C0.29133 33.2251 1.34645 31.9111 3.03102 31.0913C3.13455 31.0348 3.22421 30.9554 3.29335 30.8588C3.36249 30.7623 3.40933 30.6512 3.43039 30.5337C3.45504 27.1378 3.44683 23.7435 3.44519 20.3493C3.43444 20.2565 3.41797 20.1645 3.39587 20.0738C3.06718 20.0738 2.72863 20.0738 2.38843 20.0738C0.884637 20.022 -0.0275052 19.0353 0.110548 17.521C0.373505 14.6527 1.42534 12.0899 3.1132 9.77915C3.3119 9.50135 3.42617 9.17052 3.4419 8.82749C3.47477 7.28647 3.44189 5.74545 3.45833 4.20443C3.47476 1.77018 5.18892 0.013782 7.5769 0.0104428C13.4529 0.000425318 19.3295 0.000425318 25.2066 0.0104428C27.6389 0.0104428 29.3367 1.75515 29.3482 4.23448C29.3482 5.7371 29.3482 7.23972 29.3482 8.82749H30.1584C36.8162 8.82749 43.4706 8.87424 50.1317 8.80245C52.5476 8.77574 54.1418 10.472 53.9972 12.7694C53.9446 13.6042 53.9972 14.439 53.9873 15.2737C53.9544 17.2438 52.6544 18.7214 50.7135 18.7849C47.9836 18.8633 45.2489 18.8233 42.5158 18.8116C41.8584 18.8116 41.5017 18.4376 41.4984 17.885C41.4984 17.3056 41.8715 16.955 42.5651 16.9533C45.0714 16.9433 47.5793 16.9533 50.0857 16.9533C51.6026 16.9533 52.1318 16.4157 52.1334 14.8931C52.1334 14.08 52.1417 13.2686 52.1334 12.4555C52.1186 11.3269 51.5286 10.7158 50.4176 10.7074C48.4652 10.6941 46.5127 10.7074 44.5603 10.7074H15.768C15.2947 10.7074 14.7244 10.639 14.5469 11.1916C14.3826 11.6925 14.4171 12.2752 14.3563 12.8862H32.7633C32.9683 12.8725 33.174 12.8781 33.378 12.9029C33.8546 12.9964 34.1537 13.2836 34.1636 13.7978C34.1751 14.3404 33.8743 14.6476 33.3681 14.7462C33.1641 14.7704 32.9584 14.7754 32.7535 14.7612H14.5108C14.4483 14.843 14.427 14.8563 14.4253 14.873C14.2478 16.7096 14.4746 16.9567 16.2693 16.9567H37.4127C37.6182 16.9567 37.8253 16.9567 38.029 16.9567C38.6339 16.9934 38.9872 17.3307 38.9954 17.8666C39.0036 18.4025 38.6667 18.7932 38.0603 18.8082C36.7455 18.84 35.4307 18.8249 34.1159 18.8266C32.8685 18.8266 31.6195 18.8266 30.2915 18.8266V19.6781C30.3063 32.801 30.2915 45.9256 30.3605 59.0485C30.372 61.4109 29.6045 63.2541 26.993 64.0004H14.5404ZM27.491 8.75737C27.491 7.2247 27.491 5.70705 27.491 4.19107C27.4828 2.79029 26.5937 1.88872 25.2115 1.88037C23.711 1.88037 22.2105 1.88037 20.7116 1.88037C16.3542 1.88037 11.9979 1.88037 7.64264 1.88037C6.19309 1.88037 5.31218 2.78528 5.30068 4.26119C5.30068 4.69862 5.30068 5.13605 5.30068 5.57348V7.35158C6.21117 6.75221 7.02305 6.18288 7.86288 5.67032C8.53013 5.2596 9.06426 5.35644 9.36173 5.87067C9.6592 6.3849 9.45048 6.86073 8.79144 7.29315C7.99928 7.81239 7.18411 8.31326 6.47248 8.93268C3.93823 11.1382 2.46731 13.9548 1.98742 17.3006C1.86744 18.1354 1.92825 18.1922 2.69247 18.1972C3.18551 18.1972 3.67856 18.1972 4.1716 18.1972C5.03279 18.1972 5.03279 18.1972 5.16756 17.3307C5.87097 12.8094 9.82683 9.09463 14.3481 8.88259C17.1979 8.74902 20.0592 8.83417 22.9156 8.82248H23.5335C23.4257 8.61102 23.2682 8.42981 23.075 8.2949C20.0526 6.07102 16.6966 5.22955 13.002 5.80889C12.3184 5.91408 11.8319 5.6219 11.7415 5.04423C11.6593 4.50996 12.0127 4.07754 12.6898 3.97402C17.7665 3.19433 22.153 4.64186 25.8245 8.26318C26.3077 8.74735 26.7679 8.92266 27.491 8.75737ZM7.09865 17.1019C7.01319 17.5711 6.95074 17.8666 6.90637 18.1638C6.79132 18.9168 6.41332 19.4994 5.73291 19.8083C5.35491 19.9753 5.29082 20.1973 5.29246 20.568C5.30561 23.1909 5.29246 25.8155 5.29246 28.4384V30.4853C6.60725 30.1881 7.86945 29.9093 9.12672 29.6204C11.9469 28.9743 14.7951 28.4384 17.4674 27.2563C18.9235 26.6119 20.3188 25.8722 21.4578 24.7186C22.4778 23.7026 23.1383 22.3724 23.3363 20.9353C20.6475 23.3962 17.6252 24.3195 14.2002 23.5248C10.7751 22.7301 8.49397 20.5129 7.09865 17.1019ZM12.5567 11.1966C11.4522 11.4037 9.94845 12.4054 8.92621 13.5457C8.75193 13.7189 8.62249 13.9331 8.54937 14.1693C8.47625 14.4055 8.46174 14.6565 8.50712 14.8998C9.07083 18.2105 10.8787 20.5246 14.0325 21.5297C17.165 22.5314 19.9491 21.7166 22.2499 19.3241C22.3814 19.1652 22.5027 18.9979 22.6132 18.8233H21.8161C19.7206 18.8233 17.6252 18.8416 15.5297 18.8233C13.6479 18.7999 12.56 17.6546 12.555 15.7646C12.5501 14.2386 12.555 12.7193 12.555 11.1966H12.5567Z" fill="black"/>
<path d="M3.31819 64C3.20808 63.9549 3.09961 63.8982 2.98949 63.8648C1.20467 63.3322 0.0213633 61.8296 0.0147894 59.9479C-0.00657593 54.4066 0.00328498 48.8669 0.0147894 43.3256C0.0147894 42.6311 0.364847 42.2304 0.923632 42.2203C1.51529 42.2087 1.85878 42.611 1.85878 43.349C1.85878 48.7439 1.85878 54.1389 1.85878 59.5339C1.85878 61.3003 2.68052 62.1251 4.43083 62.1251C6.36193 62.1251 8.29303 62.1251 10.2258 62.1251C10.7583 62.1251 11.2365 62.2002 11.4272 62.7712C11.6178 63.3422 11.3006 63.7195 10.8454 64.005L3.31819 64Z" fill="black"/>
<path d="M12.0582 40.2919C11.4008 41.3421 10.607 42.045 9.47632 42.2954C8.89288 42.424 8.38505 42.1635 8.25028 41.6593C8.11059 41.1284 8.3834 40.6793 8.99807 40.504C9.65546 40.317 10.1485 39.9664 10.423 39.3253C10.5692 38.9913 10.5035 38.7676 10.1436 38.6574C9.92828 38.5923 9.71299 38.5205 9.49605 38.4587C8.5379 38.1816 8.18126 37.6724 8.14017 36.6456C8.06293 34.6888 8.34231 33.8758 10.7517 33.9743C12.9457 34.0544 15.1463 33.9659 17.3437 34.006C18.9116 34.0344 20.0768 34.8191 20.8246 36.2048C21.482 37.4052 21.1878 38.5422 20.0456 39.2885C19.2238 39.8278 18.5911 40.5057 18.3396 41.4857C18.3001 41.6565 18.3181 41.8357 18.3906 41.9949C19.5065 44.2405 20.6685 46.4627 21.7515 48.725C22.4089 50.1091 22.3087 51.6251 22.0999 53.0826C21.9159 54.3749 20.7572 55.2531 19.4506 55.2531C16.7608 55.272 14.0699 55.272 11.3778 55.2531C9.86582 55.2397 8.72196 54.0543 8.63157 52.5183C8.52639 50.7168 8.77949 49.0222 9.69162 47.4144C10.6925 45.6496 11.575 43.8164 12.4675 41.9916C12.76 41.3822 12.2867 40.8963 12.0582 40.2919ZM15.4011 53.3748C16.6945 53.3748 17.9879 53.3748 19.2814 53.3748C19.7925 53.3748 20.2674 53.1761 20.2937 52.6652C20.3693 51.5349 20.5271 50.3745 19.993 49.2927C19.0759 47.4344 18.1621 45.5728 17.2221 43.7279C17.1601 43.635 17.0788 43.5569 16.984 43.4992C16.8892 43.4415 16.7831 43.4056 16.6731 43.394C15.8744 43.3556 15.0724 43.394 14.272 43.369C14.1226 43.3492 13.971 43.3822 13.8426 43.4625C13.7143 43.5427 13.6169 43.6653 13.567 43.8098C12.8504 45.2807 12.1618 46.7699 11.3713 48.1974C10.6803 49.4101 10.3685 50.8076 10.4772 52.2044C10.5364 53.0392 10.8223 53.3731 11.649 53.3731C12.8964 53.3798 14.1488 53.3748 15.4011 53.3748ZM16.4217 41.4807C16.5737 40.696 16.8864 39.9526 17.3394 39.2986C17.7924 38.6445 18.3756 38.0945 19.0513 37.6841C19.1795 37.6023 19.2386 37.1832 19.1532 37.0162C18.7324 36.2132 18.029 35.8475 17.1333 35.8475C14.8998 35.8475 12.6647 35.8475 10.4312 35.8475C10.3046 35.8603 10.1793 35.8838 10.0565 35.9176C9.86747 36.4736 10.0992 36.6907 10.5775 36.8443C11.5767 37.1632 12.4675 37.7291 13.0624 38.5957C13.6573 39.4622 14.0978 40.4489 14.6599 41.4857L16.4217 41.4807Z" fill="black"/>
<path d="M15.2516 58.9996C13.4865 58.9996 11.7214 58.9996 9.95625 58.9996C9.23147 58.9996 8.8058 58.6573 8.79101 58.0847C8.77622 57.512 9.21339 57.1263 9.97103 57.1263C13.5034 57.1263 17.0342 57.1263 20.5633 57.1263C21.3078 57.1263 21.7039 57.4486 21.7137 58.0396C21.7236 58.6306 21.316 58.9979 20.5452 58.9996C18.7818 59.003 17.0167 58.9996 15.2516 58.9996Z" fill="black"/>
</g>
<defs>
<clipPath id="clip0_93_27">
<rect width="54" height="64" fill="white"/>
</clipPath>
</defs>
</svg>
