<svg width="65" height="70" viewBox="0 0 65 70" fill="none" xmlns="http://www.w3.org/2000/svg">
<g clip-path="url(#clip0_93_52)">
<path d="M57.6423 63.4072C57.4766 64.4479 57.309 65.4049 57.1731 66.3674C56.8566 68.6015 55.6148 69.7037 53.3881 69.7186C51.2732 69.7186 49.16 69.7186 47.0469 69.7186C44.6955 69.7186 43.4686 68.043 43.4016 65.7605C43.3848 65.1815 43.7739 64.7998 44.3455 64.7272C44.5902 64.6836 44.8423 64.734 45.0515 64.8683C45.2607 65.0025 45.4115 65.2108 45.4737 65.4514C45.552 65.7658 45.6142 66.0839 45.6599 66.4047C45.8256 67.1792 46.2184 67.5627 46.9948 67.5701C49.2016 67.5887 51.4078 67.5887 53.6134 67.5701C54.4028 67.5701 54.818 67.1978 54.9539 66.427C55.1289 65.4514 55.2722 64.4703 55.4361 63.4482H9.56204C9.73333 64.5205 9.87482 65.5538 10.0722 66.5759C10.1988 67.235 10.6866 67.559 11.3326 67.5627C13.5667 67.5801 15.7965 67.5801 18.0219 67.5627C18.7666 67.5627 19.1576 67.1903 19.3252 66.4456C19.4071 66.0844 19.4313 65.7009 19.5318 65.3528C19.5819 65.0965 19.731 64.8704 19.9467 64.7233C20.1624 64.5762 20.4274 64.5201 20.6843 64.5671C21.2521 64.6397 21.6375 65.0139 21.6151 65.6041C21.5425 67.8792 20.4739 69.741 17.8227 69.7167C15.732 69.6981 13.6412 69.7167 11.5504 69.7167C9.40752 69.7074 8.14896 68.5904 7.82687 66.4531C7.68165 65.4682 7.51782 64.4852 7.35026 63.4146H6.24623C2.52269 63.4146 -0.00373741 60.8864 -0.00746095 57.1554C-0.014908 48.6074 -0.014908 40.0587 -0.00746095 31.5095C-0.00746095 23.2395 -0.00746095 14.9695 -0.00746095 6.69954C-0.00746095 3.57363 1.90644 1.19614 4.86107 0.626441C5.34219 0.547836 5.82965 0.514799 6.31698 0.527768C23.7605 0.527768 41.2041 0.527768 58.6476 0.527768C61.9318 0.527768 64.3335 2.41747 64.8957 5.44284C64.9687 5.92514 64.998 6.41304 64.9832 6.90061C64.9832 23.6032 64.9832 40.3057 64.9832 57.0083C64.9832 60.9329 62.5052 63.4147 58.5992 63.4165L57.6423 63.4072ZM32.4302 61.242C41.0949 61.242 49.7595 61.242 58.4242 61.242C58.9572 61.2608 59.4905 61.2146 60.0123 61.1042C61.8108 60.6555 62.8589 59.1456 62.8589 57.0697C62.8589 40.3424 62.8589 23.6143 62.8589 6.88572C62.8589 6.74608 62.8589 6.60645 62.8589 6.46868C62.7714 4.31833 61.2336 2.76934 59.087 2.6688C58.9008 2.65949 58.7146 2.6688 58.5285 2.6688C41.1768 2.6688 23.8244 2.67563 6.4715 2.68928C5.68639 2.6758 4.90787 2.83468 4.19083 3.15473C2.67907 3.88826 2.14288 5.24736 2.14288 6.8913C2.15157 23.2749 2.15157 39.6541 2.14288 56.029C2.14288 56.5168 2.12985 57.0064 2.14288 57.4942C2.20804 59.1289 3.16686 60.5308 4.65256 61.0055C5.27654 61.1821 5.92382 61.2625 6.57204 61.2438C15.1933 61.2525 23.8127 61.2519 32.4302 61.242Z" fill="black"/>
<path d="M8.0112 25.3544V38.4706H10.8318C12.2225 38.4706 12.5074 38.7517 12.5074 40.1462C12.5074 42.8644 12.5074 45.5826 12.5074 48.3008C12.5074 49.7529 12.2411 50.0229 10.8169 50.0229H8.00003C8.00003 51.3094 7.94604 52.5382 8.01865 53.7576C8.07077 54.6289 8.8099 55.247 9.69424 55.3569C9.9714 55.3839 10.2499 55.3951 10.5283 55.3904C25.1643 55.3904 39.7991 55.3904 54.4326 55.3904C54.7342 55.396 55.0359 55.3811 55.3355 55.3457C55.7306 55.2962 56.0988 55.1193 56.3843 54.8418C56.6698 54.5643 56.8572 54.2014 56.9181 53.8079C56.965 53.4631 56.9849 53.1151 56.9776 52.7672C57.0012 38.851 57.0223 24.9343 57.0409 11.017C57.0409 9.17566 56.3726 8.51101 54.5201 8.50915L10.8262 8.46633C10.64 8.46633 10.4538 8.46633 10.2677 8.46633C8.89368 8.4775 8.2793 8.99693 8.04658 10.3467C7.90694 11.1454 7.47315 11.5252 6.80105 11.4359C6.18667 11.3539 5.85341 10.8661 5.89251 10.0954C5.99677 7.94317 7.83992 6.28433 10.1746 6.28247C15.3317 6.28247 20.4882 6.28744 25.644 6.29737C35.3252 6.31722 45.012 6.33708 54.7044 6.35694C56.0523 6.35694 57.2197 6.69951 58.1468 7.71231C58.9641 8.60782 59.2173 9.68206 59.2136 10.8624C59.1913 15.3468 59.1782 19.8306 59.1745 24.3137C59.1596 33.8869 59.1472 43.4589 59.1373 53.0297C59.1373 55.9005 57.4617 57.5612 54.5853 57.5612H10.3924C7.45639 57.5612 5.79756 55.9154 5.80315 52.998C5.82176 40.4286 5.84348 27.8598 5.8683 15.2916C5.8683 14.1447 6.20343 13.8171 7.37448 13.8152C8.62931 13.8152 9.88228 13.8152 11.1371 13.8152C12.1145 13.8152 12.4981 14.1875 12.5018 15.1631C12.513 18.1146 12.513 21.0655 12.5018 24.0158C12.5018 24.9877 12.1108 25.3507 11.1353 25.3563C10.1187 25.36 9.10034 25.3544 8.0112 25.3544ZM10.29 23.1482V16.0512H8.05588V23.1482H10.29ZM8.07264 40.688V47.8111H10.3068V40.688H8.07264Z" fill="black"/>
<path d="M43.9769 41.0287C42.8859 41.0287 41.7949 41.0287 40.7039 41.0287C39.6129 41.0287 39.1921 40.5223 39.3802 39.4406C39.6501 37.8395 39.9089 36.2365 40.2087 34.6335C40.256 34.4723 40.2522 34.3003 40.1979 34.1413C40.1435 33.9823 40.0413 33.844 39.9052 33.7454C38.9315 32.8871 38.262 31.7365 37.9969 30.4659C37.7317 29.1952 37.8852 27.8729 38.4344 26.6968C39.5738 24.2616 42.0704 22.9174 44.837 23.2767C47.3095 23.5913 49.4524 25.6374 49.8768 28.1899C50.2343 30.3552 49.5938 32.2318 47.9778 33.7343C47.6762 34.0154 47.5533 34.2388 47.6353 34.6745C47.9499 36.3128 48.2068 37.9642 48.4805 39.61C48.6239 40.4701 48.1994 41.0101 47.3169 41.0305C46.1998 41.0547 45.0828 41.0305 43.9769 41.0305V41.0287ZM41.6925 38.7946H46.1477L45.7493 36.458C45.6208 35.704 45.5128 34.9444 45.3583 34.196C45.2038 33.4476 45.3974 32.8927 46.103 32.4366C46.7973 31.9846 47.324 31.3172 47.6025 30.537C47.8809 29.7568 47.8957 28.9067 47.6446 28.1173C47.3998 27.3223 46.9078 26.6261 46.2402 26.1299C45.5725 25.6336 44.764 25.3633 43.9322 25.3582C43.1029 25.3586 42.2952 25.6227 41.6259 26.1123C40.9565 26.6019 40.4602 27.2917 40.2087 28.0819C39.9493 28.8721 39.9574 29.7256 40.2316 30.5107C40.5059 31.2958 41.0311 31.9687 41.726 32.4254C42.4856 32.9151 42.629 33.4829 42.4707 34.3096C42.171 35.7841 41.9513 37.2754 41.6981 38.8001L41.6925 38.7946Z" fill="black"/>
</g>
<defs>
<clipPath id="clip0_93_52">
<rect width="65" height="69.1983" fill="white" transform="translate(0 0.516602)"/>
</clipPath>
</defs>
</svg>
