<svg width="61" height="52" viewBox="0 0 61 52" fill="none" xmlns="http://www.w3.org/2000/svg">
<g clip-path="url(#clip0_13_238)">
<path d="M30.0902 46.5247H4.5639C1.66178 46.5247 -0.00513802 44.8561 -0.0068512 41.9488V4.57075C-0.0068512 1.67891 1.6772 0 4.57589 0C21.5934 0 38.607 0 55.6165 0C58.5512 0 60.2181 1.67377 60.2181 4.61701C60.2181 17.0547 60.2181 29.4923 60.2181 41.93C60.2181 44.8766 58.5615 46.5247 55.6028 46.5247H30.0902ZM30.0731 41.0425C37.6819 41.0425 45.2901 41.0425 52.8977 41.0425C54.3231 41.0425 54.7411 40.6262 54.7411 39.2197C54.7411 28.598 54.7411 17.9763 54.7411 7.35466C54.7411 5.9036 54.3196 5.47873 52.8789 5.47873H7.35809C5.90531 5.47873 5.48387 5.89846 5.48387 7.34095V39.1375C5.48387 40.6417 5.8762 41.0374 7.37694 41.0374C14.9423 41.042 22.5077 41.0431 30.0731 41.0408V41.0425Z" fill="#5A1305"/>
<path d="M3.082 49.2692H13.4416C12.8197 50.7562 11.8175 51.7259 10.3133 51.8886C8.91352 52.0248 7.50383 52.0248 6.10404 51.8886C4.64271 51.7618 3.28929 50.4701 3.082 49.2692Z" fill="#5A1305"/>
<path d="M57.22 49.2864C56.6513 50.7169 55.6559 51.7054 54.1569 51.8767C52.7175 52.0429 51.2637 52.0429 49.8243 51.8767C48.3732 51.7054 47.3967 50.7357 46.7851 49.2898L57.22 49.2864Z" fill="#5A1305"/>
<path d="M8.25749 8.24719H51.976V38.2826H8.25749V8.24719ZM25.2813 16.5921C24.6457 15.9291 24.0393 15.2695 23.3968 14.6356C22.7115 13.9504 21.8909 13.9092 21.3085 14.5157C20.7551 15.093 20.8099 15.9017 21.4798 16.5595C22.1496 17.2174 22.8024 17.8136 23.4345 18.4029C21.401 22.2473 21.401 23.6915 23.4071 28.2125C22.8075 28.7813 22.1599 29.3689 21.5415 29.9874C20.8733 30.6555 20.839 31.4367 21.4164 32.0261C21.9937 32.6154 22.7869 32.5691 23.4585 31.9198C23.9981 31.4059 24.5052 30.8491 25.0637 30.354C25.1517 30.2892 25.2539 30.2464 25.3618 30.2291C25.4697 30.2118 25.5801 30.2206 25.6839 30.2546C28.6477 31.9849 31.5927 31.9781 34.553 30.2546C34.6475 30.2188 34.7492 30.2065 34.8495 30.2188C34.9498 30.231 35.0456 30.2674 35.1286 30.3249C35.6991 30.8388 36.2131 31.4145 36.7853 31.9284C37.0326 32.1582 37.3327 32.3235 37.659 32.4098C38.2363 32.5349 38.7092 32.2745 39.0107 31.7674C39.172 31.5231 39.244 31.2307 39.2147 30.9395C39.1853 30.6483 39.0564 30.3761 38.8497 30.169C38.2038 29.4375 37.5357 28.7282 36.8795 28.0121C37.8544 26.6192 38.3766 24.9599 38.3751 23.2597C38.3751 21.5277 37.8423 19.9567 36.8487 18.4629C37.5339 17.7947 38.2055 17.1608 38.8634 16.5218C39.278 16.1192 39.4664 15.6395 39.2951 15.0691C38.997 14.0823 37.82 13.7842 37.0268 14.5088C36.2919 15.1821 35.5826 15.8794 34.8785 16.5647C31.6732 14.5722 28.5363 14.5757 25.2813 16.5921ZM10.9677 23.2854C10.9677 24.5875 10.9677 25.8895 10.9677 27.1915C10.9677 28.1474 11.4817 28.7145 12.3109 28.7196C13.14 28.7248 13.6814 28.1286 13.6814 27.1504C13.6814 24.5692 13.6814 21.9874 13.6814 19.4051C13.6814 18.4354 13.1418 17.8067 12.328 17.7981C11.5142 17.7896 10.966 18.408 10.9575 19.3811C10.9609 20.6831 10.9677 21.9851 10.9677 23.2854Z" fill="#5A1305"/>
<path d="M30.0662 28.7248C29.3423 28.7265 28.6252 28.5844 27.9566 28.3066C27.2881 28.0289 26.6814 27.6211 26.1718 27.1069C25.6622 26.5927 25.2598 25.9824 24.988 25.3114C24.7162 24.6404 24.5805 23.9221 24.5887 23.1981C24.5968 22.4742 24.7488 21.7592 25.0356 21.0945C25.3224 20.4298 25.7385 19.8287 26.2596 19.3261C26.7807 18.8236 27.3964 18.4296 28.0711 18.167C28.7457 17.9044 29.4658 17.7785 30.1896 17.7965C33.1859 17.8308 35.6443 20.3491 35.5912 23.3266C35.5722 24.7744 34.98 26.1557 33.9444 27.1676C32.9087 28.1795 31.5141 28.7395 30.0662 28.7248ZM30.1399 24.6132C30.4952 24.6088 30.8345 24.4653 31.0853 24.2136C31.336 23.9619 31.4782 23.6219 31.4813 23.2667C31.4824 22.9032 31.3391 22.5541 31.0829 22.2963C30.8267 22.0385 30.4785 21.893 30.115 21.8918C29.7516 21.8907 29.4025 22.034 29.1447 22.2902C28.8868 22.5465 28.7414 22.8946 28.7402 23.2581C28.7404 23.44 28.777 23.6199 28.8479 23.7874C28.9188 23.9548 29.0226 24.1064 29.1531 24.233C29.2836 24.3597 29.4381 24.4589 29.6076 24.5248C29.7771 24.5907 29.9581 24.6219 30.1399 24.6166V24.6132Z" fill="#5A1305"/>
</g>
<defs>
<clipPath id="clip0_13_238">
<rect width="60.2267" height="52" fill="white"/>
</clipPath>
</defs>
</svg>
