<svg width="60" height="60" viewBox="0 0 60 60" fill="none" xmlns="http://www.w3.org/2000/svg">
<g clip-path="url(#clip0_92_14)">
<path d="M6.80478 60C6.15468 59.8106 5.4767 59.6859 4.86182 59.4128C1.88574 58.1225 0.271492 55.8326 0.019083 52.6002C-0.0601617 51.5521 0.415312 51.0882 1.47338 51.0868C3.82137 51.0868 6.16446 51.0868 8.50267 51.0868H9.17479C8.37941 50.3278 7.63978 49.6761 6.96033 48.9671C2.35093 44.1684 0.0631129 38.42 0.00588059 31.7806C-0.0205343 28.5394 0.00588059 25.2968 0.00588059 22.0541C0.00588059 20.9634 0.434384 20.5304 1.53207 20.5289C4.30466 20.5231 7.07724 20.5231 9.84983 20.5289C10.0834 20.5271 10.3163 20.5557 10.5425 20.6141C10.7874 20.6874 11.0009 20.8405 11.149 21.049C11.297 21.2574 11.3713 21.5094 11.3599 21.7649C11.3441 22.02 11.2444 22.2627 11.0764 22.4551C10.9084 22.6476 10.6815 22.7791 10.431 22.8292C10.1991 22.8618 9.96496 22.8745 9.73096 22.8673C7.50429 22.8673 5.27858 22.8673 3.05386 22.8673H2.38615C2.37148 23.0905 2.35093 23.2593 2.35093 23.4281C2.35093 26.2172 2.29517 29.015 2.35974 31.8055C2.54562 40.0083 6.08571 46.3488 12.98 50.8269C13.2415 50.986 13.5412 51.0712 13.8473 51.0735C21.0116 51.0872 28.1764 51.0872 35.3417 51.0735C35.6665 51.0717 35.9848 50.9824 36.2633 50.8152C42.2756 46.9942 45.7418 41.5335 46.7118 34.4772C46.8249 33.547 46.8778 32.6104 46.8703 31.6734C46.8894 28.9592 46.8703 26.2421 46.8703 23.5294V22.8762H23.3053C23.0519 22.8833 22.7983 22.872 22.5466 22.8424C22.2843 22.8 22.0446 22.6683 21.8681 22.4696C21.6917 22.2709 21.5892 22.0173 21.5781 21.7517C21.5707 21.4962 21.6495 21.2457 21.8018 21.0404C21.954 20.8351 22.1709 20.687 22.4175 20.62C22.6824 20.562 22.9534 20.5358 23.2246 20.5422C31.3271 20.5422 39.4296 20.5422 47.5322 20.5422C48.8412 20.5422 49.2169 20.915 49.2169 22.2053C49.2169 22.8453 49.2169 23.4868 49.2169 24.2032H49.9506C52.7623 24.2032 55.574 24.2134 58.3843 24.1958C59.1107 24.1958 59.6845 24.3778 59.9985 25.0766V34.922C59.9471 35.085 59.904 35.2506 59.8694 35.4181C59.1357 40.3225 55.2527 44.2345 50.3615 44.8774C48.9013 45.0683 47.4045 45.0037 45.9253 45.0242C45.7634 45.011 45.601 45.0439 45.4571 45.1193C45.3132 45.1946 45.1936 45.3093 45.1123 45.4499C43.8169 47.4276 42.2342 49.2013 40.4163 50.7124C40.2961 50.7945 40.1695 50.8666 40.0377 50.9282L40.1639 51.0912H40.7934C44.0522 51.0912 47.3106 51.0912 50.5684 51.0912C51.6235 51.0912 52.0961 51.558 52.0139 52.6119C51.7674 55.8414 50.1531 58.1299 47.1785 59.4172C46.5622 59.6844 45.8856 59.8077 45.237 60.0044L6.80478 60ZM49.4927 53.4633H2.5329C2.55785 53.594 2.57105 53.7085 2.60187 53.8186C3.25931 56.1496 5.39011 57.6543 8.07123 57.6543C20.0352 57.6543 31.9997 57.6543 43.9647 57.6543C44.3743 57.6558 44.7834 57.6263 45.1886 57.5662C47.3135 57.2403 49.1626 55.4788 49.4927 53.4633ZM46.7162 42.7798C48.1162 42.6667 49.4384 42.7152 50.6858 42.4319C54.8711 41.4821 57.6183 37.9738 57.6535 33.683C57.6711 31.4811 57.6535 29.2792 57.6535 27.0685C57.6535 26.9012 57.63 26.7353 57.6168 26.5753H49.2682V28.8359C49.3215 28.852 49.376 28.8638 49.4311 28.8712C50.9147 28.8712 52.3969 28.8712 53.8791 28.8858C54.8843 28.8961 55.304 29.3262 55.3099 30.3185C55.3099 31.509 55.3348 32.701 55.3099 33.89C55.2987 34.7912 55.0981 35.68 54.7211 36.4986C54.3442 37.3172 53.7993 38.0474 53.1219 38.6417C51.7527 39.8865 50.1179 40.4032 48.2791 40.3518C48.0649 40.3518 47.7244 40.4311 47.6496 40.5779C47.3253 41.2399 47.0699 41.9269 46.7162 42.7798ZM49.3695 31.258C49.1127 33.5098 48.8617 35.7234 48.6093 37.9473C49.506 38.1646 51.0483 37.4967 51.8627 36.5969C53.2906 35.0218 52.9326 33.1208 52.9546 31.258H49.3695Z" fill="black"/>
<path d="M30.8555 18.2434C29.8826 18.2639 29.2882 17.3626 29.6404 16.6287C29.8079 16.3206 30.0076 16.0313 30.2362 15.7655C31.6157 14.004 31.6245 12.106 30.2172 10.3592C29.4453 9.40206 28.8186 8.39213 28.6558 7.14292C28.462 5.675 28.8451 4.35387 29.7109 3.17953C30.1159 2.62759 30.7836 2.49547 31.3134 2.82869C31.8432 3.16191 32.0251 3.85624 31.6304 4.4669C31.0742 5.32417 30.7191 6.22841 31.0771 7.22659C31.3071 7.80301 31.6211 8.3422 32.009 8.82664C32.7824 9.85418 33.3679 10.9493 33.541 12.2513C33.8345 14.462 32.9878 16.2587 31.5526 17.8397C31.353 18.0643 31.0023 18.1612 30.8555 18.2434Z" fill="black"/>
<path d="M24.7552 10.4883C24.7875 9.3551 24.3413 8.44498 23.6531 7.63175C22.5891 6.37668 21.9889 4.966 22.1474 3.28229C22.2434 2.26622 22.6273 1.29864 23.2539 0.49323C23.3399 0.366768 23.4504 0.258908 23.5789 0.176081C23.7074 0.0932546 23.8512 0.0371549 24.0019 0.0111279C24.1525 -0.0148991 24.3068 -0.0103201 24.4557 0.0245895C24.6045 0.0594992 24.7448 0.124023 24.8682 0.214321C25.3627 0.553411 25.4786 1.18316 25.1881 1.77767C24.943 2.28116 24.6378 2.78173 24.5248 3.31752C24.3252 4.2658 24.6906 5.08784 25.2424 5.88052C25.8382 6.73485 26.4736 7.62001 26.8053 8.59031C27.5243 10.6938 27.0371 12.6638 25.7061 14.4282C25.5006 14.7129 25.2776 14.9845 25.0384 15.2415C24.8466 15.4392 24.5909 15.5624 24.3169 15.5893C24.0428 15.6161 23.7681 15.5449 23.5416 15.3883C23.3058 15.2256 23.1405 14.9796 23.0789 14.6998C23.0174 14.42 23.0642 14.1273 23.2099 13.8807C23.3949 13.5831 23.6008 13.2991 23.8262 13.0308C24.4088 12.2733 24.7772 11.4322 24.7552 10.4883Z" fill="black"/>
<path d="M17.6745 2.5542C18.6064 2.68044 19.1171 3.53918 18.7253 4.33186C18.5271 4.7326 18.2498 5.10399 18.1133 5.52381C17.7391 6.66293 18.0546 7.67579 18.8104 8.57123C19.8009 9.74557 20.4921 11.0535 20.6022 12.6183C20.7489 14.7351 19.8802 16.4511 18.4728 17.9395C18.1001 18.3315 17.4456 18.33 17.0186 18.0159C16.7934 17.8561 16.6351 17.619 16.5739 17.3497C16.5127 17.0805 16.5529 16.7981 16.6869 16.5567C16.8348 16.3047 17.0037 16.0656 17.1917 15.8419C18.6489 13.9732 18.6592 12.1398 17.18 10.3004C16.3553 9.2729 15.7301 8.17636 15.6376 6.83174C15.5271 5.49346 15.9371 4.16414 16.7823 3.12082C16.9892 2.861 17.3722 2.73916 17.6745 2.5542Z" fill="black"/>
<path d="M43.5552 32.902C43.2304 37.5994 41.4557 41.6572 38.2312 45.0756C37.6706 45.6701 36.9941 45.7493 36.4702 45.2884C35.9463 44.8275 35.9639 44.1478 36.4878 43.5166C36.6492 43.3214 36.8268 43.1394 36.9955 42.95C39.0153 40.7037 40.3762 37.9435 40.9284 34.9733C41.1104 34.0191 41.1603 33.0386 41.2395 32.0683C41.3085 31.2198 41.7664 30.6825 42.4575 30.7075C43.1487 30.7325 43.6022 31.2947 43.5846 32.1417C43.5831 32.3956 43.5655 32.6481 43.5552 32.902Z" fill="black"/>
<path d="M34.5756 47.3392C34.5776 47.4946 34.5486 47.6489 34.4905 47.7931C34.4324 47.9373 34.3462 48.0685 34.237 48.1791C34.1278 48.2897 33.9977 48.3775 33.8543 48.4374C33.7109 48.4974 33.5571 48.5282 33.4016 48.5282C33.2508 48.5305 33.101 48.5031 32.9608 48.4475C32.8206 48.3918 32.6927 48.3091 32.5845 48.204C32.4762 48.0989 32.3898 47.9734 32.3301 47.8349C32.2704 47.6963 32.2386 47.5473 32.2365 47.3964C32.2407 47.0837 32.365 46.7846 32.5835 46.5608C32.8019 46.3371 33.098 46.2059 33.4104 46.1942C33.7143 46.1997 34.0044 46.3214 34.2212 46.5344C34.4379 46.7474 34.5648 47.0354 34.5756 47.3392Z" fill="black"/>
<path d="M16.7823 20.5554C17.0873 20.5592 17.3789 20.6816 17.5953 20.8967C17.8117 21.1117 17.9359 21.4026 17.9416 21.7077C17.942 21.859 17.9125 22.0088 17.855 22.1487C17.7974 22.2886 17.7129 22.4157 17.6062 22.5229C17.4994 22.6301 17.3727 22.7151 17.233 22.7732C17.0934 22.8313 16.9437 22.8613 16.7925 22.8615C16.4864 22.8616 16.1924 22.7422 15.9731 22.5285C15.7538 22.3149 15.6266 22.0241 15.6185 21.718C15.6256 21.4117 15.7506 21.1198 15.9673 20.9033C16.1841 20.6867 16.476 20.5621 16.7823 20.5554Z" fill="black"/>
</g>
<defs>
<clipPath id="clip0_92_14">
<rect width="60" height="60" fill="white"/>
</clipPath>
</defs>
</svg>
