<svg width="59" height="62" viewBox="0 0 59 62" fill="none" xmlns="http://www.w3.org/2000/svg">
<g clip-path="url(#clip0_13_213)">
<path d="M18.8498 61.2301C18.6542 61.2 18.4603 61.1548 18.263 61.1431C14.5435 60.9308 10.8191 60.7904 7.10628 60.4862C5.15042 60.319 3.2163 59.8877 1.27716 59.545C0.927554 59.4675 0.595753 59.3245 0.299231 59.1238C-0.0919405 58.878 -0.0802386 58.5554 0.3778 58.3799C1.16421 58.0511 1.98353 57.8073 2.82178 57.6527C4.96654 57.3284 7.12634 57.101 9.27945 56.8352C9.35468 56.8252 9.4299 56.8035 9.33963 56.9322C8.58069 56.0696 7.81507 55.212 7.06282 54.3444C4.54361 51.4408 3.02406 48.0272 1.99096 44.3679C0.902704 40.513 0.399531 36.5645 0.210632 32.5809C0.0702119 29.5953 0.0635235 26.6047 0 23.6158C0 23.4486 0.0167173 23.2647 0.0267474 23.0491H48.0305V28.1594C49.2007 28.482 50.3524 28.7361 51.4557 29.1139C54.0669 30.0049 56.3036 31.4175 57.7546 33.8648C60.1284 37.8768 59.0067 43.2479 55.2471 45.9995C52.9318 47.6945 50.2906 48.507 47.5022 48.9032C46.5962 49.0335 45.6768 49.0703 44.7691 49.1823C44.6516 49.2008 44.5393 49.2437 44.4394 49.3082C44.3395 49.3727 44.2542 49.4574 44.189 49.5568C42.8216 52.305 41.0295 54.7139 38.6257 56.648C38.5989 56.6681 38.5956 56.7149 38.5555 56.8152C39.7357 56.9322 40.9042 56.9941 42.0543 57.1729C43.741 57.437 45.421 57.7597 47.091 58.1157C47.437 58.1893 47.7279 58.522 48.0439 58.7359C47.7329 58.9767 47.4521 59.3578 47.1044 59.433C45.416 59.7974 43.7209 60.2187 42.0058 60.3641C38.0573 60.6985 34.0954 60.8857 30.1369 61.1348C29.841 61.1532 29.5468 61.1983 29.2526 61.2317L18.8498 61.2301ZM5.79736 26.7769C5.28471 31.5262 5.82405 36.33 7.37709 40.8474C9.27778 46.3956 13.0156 50.6149 15.5482 52.2147C15.5248 52.1094 15.5098 52.0108 15.4797 51.9189C13.9902 47.3669 12.9003 42.7247 12.4506 37.952C12.1163 34.4031 12.143 30.8742 13.131 27.4071C13.1878 27.2099 13.2213 27.0076 13.2697 26.7836L5.79736 26.7769ZM47.8533 32.9203C47.6092 36.8554 47.1127 40.6652 46.0512 44.5752C47.3886 44.2409 48.5704 44.0052 49.7055 43.614C51.3488 43.0473 52.4019 41.8922 52.6644 40.1202C52.8817 38.6474 52.9586 37.1647 52.2899 35.7839C51.429 33.9935 49.7339 33.4101 47.8533 32.9203Z" fill="#5A1305"/>
<path d="M44.7055 3.64252C44.6353 5.60172 43.731 7.04437 42.0793 7.89358C40.5331 8.6893 38.8781 9.2794 37.2482 9.89959C35.3943 10.61 33.4836 11.1818 31.6581 11.9591C29.9998 12.6662 28.6893 13.818 28.1627 15.6485C28.0691 15.9711 28.0223 16.3171 27.9487 16.6381C27.9033 16.8531 27.8133 17.0561 27.6845 17.2341C27.5556 17.4121 27.3909 17.5611 27.2008 17.6714C27.0108 17.7817 26.7997 17.8509 26.5813 17.8745C26.3628 17.898 26.1419 17.8755 25.9327 17.8083C25.3359 17.621 25.0667 17.1597 25.1486 16.4459C25.4596 13.7026 26.8805 11.6699 29.1607 10.1938C31.0246 8.9902 33.1041 8.33323 35.2205 7.75149C36.4476 7.4183 37.6558 7.01874 38.8396 6.55457C39.463 6.29437 40.04 5.93474 40.5481 5.48971C41.5193 4.66725 41.7701 3.57565 41.4775 2.35199C41.4307 2.15807 41.3806 1.96583 41.3321 1.77192C41.1114 0.887603 41.3823 0.344309 42.178 0.0818565C42.9469 -0.172238 43.7945 0.172127 44.0352 0.936081C44.3177 1.8204 44.4882 2.73814 44.7055 3.64252Z" fill="#5A1305"/>
<path d="M52.2949 5.37614C52.2615 8.36676 50.6132 10.7673 47.6627 11.7619C45.9158 12.3504 44.087 12.693 42.295 13.1477C40.6099 13.5757 38.9382 14.0337 37.5725 15.1955C36.7901 15.8642 36.3171 16.7184 35.966 17.6713C35.6818 18.4419 35.0717 18.7412 34.306 18.5623C33.4251 18.355 33.0188 17.6713 33.2796 16.802C34.0035 14.3865 35.6534 12.8017 37.86 11.7285C39.7975 10.7857 41.9071 10.4279 43.9716 9.91306C44.9359 9.6751 45.8818 9.36783 46.8018 8.99364C48.5654 8.27148 49.4096 6.91742 49.3828 5.0184C49.3828 4.77935 49.3594 4.5403 49.3528 4.30125C49.326 3.42864 49.6035 3.00905 50.2906 2.87866C51.0612 2.73155 51.9021 3.17288 52.0976 3.9034C52.2264 4.37815 52.2347 4.88467 52.2949 5.37614Z" fill="#5A1305"/>
</g>
<defs>
<clipPath id="clip0_13_213">
<rect width="59" height="61.23" fill="white"/>
</clipPath>
</defs>
</svg>
