<svg width="61" height="62" viewBox="0 0 61 62" fill="none" xmlns="http://www.w3.org/2000/svg">
<g clip-path="url(#clip0_96_80)">
<path d="M19.4774 26.4592H24.399V25.7294C24.399 18.3064 24.399 10.8822 24.399 3.45691C24.399 1.20997 25.6039 0.0101318 27.8576 0.0101318C30.3354 0.0101318 32.8137 0.0101318 35.2926 0.0101318C36.2497 0.0101318 36.5976 0.349549 36.5993 1.3101C36.5993 5.1919 36.5993 9.0737 36.5993 12.9555C36.5993 13.9143 36.2599 14.2639 35.3027 14.2656C33.7346 14.2656 32.1682 14.2656 30.5509 14.2656V26.4439H36.5993V23.8491C36.5993 20.4753 38.7003 18.3556 42.0487 18.3403H42.702C42.702 18.0009 42.702 17.6887 42.702 17.3798C42.7258 16.1528 43.2638 15.2177 44.3397 14.6356C44.4721 14.5825 44.5833 14.4872 44.656 14.3644C44.7287 14.2417 44.7589 14.0984 44.7419 13.9568C44.7182 13.1931 44.7334 12.4294 44.7419 11.6657C44.7419 10.6695 44.8488 10.5049 45.7347 10.1383V6.13321C45.1085 6.13321 44.5009 6.13321 43.8951 6.13321C43.0975 6.11964 42.7241 5.75476 42.7071 4.96732C42.6969 4.31055 42.6902 3.65208 42.7071 2.99531C42.7212 2.21165 43.0398 1.46424 43.5954 0.911452C44.1511 0.35866 44.9001 0.0439096 45.6838 0.0338909C49.1153 0.0101317 52.5463 0.0101317 55.9766 0.0338909C56.7687 0.0445272 57.5251 0.36518 58.0835 0.927061C58.6419 1.48894 58.9578 2.24729 58.9635 3.03943C58.973 3.84402 58.6637 4.61966 58.103 5.19684C57.5424 5.77402 56.7761 6.10579 55.9715 6.11964C54.6376 6.14849 53.3037 6.13831 51.9698 6.14509C51.9528 6.14509 51.9359 6.16716 51.8833 6.20449V10.1638C52.759 10.3165 52.9304 10.958 52.8693 11.759C52.8421 12.0985 52.8811 12.4379 52.8608 12.7773C52.8065 13.709 52.7674 14.5355 53.8383 15.087C54.6088 15.4841 54.8566 16.3989 54.8939 17.2932C54.9041 17.6327 54.8939 17.9602 54.8939 18.3217C55.4607 18.3209 56.0271 18.3493 56.591 18.4065C59.2232 18.807 60.9915 20.8775 61.0034 23.5725C61.0136 30.4886 61.0136 37.4043 61.0034 44.3193C61.0034 48.1151 61.0034 51.9121 61.0034 55.7101C61.0034 58.9753 58.8498 61.1238 55.5846 61.1238H3.48411C2.32331 61.1238 2.06026 60.8252 2.02462 59.6525C1.79552 52.2125 1.57319 44.7707 1.30675 37.3324C1.11837 32.0545 0.865511 26.7799 0.641496 21.5037C0.439543 16.7519 0.244382 12.0102 0.0305495 7.26347C-0.0610931 5.23885 0.0407279 5.11157 2.04159 5.11157H18.6883C20.1121 5.11157 20.3735 5.37122 20.3141 6.77641C20.0346 13.1473 19.7563 19.5215 19.4791 25.8992C19.4706 26.0672 19.4774 26.2335 19.4774 26.4592ZM49.84 59.0144C49.9186 59.0363 49.9985 59.0533 50.0793 59.0653C51.8997 59.0653 53.7206 59.0653 55.5422 59.0653C57.7484 59.0653 58.9652 57.8502 58.9652 55.6457V23.7829C58.9652 21.6123 57.7433 20.3785 55.5914 20.3785C51.0658 20.3785 46.5352 20.3785 41.9994 20.3785C39.8543 20.3785 38.629 21.6191 38.629 23.7863C38.629 28.5144 38.629 33.243 38.629 37.9722V38.7087C39.9867 38.7087 41.268 38.7087 42.5544 38.7087C45.5667 38.7257 47.7577 40.915 47.778 43.929C47.7882 45.4122 47.7644 46.8972 47.778 48.3821C47.7984 49.9536 47.8459 51.5251 46.7445 52.9643C47.8289 52.9643 48.7725 52.9524 49.7161 52.9643C50.3763 52.9744 50.8022 53.3325 50.8107 53.952C50.8413 55.6864 51.0415 57.4547 49.84 59.0212V59.0144ZM22.3761 52.9592C21.1881 51.4318 21.334 49.7347 21.3408 48.0699C21.3408 46.7326 21.3408 45.397 21.3408 44.0597C21.3408 40.8742 23.508 38.7071 26.685 38.7037C29.7555 38.7037 32.8261 38.7037 35.8967 38.7037H36.5603V28.5619H16.2716C16.2072 29.3731 16.5075 30.4745 15.3026 30.522C13.9449 30.5729 14.3047 29.351 14.1995 28.5568H10.1944V59.033H14.1893C14.3081 57.4683 14.5101 57.0763 15.1957 57.0441C15.8813 57.0118 16.0901 57.3665 16.3192 59.0381H19.1126C18.8546 58.271 18.5016 57.5362 18.3726 56.7623C18.2352 55.9342 18.298 55.0652 18.2946 54.2167C18.2946 53.3122 18.6544 52.966 19.5776 52.9609C20.46 52.9626 21.3442 52.966 22.3761 52.966V52.9592ZM17.4257 26.4846C17.6429 21.3527 17.8567 16.3021 18.0706 11.2482H2.24524C2.83583 25.1643 3.42585 39.0538 4.0153 52.9167H8.12734V28.5755C8.12734 26.539 8.18164 26.488 10.2351 26.488L17.4257 26.4846ZM34.5289 52.9592C37.1967 52.9592 39.8645 52.9592 42.5323 52.9592C44.4415 52.9592 45.7347 51.6745 45.7432 49.7771C45.7534 47.8266 45.7534 45.8761 45.7432 43.9256C45.7347 42.0266 44.4432 40.7436 42.534 40.7419C37.2165 40.7419 31.9018 40.7419 26.5899 40.7419C24.6586 40.7419 23.3824 42.0384 23.3773 43.9867C23.3773 45.8738 23.3773 47.761 23.3773 49.6482C23.3773 51.7084 24.64 52.9575 26.7155 52.9609C29.3211 52.9677 31.9256 52.9694 34.5289 52.966V52.9592ZM48.7674 55.0364H20.326C20.326 55.3894 20.326 55.705 20.326 56.019C20.3633 57.7246 21.6514 59.0585 23.3519 59.0619C30.819 59.0777 38.2891 59.0777 45.7619 59.0619C46.2303 59.0668 46.6932 58.9599 47.112 58.7501C47.5309 58.5402 47.8936 58.2335 48.17 57.8553C48.8183 57.0322 48.8574 56.075 48.7674 55.0432V55.0364ZM26.427 12.2291C27.486 12.2291 28.4635 12.2444 29.4291 12.2291C30.0961 12.2156 30.4847 11.8201 30.4881 11.1396C30.4994 8.4684 30.4994 5.79776 30.4881 3.12768C30.4881 2.44884 30.0859 2.07718 29.4071 2.05851C28.7944 2.03985 28.1801 2.04324 27.5657 2.05851C26.8173 2.07379 26.4372 2.44884 26.4321 3.20405C26.4219 4.96392 26.4321 6.7221 26.4321 8.48198L26.427 12.2291ZM18.2386 7.17522H2.07553L2.17397 9.13366H18.1571C18.1809 8.4701 18.208 7.83878 18.2386 7.17522ZM26.4694 14.303V26.4371H28.4279V14.2962L26.4694 14.303ZM44.7317 4.08653C48.5112 4.08653 52.2125 4.08653 55.9121 4.08653C56.046 4.09094 56.1794 4.06802 56.3042 4.01916C56.4289 3.9703 56.5424 3.89653 56.6377 3.80235C56.733 3.70817 56.8081 3.59556 56.8584 3.47139C56.9087 3.34723 56.9332 3.2141 56.9304 3.08016C56.9304 2.50145 56.5061 2.06191 55.8578 2.06191C52.5146 2.0506 49.1708 2.0506 45.8264 2.06191C45.1475 2.06191 44.7708 2.45393 44.7385 3.12598C44.7199 3.40939 44.7317 3.70469 44.7317 4.07974V4.08653ZM34.5187 4.05089V2.09246H32.4703V12.1986H34.5374V10.2334C33.9926 10.0925 33.5564 9.8108 33.5564 9.17778C33.5564 8.54477 33.9858 8.25627 34.5458 8.11541V6.15528C33.9892 6.02799 33.5632 5.73949 33.5547 5.10987C33.5463 4.48025 33.9807 4.19175 34.5187 4.0441V4.05089ZM4.08489 59.0364H8.07303V55.0364H4.08489V59.0364ZM52.8642 18.3132C52.8642 18.0145 52.8642 17.765 52.8642 17.5139C52.8472 16.6823 52.4874 16.3089 51.6626 16.3055C49.7393 16.2976 47.8159 16.2976 45.8926 16.3055C45.1085 16.3055 44.7487 16.6925 44.73 17.4935C44.73 17.7616 44.73 18.0298 44.73 18.32L52.8642 18.3132ZM47.7933 10.1502H49.7636V6.17055H47.7882L47.7933 10.1502ZM46.792 14.2232H50.7819V12.2631H46.7937L46.792 14.2232Z" fill="black"/>
<path d="M48.8183 33.626C46.8226 33.5751 44.949 33.1475 43.3724 31.8407C41.1153 29.9739 41.0932 27.0634 43.3724 25.2221C45.5294 23.4741 48.0513 23.1703 50.7021 23.6234C52.0291 23.8314 53.2729 24.4017 54.2965 25.2713C56.4281 27.1041 56.4586 29.8891 54.3474 31.7423C52.7691 33.1203 50.8548 33.5632 48.8183 33.626ZM48.8726 25.4631C47.4556 25.4851 46.1386 25.7499 44.9812 26.539C43.296 27.6845 43.2994 29.3443 44.971 30.5068C47.0415 31.9476 50.5969 31.934 52.6656 30.4745C54.2728 29.3426 54.2796 27.71 52.6656 26.5814C51.5218 25.7804 50.2099 25.5055 48.8726 25.4631Z" fill="black"/>
<path d="M16.2547 34.685C16.2547 35.0024 16.2716 35.3214 16.2547 35.6388C16.2173 36.2447 15.8066 36.6571 15.2568 36.6672C15.1237 36.6702 14.9914 36.6464 14.8676 36.5974C14.7438 36.5483 14.6312 36.4749 14.5362 36.3816C14.4413 36.2883 14.3661 36.1768 14.3149 36.0539C14.2638 35.931 14.2378 35.7991 14.2385 35.666C14.2097 34.9871 14.2131 34.3083 14.2385 33.6295C14.2352 33.4962 14.2584 33.3636 14.3068 33.2394C14.3553 33.1152 14.428 33.0019 14.5208 32.9062C14.6135 32.8104 14.7244 32.7341 14.847 32.6817C14.9696 32.6293 15.1014 32.6019 15.2347 32.601C15.3673 32.5995 15.4989 32.6241 15.6219 32.6736C15.745 32.723 15.857 32.7963 15.9516 32.8892C16.0462 32.982 16.1216 33.0927 16.1733 33.2148C16.225 33.3369 16.2521 33.468 16.253 33.6006C16.2733 33.9621 16.2547 34.3236 16.2547 34.685Z" fill="black"/>
<path d="M16.2581 40.7928C16.2581 41.0678 16.2581 41.3444 16.2581 41.6193C16.2394 42.3219 15.8525 42.7665 15.2585 42.7767C14.6645 42.7869 14.2402 42.3287 14.2284 41.5888C14.2199 41.0152 14.2182 40.4432 14.2284 39.8696C14.2419 39.1636 14.6289 38.7241 15.2262 38.7139C15.8236 38.7037 16.2445 39.1602 16.2581 39.9019C16.2632 40.2056 16.2581 40.4959 16.2581 40.7928Z" fill="black"/>
<path d="M16.253 46.8768C16.253 47.2162 16.2733 47.5557 16.253 47.8951C16.2467 48.1631 16.1351 48.4178 15.9422 48.604C15.7494 48.7901 15.4909 48.8928 15.2228 48.8896C14.9648 48.887 14.7179 48.784 14.5345 48.6025C14.3511 48.421 14.2455 48.1751 14.2402 47.9171C14.2097 47.2179 14.2114 46.517 14.2402 45.8178C14.2402 45.6846 14.2669 45.5526 14.3189 45.4299C14.3709 45.3072 14.4471 45.1962 14.5429 45.1035C14.6387 45.0109 14.7522 44.9385 14.8766 44.8906C15.001 44.8428 15.1338 44.8205 15.267 44.825C15.5247 44.8297 15.7708 44.9332 15.9543 45.1142C16.1378 45.2952 16.2447 45.5398 16.253 45.7975C16.275 46.1539 16.253 46.5153 16.253 46.8768Z" fill="black"/>
<path d="M16.2547 52.9796C16.2547 53.319 16.2733 53.6584 16.2547 53.9978C16.2538 54.1304 16.2267 54.2615 16.175 54.3836C16.1233 54.5057 16.0479 54.6164 15.9533 54.7093C15.8587 54.8022 15.7466 54.8754 15.6236 54.9249C15.5006 54.9743 15.369 54.999 15.2364 54.9974C14.9784 54.9979 14.7305 54.8973 14.5458 54.7171C14.3611 54.5368 14.2545 54.2914 14.2487 54.0335C14.2165 53.3139 14.2148 52.5892 14.2487 51.8697C14.2606 51.611 14.3744 51.3674 14.5651 51.1923C14.7559 51.0171 15.0082 50.9245 15.267 50.9346C15.5247 50.9366 15.7717 51.0379 15.9567 51.2175C16.1416 51.397 16.2502 51.641 16.2598 51.8985C16.2869 52.2566 16.2598 52.6198 16.2598 52.9796H16.2547Z" fill="black"/>
</g>
<defs>
<clipPath id="clip0_96_80">
<rect width="61" height="61.1137" fill="white"/>
</clipPath>
</defs>
</svg>
