<svg width="61" height="60" viewBox="0 0 61 60" fill="none" xmlns="http://www.w3.org/2000/svg">
<g clip-path="url(#clip0_13_139)">
<path d="M46.6385 0C49.7315 0.0796007 52.3735 1.00828 54.5985 2.96797C56.6985 4.81016 58.5975 6.82671 59.4125 9.59758C60.8225 14.3926 59.7915 18.6076 56.255 22.1555C51.5889 26.8634 46.8886 31.5333 42.2036 36.2145C35.5424 42.8757 28.885 49.5357 22.2313 56.1943C20.1725 58.3643 17.3884 59.7025 14.4077 59.9545C12.7805 60.1156 11.1376 59.9366 9.5833 59.4289C8.02896 58.9213 6.59714 58.096 5.37873 57.0055C3.23709 55.1444 1.34184 53.0747 0.549625 50.2432C-0.708824 45.7439 0.102341 41.635 3.38871 38.2993C11.8453 29.7062 20.4157 21.242 28.9406 12.6944L37.9923 3.66164C39.1169 2.50613 40.4611 1.587 41.9458 0.958201C43.4306 0.329404 45.026 0.00362451 46.6385 0ZM31.1959 20.2603C30.8718 20.2903 30.5612 20.4048 30.2951 20.5924C30.0291 20.7799 29.8169 21.034 29.6797 21.3292C29.5326 21.6299 29.4879 21.9703 29.5522 22.2988C29.6165 22.6272 29.7864 22.9257 30.036 23.1487C32.3103 25.4407 34.5973 27.7251 36.8968 30.0019C37.0422 30.157 37.2174 30.2811 37.412 30.3666C37.6066 30.4521 37.8166 30.4973 38.0291 30.4994C38.2417 30.5016 38.4525 30.4606 38.6488 30.379C38.845 30.2974 39.0227 30.1768 39.1711 30.0246C39.3288 29.8724 39.4536 29.6894 39.5378 29.487C39.622 29.2846 39.6637 29.0671 39.6605 28.8479C39.6573 28.6287 39.6092 28.4125 39.5192 28.2126C39.4292 28.0128 39.2991 27.8335 39.137 27.6859C36.8779 25.4116 34.6036 23.1436 32.3141 20.8819C31.9713 20.625 31.5951 20.4159 31.1959 20.2603ZM28.7927 39.7625C29.1159 39.7344 29.427 39.6261 29.6977 39.4474C29.9684 39.2687 30.1903 39.0252 30.343 38.739C30.5013 38.4328 30.5533 38.0827 30.4909 37.7438C30.4285 37.4048 30.2551 37.0962 29.9981 36.8665C27.7238 34.5922 25.4495 32.3179 23.1752 30.0436C23.0293 29.879 22.8509 29.7466 22.6512 29.6546C22.4515 29.5626 22.2348 29.513 22.015 29.5091C21.7951 29.5052 21.5768 29.547 21.374 29.6318C21.1711 29.7166 20.9881 29.8427 20.8364 30.0019C20.6807 30.156 20.5581 30.3403 20.4761 30.5435C20.3942 30.7467 20.3547 30.9645 20.36 31.1835C20.3653 31.4026 20.4154 31.6182 20.5071 31.8172C20.5988 32.0162 20.7302 32.1943 20.8933 32.3406C23.1373 34.615 25.3952 36.8678 27.6669 39.0991C28.0126 39.367 28.3909 39.5899 28.7927 39.7625Z" fill="#5A1305"/>
</g>
<defs>
<clipPath id="clip0_13_139">
<rect width="60.0303" height="60" fill="white"/>
</clipPath>
</defs>
</svg>
