<svg width="61" height="62" viewBox="0 0 61 62" fill="none" xmlns="http://www.w3.org/2000/svg">
<g clip-path="url(#clip0_14_271)">
<path d="M6.52855 54.1159C5.53499 54.1251 4.54183 54.0711 3.55512 53.9543C2.57267 53.7706 1.6842 53.2523 1.04077 52.4875C0.397335 51.7227 0.0387044 50.7586 0.0258473 49.7592C0.0258473 47.9622 -0.0194002 46.1588 0.0258473 44.3618C0.0253149 43.5165 0.274781 42.6899 0.742899 41.9859C1.21102 41.282 1.87688 40.7323 2.65667 40.4059C5.4478 39.0927 8.38606 38.1184 11.4088 37.5036C13.6924 37.02 15.7804 35.8679 17.4073 34.1941C18.8165 32.7849 20.245 31.3823 21.6606 29.9796C22.4627 29.152 23.4247 28.4961 24.4881 28.0517C25.5515 27.6072 26.6941 27.3835 27.8465 27.394C31.294 27.394 34.7414 27.394 38.1888 27.394C39.3312 27.3869 40.4633 27.6092 41.5182 28.0478C42.573 28.4863 43.529 29.1323 44.3295 29.9473C46.5725 32.1256 48.8543 34.2975 51.0585 36.4888C51.2579 36.7021 51.5007 36.8701 51.7705 36.9816C52.0403 37.0931 52.331 37.1455 52.6228 37.1352C53.8509 37.1352 55.0855 37.1352 56.3137 37.1352C57.5494 37.1521 58.7292 37.6531 59.5995 38.5307C60.4697 39.4082 60.961 40.5921 60.9677 41.828C60.9935 44.3489 60.9935 46.8741 60.9677 49.4037C60.9608 50.649 60.4627 51.8413 59.5815 52.7213C58.7003 53.6013 57.5073 54.0979 56.2619 54.1029C55.7384 54.1029 55.2148 54.1029 54.6977 54.1029C54.6977 51.4286 53.6353 48.8637 51.7442 46.9727C49.8532 45.0816 47.2883 44.0192 44.6139 44.0192C41.9396 44.0192 39.3747 45.0816 37.4837 46.9727C35.5926 48.8637 34.5303 51.4286 34.5303 54.1029H26.6443C26.6091 52.5368 26.2093 51.0004 25.4766 49.6158C24.7439 48.2312 23.6984 47.0365 22.4233 46.1265C20.5845 44.7789 18.3318 44.1179 16.0564 44.2584C13.5202 44.4039 11.1318 45.4988 9.3663 47.3254C7.60082 49.152 6.58772 51.5762 6.52855 54.1159Z" fill="#5A1305"/>
<path d="M37.7105 24.1944H33.8903V8.85552C33.8903 5.81747 31.9511 3.89769 28.9454 3.89769H8.8103C5.82396 3.89769 3.89126 5.83687 3.89126 8.81673C3.89126 15.5823 3.89126 22.3479 3.89126 29.1134C3.85913 29.726 3.94943 30.3387 4.15686 30.916C4.36428 31.4932 4.68468 32.0233 5.09934 32.4753C5.514 32.9272 6.01461 33.292 6.57187 33.5483C7.12914 33.8046 7.73189 33.9472 8.34491 33.9678C8.56468 33.9678 8.76507 34.2393 8.9913 34.388C8.82324 34.6013 8.70041 34.9374 8.4871 35.0344C7.19431 35.4739 5.84337 35.8682 4.50534 36.2496C4.26212 36.3216 4.00419 36.3278 3.75779 36.2676C3.5114 36.2074 3.28535 36.083 3.10268 35.907C2.16375 35.1641 1.40255 34.2208 0.874714 33.1461C0.346874 32.0714 0.0656893 30.8924 0.0516924 29.6952C-1.89012e-05 22.5289 -1.89012e-05 15.3582 0.0516924 8.18327C0.105358 6.04908 0.974937 4.01663 2.4815 2.50405C3.98807 0.991476 6.01705 0.113823 8.151 0.051659C15.3001 -0.0043616 22.4535 -0.0043616 29.6112 0.051659C31.724 0.100898 33.7387 0.953015 35.2456 2.43472C36.7525 3.91643 37.6385 5.91648 37.7234 8.02813C37.8269 13.3544 37.7234 18.6871 37.7234 24.0199C37.7256 24.0783 37.7213 24.1369 37.7105 24.1944Z" fill="#5A1305"/>
<path d="M15.048 23.0374C15.048 24.9184 15.048 26.7348 15.048 28.5447C15.0516 28.8673 15.0125 29.189 14.9317 29.5014C14.7874 29.9435 14.4988 30.3244 14.1121 30.5828C13.7254 30.8413 13.2631 30.9623 12.7994 30.9265C12.3357 30.8908 11.8975 30.7002 11.555 30.3855C11.2126 30.0708 10.9858 29.6501 10.9111 29.1911C10.8809 28.977 10.8658 28.761 10.8659 28.5447C10.8659 22.5333 10.8659 16.5197 10.8659 10.5039C10.8659 8.67461 11.8225 7.39476 13.4514 7.01985C13.7273 6.95926 14.0093 6.93106 14.2917 6.93582C15.8431 6.93582 17.3944 6.93582 18.9393 6.93582C20.9223 6.92995 22.8371 7.65939 24.3136 8.98318C25.7901 10.307 26.7235 12.1311 26.9333 14.103C27.1431 16.0749 26.6145 18.0546 25.4496 19.6594C24.2847 21.2643 22.5662 22.3803 20.6264 22.7918C19.1115 22.9909 17.5841 23.0794 16.0564 23.0568C15.6944 23.0504 15.41 23.0374 15.048 23.0374ZM15.048 18.8294C16.4248 18.8294 17.7499 18.8617 19.075 18.8294C20.0015 18.7951 20.8843 18.4267 21.5603 17.7922C22.2363 17.1578 22.66 16.3001 22.753 15.3777C22.8746 14.4648 22.6511 13.5394 22.1262 12.7826C21.6014 12.0258 20.813 11.4921 19.9154 11.286C18.2996 11.1026 16.674 11.0206 15.048 11.0404V18.8294Z" fill="#5A1305"/>
<path d="M16.6381 47.3675C17.9966 47.3779 19.3215 47.791 20.445 48.5547C21.5685 49.3184 22.4402 50.3982 22.9497 51.6576C23.4592 52.9169 23.5836 54.2991 23.3071 55.6292C23.0306 56.9593 22.3656 58.1774 21.3964 59.1294C20.4273 60.0813 19.1974 60.7243 17.8626 60.977C16.5278 61.2296 15.148 61.0805 13.898 60.5485C12.648 60.0166 11.5839 59.1257 10.8405 57.9887C10.097 56.8516 9.70771 55.5196 9.72174 54.1611C9.7439 52.3449 10.4836 50.6112 11.7794 49.3385C13.0752 48.0657 14.8218 47.3572 16.6381 47.3675ZM16.6381 57.2379C17.4319 57.2328 18.1915 56.9139 18.751 56.3508C19.3105 55.7876 19.6245 55.026 19.6245 54.2322C19.6434 53.8245 19.5793 53.4172 19.4363 53.0349C19.2933 52.6526 19.0742 52.3032 18.7924 52.008C18.5105 51.7128 18.1717 51.4778 17.7964 51.3173C17.4212 51.1567 17.0172 51.0739 16.609 51.0739C16.2009 51.0739 15.7969 51.1567 15.4217 51.3173C15.0464 51.4778 14.7076 51.7128 14.4257 52.008C14.1439 52.3032 13.9248 52.6526 13.7818 53.0349C13.6388 53.4172 13.5747 53.8245 13.5936 54.2322C13.5936 54.6286 13.672 55.021 13.8243 55.387C13.9765 55.7529 14.1997 56.0851 14.4808 56.3645C14.762 56.6438 15.0956 56.8648 15.4625 57.0147C15.8294 57.1646 16.2224 57.2405 16.6187 57.2379H16.6381Z" fill="#5A1305"/>
<path d="M51.4658 54.2969C51.453 55.6516 51.0392 56.9722 50.2768 58.092C49.5143 59.2119 48.4373 60.0808 47.1816 60.5892C45.9258 61.0976 44.5476 61.2227 43.2208 60.9487C41.8941 60.6748 40.6782 60.014 39.7265 59.0497C38.7749 58.0855 38.1302 56.861 37.8737 55.5307C37.6172 54.2005 37.7604 52.8241 38.2853 51.5751C38.8101 50.3262 39.6932 49.2606 40.8229 48.513C41.9527 47.7653 43.2786 47.369 44.6334 47.3741C45.538 47.3749 46.4335 47.5551 47.268 47.9044C48.1025 48.2537 48.8594 48.7651 49.4949 49.409C50.1304 50.0529 50.6318 50.8165 50.9701 51.6555C51.3084 52.4945 51.4769 53.3923 51.4658 54.2969ZM44.6463 57.238C45.4401 57.2329 46.1996 56.914 46.7591 56.3508C47.3186 55.7877 47.6326 55.0261 47.6326 54.2323C47.6292 53.4277 47.3067 52.6573 46.736 52.0901C46.1652 51.523 45.3928 51.2055 44.5881 51.2072C43.7938 51.2174 43.0356 51.541 42.4787 52.1076C41.9218 52.6742 41.6112 53.4378 41.6147 54.2323C41.6112 54.6302 41.6874 55.0247 41.8388 55.3927C41.9903 55.7606 42.2139 56.0945 42.4964 56.3747C42.779 56.6548 43.1148 56.8756 43.484 57.0238C43.8533 57.1721 44.2485 57.2449 44.6463 57.238Z" fill="#5A1305"/>
</g>
<defs>
<clipPath id="clip0_14_271">
<rect width="61" height="61.1034" fill="white"/>
</clipPath>
</defs>
</svg>
