<svg width="68" height="65" viewBox="0 0 68 65" fill="none" xmlns="http://www.w3.org/2000/svg">
<g clip-path="url(#clip0_93_39)">
<path d="M0 63.5827C0.396607 63.0988 0.905586 62.9891 1.51107 62.9996C3.18079 63.0301 4.85315 63.0102 6.59294 63.0102C6.60748 62.7313 6.62996 62.4986 6.62996 62.2672C6.62996 60.858 6.62996 59.4474 6.62996 58.0368C6.62996 55.5474 7.49059 54.3351 9.8742 53.485V21.578C8.28777 21.3717 6.80579 20.9275 5.44014 20.1237C3.49454 18.9876 1.95242 17.2721 1.02923 15.2169C0.106043 13.1617 -0.152106 10.8695 0.290847 8.66045C0.740703 6.45391 1.86826 4.44288 3.51614 2.90805C5.16402 1.37322 7.24998 0.391187 9.48288 0.0990205C9.89688 0.040279 10.3141 0.00716535 10.7322 -0.000131334C11.4315 -0.00806348 11.8903 0.403086 11.885 0.992709C11.885 1.55589 11.4434 1.90623 10.7811 1.98423C9.93237 2.0847 9.06248 2.1508 8.25075 2.3967C4.14454 3.64073 1.50843 7.8527 2.14961 12.0475C2.8212 16.4102 6.44883 19.583 10.8287 19.62C12.9299 19.6373 14.968 18.9024 16.5746 17.548C18.1812 16.1936 19.2502 14.3091 19.5884 12.2352C19.8765 10.5073 19.642 8.73275 18.9152 7.13892C18.1883 5.54508 17.0022 4.20455 15.5087 3.28907C15.3765 3.20842 15.2443 3.13571 15.1121 3.04581C14.6414 2.70737 14.5013 2.17328 14.7578 1.72379C15.0222 1.24257 15.5972 1.07203 16.1287 1.3642C17.468 2.09355 18.6327 3.10535 19.5422 4.3295C24.4786 10.9872 20.5932 20.1938 12.2829 21.5224C12.1772 21.5396 12.0701 21.5542 11.9273 21.574V53.5088C13.4595 53.9213 14.5542 54.8309 14.9812 56.3935C15.0964 56.886 15.1497 57.3909 15.1398 57.8966C15.1583 59.5677 15.1464 61.2387 15.1464 62.9613H19.2103C19.2103 60.8633 19.2103 58.7586 19.2011 56.6552C19.179 56.4831 19.1068 56.3213 18.9935 56.1899C18.4452 55.4354 18.1596 54.5219 18.1805 53.5895C18.1805 50.8793 18.1805 48.1696 18.1805 45.4603C18.1805 43.8448 18.6445 42.3364 19.213 40.8504C19.2883 40.6521 19.3743 40.4538 19.4866 40.1894C18.8997 40.1894 18.3986 40.1987 17.9002 40.1894C16.487 40.1564 15.5364 39.1715 15.4399 37.7794C15.2535 35.1076 16.4116 34.3738 18.6128 34.5285C18.8534 34.5457 19.0966 34.5285 19.3386 34.5285C21.2119 34.5285 21.8808 34.9992 22.5114 36.9082C22.9622 36.2141 23.4131 35.6536 23.7184 35.0216C24.4641 33.4762 25.1621 31.9083 25.8337 30.3324C26.4498 28.8967 27.432 27.8814 28.9299 27.375C29.0181 27.3339 29.096 27.2734 29.1578 27.1982C29.2196 27.1229 29.2637 27.0347 29.2868 26.9401C29.419 25.9869 29.6623 25.6524 30.2783 25.6498C30.8944 25.6472 31.1892 26.0094 31.3016 26.9917C31.3181 27.0479 31.3412 27.1021 31.3703 27.1529H51.0751C51.3012 25.9631 51.5537 25.626 52.1816 25.6498C52.8096 25.6736 53.037 26.016 53.2022 27.1939C55.3056 27.4702 56.588 28.738 57.3613 30.6656C57.9179 32.0524 58.5419 33.414 59.1976 34.7638C59.5572 35.5002 60.0477 36.1731 60.5487 36.9888C61.1582 35.0282 61.8324 34.5417 63.7282 34.5417H64.8506C66.5944 34.5417 67.0584 34.863 67.6837 36.501V38.0874C67.0994 40.2436 65.4045 40.3348 63.7018 40.1881C64.0746 41.6225 64.6642 42.9815 64.7396 44.3683C64.9128 47.5412 64.8784 50.7418 64.8281 53.9292C64.8176 54.6325 64.3932 55.3306 64.1671 56.0326C64.0944 56.2547 63.9767 56.4794 63.9754 56.7042C63.9609 58.789 63.9662 60.8738 63.9662 63.03C64.6933 63.03 65.4376 63.0591 66.1792 63.0208C66.7861 62.9891 67.295 63.1213 67.6877 63.6025V64.3957C67.3202 64.9179 66.8006 65.0197 66.1938 65.0197C44.628 65.0118 23.0614 65.0118 1.49389 65.0197C0.887077 65.0197 0.366201 64.9192 0 64.3957V63.5827ZM41.5539 29.1664C37.8747 29.1664 34.1955 29.1743 30.5163 29.1664C29.1731 29.1664 28.2622 29.752 27.7255 30.9789C27.0552 32.5111 26.3546 34.0288 25.6737 35.5557C25.1172 36.8024 24.3517 37.905 23.2941 38.7616C21.0757 40.5503 20.2415 42.9591 20.1794 45.6851C20.1212 48.2392 20.1622 50.796 20.1675 53.3528C20.1675 55.0609 20.9792 55.8726 22.6701 55.8753C25.1819 55.8753 27.6938 55.9004 30.2056 55.8581C30.7906 55.8494 31.3658 55.7069 31.8872 55.4416C32.797 54.9507 33.8191 54.706 34.8525 54.7317C39.1928 54.7687 43.533 54.778 47.8732 54.7317C49.1476 54.7158 50.3083 54.9075 51.399 55.5778C51.6979 55.7584 52.0387 55.8582 52.3879 55.8673C55.1201 55.8894 57.8523 55.892 60.5844 55.8753C62.0122 55.8673 62.8848 54.9869 62.8927 53.5485C62.9086 50.8383 62.9786 48.1282 62.8729 45.4194C62.7697 42.8295 61.9316 40.5094 59.8044 38.8092C58.7217 37.942 57.9391 36.8262 57.3732 35.5597C56.7188 34.0922 56.0327 32.6407 55.4127 31.1587C54.831 29.7679 53.8421 29.1479 52.331 29.1637C48.7364 29.1915 45.1445 29.1664 41.5539 29.1664ZM55.5674 57.8543C54.6525 57.8543 53.8395 57.816 53.0317 57.8636C51.9873 57.9231 51.0169 57.7538 50.1391 57.1656C49.5654 56.7835 48.9361 56.7121 48.2566 56.7147C43.7207 56.7346 39.1848 56.7147 34.6489 56.7425C34.0646 56.749 33.49 56.8925 32.9713 57.1616C32.0287 57.6666 31.0768 57.9336 30.006 57.8636C29.226 57.8133 28.4407 57.8543 27.6039 57.8543V62.9758H55.5674V57.8543ZM13.1304 62.9639C13.1304 61.0232 13.1753 59.1552 13.1145 57.2898C13.0775 56.1648 12.2076 55.4654 11.0244 55.431C9.69044 55.3914 8.7095 56.0286 8.65265 57.196C8.56143 59.0997 8.62886 61.0113 8.62886 62.9639H13.1304ZM57.561 57.8279C57.561 59.4064 57.5319 60.895 57.594 62.3783C57.6033 62.5964 58.0395 62.9547 58.2987 62.9745C59.2598 63.0472 60.2288 63.0129 61.1952 63.001C61.6209 63.001 61.9461 62.7736 61.9527 62.34C61.9778 60.8117 61.962 59.2834 61.962 57.8318L57.561 57.8279ZM21.2053 57.8345C21.2053 59.3231 21.1894 60.8355 21.2145 62.3479C21.2211 62.7908 21.5556 62.993 21.9813 63.0023C22.5524 63.0155 23.1235 63.0089 23.6999 63.0102C25.6248 63.0102 25.6248 63.0102 25.6248 61.1105V57.8345H21.2053ZM62.6904 38.1945C63.4704 38.1945 64.2147 38.1786 64.9577 38.1945C65.4733 38.209 65.657 37.975 65.6703 37.4832C65.6967 36.4983 65.7112 36.4983 64.7277 36.4983H64.1341C62.586 36.5049 62.586 36.5049 62.6904 38.1945ZM20.4134 38.1945C20.4134 37.8455 20.3975 37.5811 20.4134 37.3206C20.4583 36.7363 20.2243 36.4573 19.6202 36.4983C19.2236 36.5234 18.827 36.4983 18.4303 36.4983C17.3476 36.4983 17.2762 36.5578 17.4468 37.6577C17.4772 37.8574 17.7693 38.1522 17.9584 38.1667C18.745 38.2315 19.5342 38.1971 20.4134 38.1971V38.1945Z" fill="black"/>
<path d="M8.46095 11.1738C8.46095 9.71957 8.47682 8.26534 8.4517 6.82037C8.44244 6.32064 8.5839 6.09854 9.11271 6.11044C10.3025 6.1382 11.4924 6.09986 12.6756 6.12498C14.344 6.15935 15.1874 6.98033 15.2614 8.63683C15.2957 9.29776 15.286 9.96023 15.2324 10.6199C15.1107 11.9882 14.2765 12.7629 12.899 12.8184C12.2631 12.8435 11.6232 12.8462 10.9873 12.8184C10.5762 12.8025 10.4493 12.9638 10.4585 13.3565C10.4784 14.1695 10.4506 14.9839 10.4678 15.7969C10.477 16.1935 10.3105 16.3469 9.92444 16.3482C8.11062 16.3482 8.47946 16.4209 8.45963 15.0037C8.44905 13.724 8.46095 12.4495 8.46095 11.1738ZM10.4678 9.43665V10.0977C10.4678 11.076 10.4678 11.076 11.4738 11.076C13.2546 11.076 13.2546 11.076 13.2454 9.14316C13.2454 8.00093 13.1317 7.88988 12.0106 7.88327C10.4691 7.8727 10.4691 7.8727 10.4691 9.43665H10.4678Z" fill="black"/>
<path d="M41.5354 45.4274C44.465 45.4274 47.3955 45.4274 50.3268 45.4274C52.0931 45.4274 52.8665 46.6173 52.1869 48.2526C51.8749 49.0035 51.5669 49.7571 51.2404 50.5001C50.6719 51.7983 49.6883 52.4937 48.2539 52.495C43.8031 52.495 39.3523 52.495 34.9015 52.495C33.5318 52.495 32.5522 51.8551 31.9692 50.619C31.5726 49.7835 31.176 48.9467 30.8111 48.1072C30.1951 46.6953 30.9975 45.4433 32.5456 45.4354C35.5413 45.4169 38.5384 45.4274 41.5354 45.4274ZM50.3692 47.4462H32.6778C33.1286 48.3888 33.5067 49.2732 33.9813 50.1021C34.1135 50.3255 34.5353 50.4908 34.8261 50.4987C39.321 50.5234 43.8119 50.5234 48.2989 50.4987C48.632 50.4987 49.1106 50.2489 49.2639 49.9699C49.6962 49.182 49.9937 48.328 50.3692 47.4462Z" fill="black"/>
<path d="M41.8487 40.6537C36.8303 40.6537 31.8114 40.6537 26.7922 40.6537C26.5269 40.6657 26.2611 40.6506 25.9989 40.6087C25.4701 40.4963 25.2123 40.1407 25.2361 39.6079C25.2599 39.1042 25.5428 38.7936 26.0399 38.7076C26.2589 38.6775 26.48 38.666 26.7009 38.6733H57.0123C58.0263 38.6733 58.5075 38.9892 58.5155 39.6516C58.5234 40.3139 58.0356 40.655 57.0348 40.655L41.8487 40.6537Z" fill="black"/>
<path d="M21.9377 48.8951C21.9385 48.471 22.0238 48.0513 22.1885 47.6605C22.3533 47.2697 22.5943 46.9157 22.8975 46.6191C23.2006 46.3225 23.5598 46.0892 23.9541 45.933C24.3483 45.7767 24.7698 45.7006 25.1938 45.709C26.0396 45.7176 26.8483 46.0577 27.4461 46.6562C28.0438 47.2547 28.3829 48.0638 28.3905 48.9096C28.3877 49.7672 28.0451 50.5886 27.4377 51.194C26.8303 51.7994 26.0077 52.1393 25.1502 52.1393C24.7252 52.141 24.3041 52.0579 23.9115 51.895C23.519 51.7322 23.1628 51.4928 22.8637 51.1908C22.5647 50.8888 22.3288 50.5302 22.1698 50.1361C22.0108 49.7419 21.9319 49.3201 21.9377 48.8951ZM25.1383 50.1444C25.3032 50.147 25.467 50.1168 25.6201 50.0554C25.7731 49.994 25.9125 49.9028 26.0299 49.787C26.1473 49.6711 26.2405 49.5331 26.3039 49.3809C26.3674 49.2286 26.3999 49.0653 26.3995 48.9004C26.3933 48.5784 26.2613 48.2717 26.0317 48.0459C25.8022 47.82 25.4934 47.693 25.1713 47.692C25.0066 47.687 24.8426 47.7155 24.6893 47.776C24.5361 47.8365 24.3968 47.9277 24.2799 48.0439C24.1631 48.1601 24.0712 48.2989 24.0099 48.4519C23.9486 48.6048 23.9191 48.7687 23.9234 48.9334C23.9244 49.255 24.0529 49.563 24.2806 49.79C24.5083 50.0169 24.8168 50.1444 25.1383 50.1444Z" fill="black"/>
<path d="M54.3154 48.8991C54.3146 48.4749 54.3986 48.0548 54.5623 47.6635C54.7261 47.2723 54.9664 46.9176 55.2691 46.6205C55.5718 46.3233 55.9308 46.0896 56.325 45.9331C56.7193 45.7766 57.1408 45.7004 57.5649 45.709C58.4109 45.7149 59.2205 46.0539 59.8183 46.6525C60.4162 47.251 60.7541 48.061 60.7589 48.907C60.7595 49.3316 60.6762 49.7522 60.514 50.1446C60.3517 50.537 60.1136 50.8935 59.8134 51.1938C59.5131 51.494 59.1566 51.7321 58.7642 51.8944C58.3718 52.0566 57.9512 52.1399 57.5266 52.1394C57.1018 52.1417 56.6808 52.0593 56.2882 51.8969C55.8957 51.7345 55.5394 51.4954 55.2404 51.1937C54.9414 50.892 54.7055 50.5336 54.5467 50.1396C54.3879 49.7456 54.3092 49.3239 54.3154 48.8991ZM58.7667 48.9453C58.7756 48.6238 58.6571 48.3118 58.4369 48.0773C58.2168 47.8428 57.9128 47.7048 57.5914 47.6934C57.4269 47.6816 57.2618 47.7038 57.1063 47.7585C56.9508 47.8133 56.8082 47.8995 56.6875 48.0117C56.5667 48.1239 56.4703 48.2598 56.4043 48.4108C56.3383 48.5619 56.304 48.725 56.3037 48.8898C56.297 49.0489 56.3219 49.2077 56.3769 49.3571C56.432 49.5064 56.5161 49.6434 56.6244 49.7601C56.7327 49.8768 56.863 49.9708 57.0079 50.0368C57.1528 50.1027 57.3093 50.1393 57.4684 50.1444C57.6331 50.1541 57.7981 50.1304 57.9534 50.0748C58.1088 50.0192 58.2513 49.9329 58.3725 49.8209C58.4937 49.709 58.5911 49.5737 58.6588 49.4233C58.7265 49.2729 58.7632 49.1103 58.7667 48.9453Z" fill="black"/>
</g>
<defs>
<clipPath id="clip0_93_39">
<rect width="67.6877" height="65" fill="white"/>
</clipPath>
</defs>
</svg>
