<svg width="72" height="58" viewBox="0 0 72 58" fill="none" xmlns="http://www.w3.org/2000/svg">
<g clip-path="url(#clip0_13_79)">
<path d="M0 16.6311C0.347061 15.137 1.34184 14.1051 2.42386 13.1048C8.89181 7.08411 16.4028 2.93794 25.0663 1.1748C42.2004 -2.31623 57.163 2.02853 69.8613 14.0662C70.613 14.7788 70.96 15.6938 71.2737 16.6366V18.0267C71.2198 18.1235 71.1745 18.2247 71.1382 18.3293C70.2102 21.8091 66.3128 22.88 63.6161 20.4747C61.6488 18.7227 59.6648 16.9484 57.4785 15.4878C49.6705 10.2912 41.0293 8.19025 31.6939 9.11451C22.481 10.0258 14.5153 13.7247 7.93786 20.2149C4.99248 23.1176 0.677418 21.5437 0.092797 18.1344C0.092797 18.0954 0.0389743 18.062 0.0111352 18.0267L0 16.6311Z" fill="#5A1305"/>
<path d="M37.0056 19.4818C43.5014 19.5783 50.3442 22.3084 56.0401 27.8094C57.8961 29.6041 57.9889 32.3472 56.274 34.1604C54.5591 35.9737 51.7807 36.0461 49.9248 34.2588C47.0648 31.512 43.7631 29.5967 39.8582 28.8339C32.9466 27.4846 26.8666 29.1865 21.6996 33.9841C20.4228 35.1719 19.0327 35.8159 17.2918 35.4299C15.6214 35.0587 14.4912 34.0138 13.9938 32.3825C13.4834 30.7121 13.875 29.2032 15.0962 27.969C17.5295 25.5089 20.3945 23.5171 23.5482 22.0931C27.3677 20.356 31.3914 19.4837 37.0056 19.4818Z" fill="#5A1305"/>
<path d="M45.1866 48.531C45.173 49.791 44.9108 51.0359 44.4148 52.1942C43.9189 53.3526 43.1991 54.4016 42.2967 55.2811C41.3943 56.1606 40.3271 56.8531 39.1564 57.3191C37.9856 57.785 36.7344 58.0152 35.4744 57.9963C30.2258 57.8997 26.0091 53.5791 26.0629 48.3639C26.1205 43.0856 30.5265 38.7854 35.7769 38.8801C40.9977 38.9784 45.2627 43.351 45.1866 48.531Z" fill="#5A1305"/>
</g>
<defs>
<clipPath id="clip0_13_79">
<rect width="71.2681" height="58" fill="white"/>
</clipPath>
</defs>
</svg>
