<svg width="71" height="58" viewBox="0 0 71 58" fill="none" xmlns="http://www.w3.org/2000/svg">
<g clip-path="url(#clip0_92_9)">
<path d="M71.0001 21.0898C70.9445 21.2643 70.8871 21.4369 70.8353 21.6133C70.3075 23.3864 69.2279 24.6564 67.3928 25.0648C65.6022 25.464 64.1301 24.8031 62.982 23.3939C60.3258 20.0867 57.1332 17.2516 53.538 15.0074C40.8479 7.11472 24.9747 8.27884 13.6197 17.991C11.713 19.6027 9.9616 21.3905 8.38851 23.3307C6.27751 25.969 3.53691 25.8298 1.90737 24.5283C-0.216595 22.8424 -0.68509 19.5803 1.13148 17.4433C3.02583 15.2153 4.99424 13.0003 7.1682 11.0453C13.1179 5.69438 20.0453 2.19088 27.9319 0.733403C37.1315 -0.967292 45.9421 0.302658 54.3417 4.43C55.0583 4.78276 55.3046 5.35833 55.0176 5.94132C54.7305 6.52431 54.1454 6.65984 53.4028 6.29222C47.4772 3.35314 41.209 1.87153 34.6038 2.12589C21.4564 2.6309 11.031 8.51464 2.81473 18.6204C2.45763 19.0364 2.22351 19.5442 2.13877 20.0864C2.05403 20.6287 2.12204 21.1839 2.33512 21.6895C3.04064 23.6092 5.07757 23.8989 6.45157 22.3634C8.05519 20.5755 9.62178 18.7244 11.4161 17.1425C18.8861 10.557 27.6023 7.24283 37.5888 7.78497C46.7421 8.27884 54.5565 12.0163 61.1617 18.3345C62.2727 19.4039 63.3079 20.5625 64.3189 21.7414C65.5392 23.1562 66.7521 23.4737 67.8743 22.5769C69.0909 21.6059 69.2964 19.6861 68.2613 18.392C67.4669 17.3987 66.6299 16.437 65.7596 15.5105C63.4625 13.0617 60.8934 10.8846 58.1026 9.0215L57.873 8.86369C57.2452 8.41252 57.0878 7.85553 57.4378 7.32638C57.7878 6.79723 58.4081 6.69512 59.0136 7.14071C60.5617 8.27884 62.1931 9.32043 63.593 10.6182C65.7059 12.5807 67.7021 14.6806 69.6353 16.8232C70.2686 17.525 70.5612 18.5406 71.0038 19.4225L71.0001 21.0898Z" fill="black"/>
<path d="M35.4722 15.3879C44.3347 15.5532 51.638 18.9583 57.6673 25.2486C58.6414 26.2642 59.4858 27.3225 59.7043 28.7874C60.0191 30.8687 58.9636 33.0689 57.147 33.986C55.3304 34.9032 53.375 34.4651 51.838 32.7699C48.7345 29.337 45.0384 26.8453 40.5034 25.813C33.3316 24.1699 26.9856 25.9133 21.4303 30.7072C20.6437 31.4229 19.8946 32.1789 19.186 32.9723C17.6454 34.6117 15.7288 35.0648 13.9289 34.1866C12.129 33.3084 11.0031 31.1379 11.305 29.0882C11.4494 28.0267 11.9072 27.0329 12.6197 26.2345C17.6546 20.5457 23.8228 16.8937 31.3724 15.7184C31.8502 15.6442 32.3316 15.5792 32.8149 15.5439C33.7371 15.4771 34.6611 15.4344 35.4722 15.3879ZM35.4222 17.4711C34.6667 17.5194 33.7168 17.5361 32.7779 17.6438C25.2153 18.5015 19.0749 22.0255 14.0974 27.7143C13.8279 28.0181 13.6232 28.3739 13.4958 28.7599C13.3684 29.1459 13.3211 29.5539 13.3567 29.959C13.4345 31.1157 14.1511 32.1257 15.1011 32.4153C16.1566 32.7328 16.9695 32.3169 17.6935 31.5353C18.4768 30.6868 19.2842 29.8643 20.1378 29.0789C28.1078 21.8324 40.2312 21.1064 48.9493 27.4413C50.5825 28.6277 52.0176 30.0963 53.4787 31.5037C54.886 32.8609 56.7933 32.497 57.4729 30.6571C57.8914 29.5208 57.7359 28.4402 56.9322 27.5379C51.251 21.1566 44.2162 17.6475 35.4222 17.4711Z" fill="black"/>
<path d="M35.5019 30.8093C39.7893 30.8836 43.5274 32.3244 46.7161 35.1316C48.2197 36.4554 48.6956 38.1765 48.2512 40.1074C47.8494 41.849 46.8124 43.1004 45.0588 43.6202C43.6866 44.0287 42.4423 43.6908 41.2534 42.9036C40.185 42.1962 39.0535 41.5816 37.9203 40.9708C37.3444 40.6607 37.0407 40.1873 37.2203 39.6433C37.3999 39.0993 37.961 38.7428 38.5517 39.012C39.7368 39.569 40.996 40.0629 41.9941 40.8687C43.5477 42.1238 44.8977 41.7264 45.618 40.8798C46.1217 40.2802 46.3739 39.508 46.3214 38.7258C46.2689 37.9436 45.9158 37.2122 45.3365 36.6856C43.1237 34.7157 40.5535 33.4588 37.6166 33.0577C33.1224 32.4432 29.18 33.741 25.7653 36.6931C25.2932 37.0897 24.9555 37.6235 24.7989 38.2208C24.6424 38.8182 24.6746 39.4495 24.8913 40.0276C25.5005 41.7784 27.2875 42.3187 28.7115 41.1416C30.0077 40.0666 31.4336 39.2348 33.0835 38.8449C33.9223 38.6463 34.6112 39.2163 34.4019 39.9905C34.3452 40.169 34.2506 40.3331 34.1247 40.4715C33.9987 40.61 33.8444 40.7195 33.6723 40.7926C32.2628 41.2411 30.9539 41.9606 29.8188 42.911C28.4874 43.9767 26.9671 44.2107 25.3987 43.468C23.6747 42.6641 22.8062 41.2084 22.6562 39.3499C22.5248 37.7384 23.0433 36.3199 24.2617 35.2356C27.469 32.3893 31.228 30.8966 35.5019 30.8093Z" fill="black"/>
<path d="M35.5296 47.1998C36.9562 47.2057 38.3224 47.7782 39.3289 48.7919C40.3354 49.8056 40.9002 51.1779 40.8997 52.6083C40.8886 54.0375 40.3164 55.4048 39.3072 56.4143C38.298 57.4237 36.9329 57.9941 35.5074 58.0018C34.0814 57.9867 32.7187 57.4095 31.7138 56.395C30.7089 55.3805 30.1426 54.0102 30.1373 52.5804C30.1452 51.1513 30.7166 49.7834 31.7269 48.7753C32.7372 47.7672 34.1043 47.2008 35.5296 47.1998ZM35.5463 49.2849C34.672 49.2799 33.8311 49.6215 33.2068 50.2352C32.5825 50.849 32.2253 51.6853 32.2131 52.5618C32.2096 53.4393 32.5503 54.283 33.1618 54.9107C33.7733 55.5384 34.6065 55.8998 35.4815 55.9168C36.3569 55.9169 37.1972 55.5717 37.8209 54.9558C38.4446 54.3398 38.8015 53.5026 38.8147 52.625C38.8196 51.7485 38.4789 50.9056 37.8667 50.2799C37.2544 49.6543 36.4204 49.2966 35.5463 49.2849Z" fill="black"/>
</g>
<defs>
<clipPath id="clip0_92_9">
<rect width="71" height="58" fill="white"/>
</clipPath>
</defs>
</svg>
