<svg width="67" height="64" viewBox="0 0 67 64" fill="none" xmlns="http://www.w3.org/2000/svg">
<g clip-path="url(#clip0_93_65)">
<path d="M12.9838 49.3341C12.9838 51.7262 12.97 54.0551 13.0055 56.3841C13.0055 56.6266 13.2737 56.9244 13.4945 57.094C15.648 58.7466 17.8172 60.3774 19.9805 62.0241C20.1521 62.1542 20.4223 62.2745 20.4578 62.4402C20.5406 62.8346 20.6372 63.294 20.4873 63.6234C20.2901 64.0434 19.805 64.1223 19.3593 63.8778C19.1525 63.7554 18.9548 63.6183 18.7677 63.4676L12.051 58.3857C11.3845 58.8846 10.716 59.3816 10.0494 59.8844C8.42316 61.1176 6.79559 62.3494 5.1667 63.58C4.44099 64.1262 3.91446 64.1302 3.54372 63.6037C3.17298 63.0771 3.34652 62.6176 4.02095 62.101C6.20398 60.4484 8.38109 58.7899 10.576 57.1532C10.7542 57.0385 10.8984 56.8781 10.9934 56.6887C11.0885 56.4993 11.1309 56.2879 11.1163 56.0764C11.0887 54.0591 11.1064 52.0417 11.1045 50.0223C11.1045 49.8113 11.0808 49.5984 11.067 49.3499H1.90103V50.1387C1.90103 52.8772 1.90103 55.6163 1.90103 58.3561C1.91239 58.5956 1.89784 58.8356 1.85764 59.0719C1.74524 59.5847 1.40999 59.8726 0.871633 59.8292C0.651516 59.8251 0.441613 59.7356 0.286309 59.5796C0.131005 59.4235 0.0424734 59.2132 0.0394392 58.9931C0.0226632 58.7772 0.0167403 58.5607 0.0216918 58.3443C0.0216918 48.1588 0.0631013 37.9713 -0.00591944 27.7779C-0.0256397 24.9343 2.00949 23.1516 4.48635 23.3488C5.27515 23.4119 6.06396 23.3586 6.91588 23.3586C6.91588 22.8025 6.91588 22.3273 6.91588 21.852C6.92771 19.8583 6.86461 17.8606 6.97109 15.8709C7.03247 14.7045 7.52119 13.6016 8.34397 12.7727C9.16674 11.9437 10.266 11.4467 11.4318 11.3766C13.5616 11.2642 15.7052 11.3234 17.8409 11.3924C19.0655 11.4318 20.0101 12.053 20.649 13.1376C21.6351 14.7823 22.6566 16.3974 23.7254 18.119C23.895 17.8094 24.0232 17.5944 24.1336 17.3716C25.1531 15.3345 26.1825 13.3013 27.1823 11.2583C27.2834 11.0017 27.4637 10.784 27.6972 10.6372C27.9306 10.4903 28.2049 10.4219 28.4799 10.4419C31.0022 10.4577 33.5244 10.4419 36.0486 10.4419C37.1825 10.4419 37.5374 11.065 37.0208 12.1043C35.6975 14.7685 34.3566 17.4288 33.0511 20.0949C32.9229 20.3552 32.9545 20.7102 32.9742 21.0159C33.0235 21.7652 33.1083 22.5107 33.1832 23.3152H34.0785C34.0785 22.627 33.9622 21.9348 34.1022 21.3117C34.4118 19.9194 35.6325 19.0478 37.1371 19.034C38.9119 19.0182 40.6868 19.0103 42.4616 19.034C42.6595 19.0541 42.8587 19.0107 43.0303 18.91C43.202 18.8093 43.337 18.6566 43.416 18.4739C44.2305 17.0324 45.0824 15.6125 45.9205 14.1848C47.0584 12.2423 48.6813 11.2051 51.0044 11.28C52.8995 11.3411 54.7985 11.2918 56.6976 11.2938C58.9201 11.2938 60.05 12.4198 60.0737 14.664C60.0895 17.5214 60.0737 20.3828 60.0737 23.3409H62.0161C64.4496 23.3527 66.1179 24.954 66.1219 27.3875C66.1403 37.7919 66.1403 48.1949 66.1219 58.5967C66.1219 59.4092 65.8143 59.8016 65.2128 59.8115C64.6113 59.8213 64.2564 59.3954 64.2544 58.5572C64.2544 55.7478 64.2544 52.937 64.2544 50.1249V49.3341H55.051V50.7934C55.051 52.5682 55.0273 54.343 55.0727 56.1179C55.0979 56.4795 55.2643 56.8166 55.5361 57.0565C57.7053 58.7367 59.8923 60.3735 62.0733 62.028C62.2705 62.172 62.5486 62.3199 62.5861 62.5052C62.661 62.8681 62.728 63.3729 62.5368 63.6076C62.3455 63.8423 61.8387 63.8718 61.4738 63.8561C61.251 63.8561 61.0341 63.5898 60.8231 63.4301C58.6006 61.7539 56.3821 60.0777 54.1182 58.362L47.9675 63.0101L47.0465 63.7042C46.5555 64.0769 46.0704 64.1105 45.6444 63.6194C45.2737 63.1915 45.3959 62.6117 45.9442 62.1937C48.143 60.5234 50.3398 58.8412 52.5603 57.2064C52.7674 57.0728 52.9349 56.8863 53.0456 56.6661C53.1562 56.4459 53.2058 56.2001 53.1894 55.9542C53.1558 53.7712 53.1756 51.5842 53.1756 49.3459H50.5429C50.4877 49.5274 50.4285 49.7403 50.3575 49.9375C49.9178 51.174 49.0521 51.949 47.7643 52.1718C46.3997 52.4085 45.254 51.9746 44.4119 50.8526C44.3951 50.8347 44.3805 50.8148 44.3685 50.7934C43.8775 49.3282 42.7593 49.2532 41.4223 49.271C36.1136 49.3341 30.803 49.3025 25.4943 49.2868C25.0309 49.2868 24.7686 49.3735 24.5951 49.8587C23.9561 51.6335 22.7907 52.4538 21.1697 52.3631C19.4836 52.2704 18.3142 51.2075 17.8665 49.3341H12.9838ZM25.5416 47.3621H42.1973C42.1973 47.2891 42.1973 47.2615 42.1973 47.2457C41.3612 45.8456 40.529 44.4415 39.683 43.0473C38.9928 41.9094 38.6694 40.6809 39.0441 39.3991C39.2413 38.7207 39.1111 38.2612 38.6615 37.8057C38.5615 37.7016 38.4686 37.5909 38.3834 37.4744C37.2515 35.9421 37.4684 34.1219 38.9553 32.9387C40.5921 31.6411 42.2565 30.3751 43.9071 29.0972C44.1476 28.9118 44.3823 28.7146 44.5973 28.5411C44.1674 27.2001 44.1891 26.8885 44.7945 25.2636H20.0436C20.0436 25.796 20.1067 26.3048 20.0318 26.7899C19.7498 28.6279 20.5564 29.9905 21.8362 31.1757C23.049 32.3037 24.2933 33.4041 25.447 34.5913C26.2824 35.4459 27.0443 36.3695 27.7247 37.3521C28.3991 38.3381 28.4661 39.4444 28.0165 40.5862C27.5314 41.8108 27.0975 43.0572 26.6479 44.2976C26.2792 45.3112 25.9183 46.3228 25.5416 47.3621ZM26.5513 23.331V23.3507C27.6793 23.3507 28.8132 23.406 29.9353 23.3212C30.3947 23.2777 30.8191 23.057 31.1185 22.7059C31.6864 21.9171 31.0238 20.9192 29.959 20.9074C28.0126 20.8857 26.0682 20.8818 24.1237 20.9074C23.8501 20.9292 23.5761 20.8696 23.3362 20.7363C23.0962 20.603 22.901 20.4019 22.7749 20.158C21.5818 18.186 20.3296 16.2554 19.1562 14.2735C18.7243 13.5439 18.1702 13.2106 17.3498 13.2067C15.644 13.2067 13.9402 13.1652 12.2364 13.1731C10.0455 13.185 8.79719 14.4352 8.7893 16.6242C8.77944 20.515 8.73014 24.4058 8.81494 28.2946C8.84846 29.888 9.17976 31.4774 9.39274 33.0649C9.46965 33.6565 9.78714 33.8912 10.4221 33.8656C11.8617 33.8084 13.3033 33.832 14.7448 33.8537C15.7181 33.8431 16.6573 34.2115 17.3637 34.8812C18.7973 36.2616 20.1856 37.6972 21.5956 39.1052C22.4515 39.9591 22.6467 40.9234 22.2109 42.0633C21.4221 44.1477 20.6688 46.2479 19.9194 48.3461C19.5546 49.3676 19.9569 50.1525 20.9409 50.4227C21.8066 50.6593 22.4672 50.2826 22.8202 49.3164C23.8989 46.3583 24.9007 43.3885 26.0701 40.4758C26.5572 39.259 26.3561 38.3066 25.5475 37.4487C24.5162 36.3444 23.4099 35.3111 22.345 34.2383C21.3156 33.199 20.2625 32.1795 19.2883 31.083C18.5722 30.32 18.1695 29.3154 18.1603 28.269C18.1603 26.1313 18.1347 23.9936 18.184 21.8579C18.1939 21.4931 18.4502 20.9547 18.7382 20.8246C19.0261 20.6944 19.5822 20.864 19.8918 21.0809C20.8936 21.781 21.7356 22.8558 22.8281 23.2324C23.9206 23.6091 25.305 23.331 26.5513 23.331ZM51.5388 23.404C51.9517 23.3182 52.3691 23.2556 52.789 23.2166C53.3077 23.1969 53.4852 22.982 53.4655 22.4574C53.428 21.3767 53.4418 20.2882 53.4655 19.2154C53.4773 18.4917 53.8303 18.0914 54.4061 18.0914C54.9819 18.0914 55.3231 18.4858 55.331 19.2154C55.3428 20.488 55.3428 21.7606 55.331 23.0332C55.3172 24.1652 54.8202 24.7528 53.6883 24.9501C51.4915 25.3339 49.2913 25.7027 47.0879 26.0564C46.4214 26.1609 46.2025 26.5691 46.2005 27.1528C46.2005 27.9416 46.8473 28.4366 47.7545 28.2926C50.7401 27.818 53.7231 27.3323 56.7035 26.8353C57.7743 26.6558 58.3009 26.0642 58.3009 24.9875C58.2838 21.5076 58.2542 18.0237 58.2121 14.5358C58.1983 13.4926 57.8512 13.1712 56.8021 13.1692C54.8814 13.1692 52.9586 13.2205 51.0399 13.1514C49.4031 13.0923 48.3047 13.8022 47.5198 15.1767C46.5811 16.8233 45.5853 18.4365 44.6525 20.087C44.5247 20.3562 44.3168 20.5793 44.0574 20.7258C43.7979 20.8723 43.4995 20.935 43.2031 20.9054C41.306 20.8719 39.4089 20.8936 37.5098 20.8956C36.4292 20.8956 35.8277 21.3472 35.8395 22.1399C35.8514 22.9327 36.4311 23.3429 37.4743 23.3448H45.954C45.954 22.4338 45.954 21.5976 45.954 20.7634C45.9639 19.8228 46.2656 19.523 47.2181 19.5132C48.2258 19.5132 49.2355 19.5132 50.2432 19.5132C51.2509 19.5132 51.5348 19.8031 51.5388 20.795C51.5447 21.6371 51.5408 22.4732 51.5408 23.404H51.5388ZM60.1999 25.2301C60.0402 26.3265 59.6418 27.2258 58.8727 27.9554C58.7958 28.0427 58.7385 28.1453 58.7044 28.2565C58.6704 28.3677 58.6606 28.4849 58.6755 28.6003C59.0423 30.5151 58.2279 31.8186 56.6108 32.7415C56.4899 32.8199 56.3758 32.9083 56.2697 33.0058L55.2265 33.8616C56.7903 33.8616 58.1115 33.8616 59.4328 33.8616C59.8068 33.8508 60.1778 33.9327 60.5125 34.0999C60.8473 34.2671 61.1355 34.5145 61.3516 34.82C62.0161 35.7035 61.9964 39.3557 61.3279 40.2372C60.8053 40.9293 60.0796 41.1719 59.2435 41.1699C57.8788 41.1699 56.5142 41.1699 55.1259 41.1699V47.3621H64.2702V27.8588C64.2702 27.6182 64.2702 27.3776 64.2524 27.139C64.2297 26.6414 64.0216 26.1704 63.6691 25.8186C63.3165 25.4667 62.845 25.2596 62.3474 25.238C61.6533 25.1985 60.9611 25.2301 60.2019 25.2301H60.1999ZM11.065 41.2035C10.8146 41.1877 10.6036 41.166 10.3926 41.164C9.19356 41.164 7.9926 41.1857 6.79164 41.164C5.29093 41.1226 4.39564 40.1898 4.37986 38.699C4.37 37.8589 4.36408 37.0169 4.37986 36.1787C4.377 35.8779 4.43355 35.5795 4.54626 35.3006C4.65898 35.0217 4.82565 34.7678 5.0367 34.5534C5.24776 34.3391 5.49906 34.1685 5.77619 34.0515C6.05331 33.9345 6.35081 33.8733 6.65163 33.8715C6.95335 33.8596 7.25507 33.8715 7.38522 33.8715C7.17421 30.9588 6.96715 28.1309 6.75812 25.2399H4.5179C2.59912 25.2399 1.89709 25.9282 1.89709 27.8213C1.89709 34.0884 1.89709 40.3548 1.89709 46.6206C1.89709 46.875 1.91878 47.1294 1.93258 47.3956H11.0611L11.065 41.2035ZM56.6917 28.758C55.2127 29.0242 53.7731 29.2747 52.3375 29.5468C52.1548 29.6003 51.9877 29.697 51.8504 29.8288C48.5019 32.633 45.156 35.4425 41.8128 38.2573C40.6907 39.2038 40.4324 40.6237 41.1817 41.8976C42.7068 44.481 44.2607 47.0446 45.8436 49.5885C46.0726 49.9184 46.4028 50.1648 46.7842 50.2905C47.0712 50.3938 47.3847 50.3972 47.6738 50.3003C47.963 50.2033 48.211 50.0115 48.3776 49.7561C48.5716 49.5068 48.6816 49.2025 48.6918 48.8869C48.7021 48.5712 48.6121 48.2604 48.4348 47.999C47.362 46.2084 46.2755 44.4257 45.1968 42.6391C44.2581 41.0832 44.4296 40.0755 45.8298 38.9494C49.2217 36.234 52.5958 33.4948 56.0251 30.8286C56.7607 30.2568 56.9204 29.6711 56.6937 28.7541L56.6917 28.758ZM31.4301 19.1109L34.7825 12.3883C34.6671 12.3539 34.549 12.3288 34.4295 12.3133C32.6784 12.3133 30.9272 12.2916 29.1761 12.3311C29.0385 12.3615 28.9091 12.4211 28.7965 12.5058C28.6839 12.5905 28.5907 12.6984 28.5233 12.8221C27.63 14.5437 26.7722 16.285 25.9065 18.0223C25.7526 18.3319 25.6146 18.6514 25.4016 19.1109H31.4301ZM13.0134 47.4193C14.7034 47.4193 16.3303 47.435 17.9572 47.3976C18.1229 47.3976 18.3516 47.1097 18.4364 46.9065C19.0556 45.2737 19.6492 43.6271 20.2467 41.9765C20.7141 40.6907 20.7023 40.6592 19.5171 39.7757C18.9255 40.9589 17.8803 41.2094 16.6794 41.1561C16.1272 41.1305 15.575 41.1561 15.0229 41.1561H13.0134V47.4193ZM12.0116 39.2768C13.6208 39.2768 15.2299 39.2945 16.8391 39.263C17.1586 39.263 17.6634 39.1447 17.7521 38.9396C17.9276 38.5254 17.9493 38.0167 17.4997 37.6321C17.0501 37.2476 16.7267 36.7526 16.2573 36.4351C15.788 36.1176 15.2063 35.7666 14.6659 35.7508C12.1023 35.6798 9.52684 35.7252 6.95729 35.7114C6.42091 35.7114 6.22962 35.9362 6.24737 36.4509C6.27991 37.0986 6.27991 37.7476 6.24737 38.3953C6.20398 39.0559 6.46232 39.2965 7.11703 39.2847C8.74592 39.2768 10.3807 39.2768 12.0116 39.2768ZM48.4782 39.2334C48.9219 39.2551 49.1526 39.2748 49.3834 39.2748C50.6553 39.2748 51.9273 39.2748 53.1992 39.2748H58.7465C59.9297 39.2748 59.9297 39.2748 59.9297 38.064C59.9297 37.5592 59.9021 37.0543 59.9297 36.5515C59.9712 35.9342 59.7325 35.6936 59.1035 35.7055C57.4489 35.737 55.7905 35.7587 54.1359 35.7055C53.7234 35.6735 53.3086 35.727 52.9177 35.8627C52.5268 35.9985 52.1681 36.2135 51.8642 36.4943C50.8328 37.4191 49.7206 38.2454 48.4782 39.2413V39.2334ZM47.0623 40.4166C46.4884 40.7105 46.3958 41.0299 46.7172 41.5466C47.855 43.3766 48.9535 45.2323 50.0795 47.0682C50.1663 47.2102 50.3398 47.3936 50.4739 47.3995C51.3534 47.4291 52.2349 47.4134 53.1263 47.4134V41.1581C51.8188 41.1581 50.5745 41.1463 49.3301 41.1581C48.4979 41.1758 47.7111 41.0516 47.0603 40.4166H47.0623ZM40.3969 36.9892L48.3974 30.2666C47.6085 30.1621 46.8927 30.0497 46.167 29.9767C45.9859 29.9669 45.8069 30.0199 45.6602 30.1266C43.7966 31.5544 41.9311 32.9841 40.0892 34.4394C39.4483 34.9462 39.3911 35.6088 39.8526 36.2852C40.0005 36.5022 40.1721 36.7013 40.3969 36.9892ZM47.8767 21.4359V23.9226L49.6318 23.6584V21.4359H47.8767Z" fill="black"/>
<path d="M19.1069 4.97345C19.095 6.28309 18.5671 7.53521 17.6379 8.45816C16.7087 9.38111 15.453 9.90045 14.1433 9.90351C12.8319 9.88745 11.5795 9.35586 10.6569 8.42369C9.73438 7.49153 9.21578 6.23369 9.21328 4.92218C9.22421 3.61086 9.75281 2.35696 10.684 1.43356C11.6151 0.510171 12.8734 -0.00791903 14.1848 -0.00787353C15.4974 0.00203059 16.7526 0.53191 17.6752 1.46564C18.5979 2.39937 19.1127 3.66079 19.1069 4.97345ZM17.2335 4.9281C17.2262 4.11405 16.8972 3.33595 16.3182 2.76365C15.7393 2.19134 14.9574 1.87132 14.1433 1.87344C13.3292 1.88638 12.5528 2.2189 11.9817 2.79924C11.4106 3.37957 11.0905 4.1612 11.0907 4.97543C11.1051 5.78927 11.4376 6.56512 12.017 7.1368C12.5965 7.70848 13.3767 8.03055 14.1907 8.03403C15.0046 8.02106 15.7805 7.68767 16.3502 7.10621C16.9198 6.52474 17.2372 5.7421 17.2335 4.9281Z" fill="black"/>
<path d="M52.653 1.23771e-08C53.9649 0.0155566 55.2179 0.547254 56.1406 1.47996C57.0634 2.41266 57.5816 3.67129 57.583 4.9833C57.5649 6.29475 57.0322 7.54656 56.0996 8.46881C55.167 9.39105 53.9093 9.90986 52.5978 9.91335C51.2861 9.89474 50.0343 9.36153 49.1121 8.42863C48.1899 7.49574 47.6712 6.23787 47.6677 4.92611C47.6833 3.61421 48.2154 2.36134 49.1486 1.43917C50.0819 0.517011 51.341 -9.23731e-05 52.653 1.23771e-08ZM52.5938 1.87342C51.7802 1.88889 51.005 2.22248 50.4343 2.8027C49.8637 3.38292 49.543 4.16358 49.5411 4.97738C49.5596 5.79111 49.8945 6.5656 50.4749 7.13633C51.0552 7.70707 51.8351 8.02909 52.649 8.03402C53.4627 8.01553 54.2371 7.68017 54.8073 7.09933C55.3774 6.51849 55.6983 5.73805 55.7017 4.92414C55.6857 4.11015 55.3514 3.33484 54.7704 2.76452C54.1894 2.1942 53.408 1.8743 52.5938 1.87342Z" fill="black"/>
</g>
<defs>
<clipPath id="clip0_93_65">
<rect width="66.1515" height="64" fill="white"/>
</clipPath>
</defs>
</svg>
