<svg width="75" height="75" viewBox="0 0 75 75" fill="none" xmlns="http://www.w3.org/2000/svg">
<g clip-path="url(#clip0_13_136)">
<path d="M25.7771 44.0989C24.6368 36.2836 23.4964 28.5698 22.3814 20.8457C22.2815 20.2751 22.3102 19.6893 22.4655 19.1312C22.6207 18.5731 22.8986 18.0566 23.2789 17.6196C23.6591 17.1825 24.1322 16.8358 24.6634 16.6048C25.1947 16.3738 25.7709 16.2643 26.3498 16.2843C33.9218 16.264 41.4921 16.264 49.0607 16.2843C51.6658 16.2843 53.3687 18.3471 52.9937 20.9471C51.9057 28.5089 50.8109 36.0708 49.7094 43.6326C49.6739 43.8041 49.6282 43.9733 49.5726 44.1394L25.7771 44.0989Z" fill="#5A1305"/>
<path d="M21.0332 24.059H9.48777C6.57859 24.059 5.06319 22.5385 5.06319 19.6496C5.06319 14.551 5.06319 9.4506 5.06319 4.34856C5.06319 1.56102 6.61407 0.00506592 9.39147 0.00506592H36.3698C39.1624 0.00506592 40.7234 1.56102 40.7285 4.32828V14.4901H26.6894C22.5284 14.4901 20.0247 17.4449 20.6835 21.5857C20.8102 22.3713 20.9065 23.1416 21.0332 24.059ZM36.2887 10.8815C36.5674 10.6433 36.9729 10.4659 37.0236 10.2176C37.057 10.0331 37.0518 9.84369 37.0082 9.66134C36.9645 9.479 36.8835 9.3077 36.7702 9.15833C34.8087 7.13103 32.7967 5.15442 30.8048 3.16259C30.3842 2.74193 29.9128 2.61015 29.4567 3.03081C29.0005 3.45148 29.107 3.99378 29.5428 4.43472C31.5195 6.41134 33.4859 8.38795 35.4727 10.3544C35.728 10.5606 36.0011 10.7437 36.2887 10.9018V10.8815ZM36.7195 7.06007C37.0084 6.832 37.4189 6.66475 37.4747 6.41641C37.5116 6.23334 37.5099 6.04458 37.4698 5.86219C37.4296 5.67981 37.3519 5.50779 37.2415 5.35714C36.4002 4.41951 35.4828 3.55285 34.5908 2.67097C34.1702 2.25538 33.6836 2.13373 33.2427 2.5696C32.8017 3.00547 32.9132 3.53257 33.3542 3.97351C34.2107 4.81991 35.0571 5.68151 35.9238 6.50764C36.1723 6.72072 36.4385 6.91231 36.7195 7.08035V7.06007Z" fill="#5A1305"/>
<path d="M37.7078 52.3298C32.4774 52.3298 27.2402 52.3298 21.9962 52.3298C21.3069 52.3476 20.631 52.1372 20.0737 51.7311C19.5164 51.325 19.109 50.7462 18.9147 50.0845C18.6937 49.4401 18.6954 48.7401 18.9196 48.0968C19.1439 47.4535 19.5776 46.9041 20.1514 46.5368C20.7425 46.1773 21.4163 45.9766 22.1077 45.9539C32.4875 45.9167 42.8673 45.9167 53.2471 45.9539C53.684 45.9331 54.1206 46.0019 54.5299 46.1561C54.9393 46.3102 55.3128 46.5465 55.6275 46.8503C55.9422 47.1541 56.1915 47.519 56.36 47.9227C56.5285 48.3263 56.6126 48.7602 56.6073 49.1976C56.5668 51.0069 55.1477 52.3247 53.2167 52.3247C48.0572 52.3348 42.8876 52.3365 37.7078 52.3298Z" fill="#5A1305"/>
<path d="M5.50413 39.1573H10.4963V74.5743H5.50413V39.1573Z" fill="#5A1305"/>
<path d="M64.1742 39.1573H69.1664V74.5743H64.1742V39.1573Z" fill="#5A1305"/>
<path d="M22.9541 37.3074C22.7058 37.3074 22.5182 37.3429 22.3358 37.3429H2.70643C2.13995 37.3718 1.57972 37.2132 1.11246 36.8916C0.645202 36.57 0.296976 36.1034 0.121639 35.5639C-0.0533955 35.0649 -0.057778 34.5219 0.109172 34.0201C0.276122 33.5184 0.604957 33.0862 1.04406 32.7916C1.56473 32.4759 2.15859 32.3013 2.76725 32.2848C9.04175 32.2543 15.3163 32.2848 21.5907 32.2848C22.0418 32.2848 22.275 32.3861 22.3358 32.8777C22.5132 34.3019 22.7362 35.7616 22.9541 37.3074Z" fill="#5A1305"/>
<path d="M52.4564 37.2821C52.6845 35.721 52.8872 34.2107 53.1356 32.7206C53.1755 32.6096 53.243 32.5104 53.3316 32.4324C53.4202 32.3544 53.5271 32.3002 53.6424 32.2746C59.8662 32.2746 66.09 32.2442 72.3138 32.2746C72.9677 32.3075 73.5825 32.5957 74.0261 33.0771C74.4696 33.5586 74.7065 34.195 74.6858 34.8493C74.6685 35.5161 74.389 36.1492 73.908 36.6113C73.4269 37.0733 72.7831 37.3271 72.1162 37.3175C65.6795 37.3175 59.2411 37.3175 52.8011 37.3175C52.6946 37.3327 52.6338 37.3074 52.4564 37.2821Z" fill="#5A1305"/>
<path d="M60.1551 21.7479H72.1466C71.9641 22.8527 71.7969 23.9221 71.6397 24.9865C71.4218 26.2789 71.2039 27.5764 70.9758 28.8688C70.7477 30.1612 70.3524 30.445 69.0803 30.4501C67.053 30.4501 65.0561 30.4501 63.044 30.4501C62.2888 30.4501 61.6705 30.1764 61.5235 29.4364C61.0218 26.8972 60.6062 24.358 60.1551 21.7479Z" fill="#5A1305"/>
<path d="M37.7027 68.4518C34.155 68.4518 30.6072 68.4518 27.0847 68.4518C26.5854 68.4919 26.0889 68.3457 25.691 68.0413C25.3416 67.5979 25.1619 67.0444 25.1841 66.4803C25.2222 66.1697 25.3641 65.8811 25.5867 65.6613C25.8093 65.4414 26.0997 65.3032 26.4107 65.269C26.6231 65.2325 26.8389 65.2189 27.0543 65.2284C34.1499 65.2284 41.2556 65.2284 48.3714 65.2284C49.6131 65.2284 50.3987 65.9329 50.3328 66.9516C50.2669 67.869 49.5776 68.4721 48.5032 68.4721C45.3913 68.4721 42.2794 68.4721 39.1674 68.4721L37.7027 68.4518Z" fill="#5A1305"/>
<path d="M35.3764 54.1593H40.024V63.3683H35.3663L35.3764 54.1593Z" fill="#5A1305"/>
<path d="M65.3298 10.5673H67.0327V13.7046C67.5395 12.7669 68.0464 11.8952 68.9941 11.3782C69.9323 10.8993 71.0103 10.77 72.0351 11.0133C72.3088 13.6133 70.7224 14.9564 67.1138 15.1642V17.1662H65.3399V15.1389C64.7723 15.1389 64.3009 15.1389 63.8194 15.1389C62.8685 15.1084 61.9679 14.7047 61.3124 14.0151C60.657 13.3255 60.2995 12.4055 60.3173 11.4543C60.3173 11.2769 60.6822 10.9779 60.9001 10.9474C62.9274 10.7143 64.3263 11.5962 65.0358 13.4816C65.0593 13.5511 65.0985 13.6142 65.1503 13.6661C65.2022 13.7179 65.2653 13.7571 65.3348 13.7806L65.3298 10.5673Z" fill="#5A1305"/>
<path d="M66.0748 19.9385H59.405C58.8677 19.9385 58.4978 19.6952 58.5028 19.1377C58.5079 18.5802 58.8982 18.418 59.3847 18.4079H70.2358C71.067 18.4079 71.8982 18.4079 72.7294 18.4079C73.2819 18.4079 73.8242 18.4991 73.8292 19.1681C73.8343 19.8371 73.3224 19.9487 72.7497 19.9487C70.5247 19.9334 68.2998 19.9385 66.0748 19.9385Z" fill="#5A1305"/>
<path d="M31.1191 72.5774C31.1208 73.2013 30.8803 73.8015 30.4483 74.2515C30.0162 74.7016 29.4263 74.9663 28.8029 74.9899C28.166 74.9887 27.5551 74.7372 27.1019 74.2897C26.6487 73.8422 26.3896 73.2345 26.3802 72.5977C26.3969 71.9752 26.6516 71.3828 27.0919 70.9425C27.5322 70.5022 28.1246 70.2475 28.7471 70.2308C29.3706 70.2347 29.9679 70.4824 30.4111 70.9209C30.8544 71.3595 31.1085 71.954 31.1191 72.5774Z" fill="#5A1305"/>
<path d="M49.0759 72.5977C49.0686 73.2205 48.8228 73.8167 48.3891 74.2636C47.9554 74.7106 47.3667 74.9741 46.7445 75.0001C46.1218 75.0006 45.5231 74.7604 45.0735 74.3297C44.6238 73.8989 44.3582 73.311 44.332 72.6889C44.3211 72.0513 44.5637 71.4354 45.0065 70.9764C45.4493 70.5175 46.0562 70.253 46.6938 70.241C47.3165 70.2561 47.9098 70.5085 48.3526 70.9465C48.7954 71.3846 49.0541 71.9752 49.0759 72.5977Z" fill="#5A1305"/>
<path d="M66.1762 3.04095C68.4518 4.91621 68.4518 7.60238 66.2116 9.33066C63.8955 7.94702 63.8448 4.89087 66.1762 3.04095Z" fill="#5A1305"/>
<path d="M21.9658 30.4095H19.082C19.4418 28.96 19.7662 27.5662 20.1564 26.1876C20.2021 26.0255 20.6075 25.8734 20.8457 25.8785C20.9579 25.8989 21.0631 25.9472 21.1517 26.0189C21.2402 26.0907 21.3093 26.1835 21.3526 26.289C21.5806 27.627 21.7783 28.96 21.9658 30.4095Z" fill="#5A1305"/>
</g>
<defs>
<clipPath id="clip0_13_136">
<rect width="74.6706" height="75" fill="white"/>
</clipPath>
</defs>
</svg>
